<svg width="79" height="100" viewBox="0 0 79 100" fill="none" xmlns="http://www.w3.org/2000/svg">
<path d="M0.5 4.16667V95.8333C0.5 98.1354 2.36458 100 4.66667 100H74.4583C76.7604 100 78.625 98.1354 78.625 95.8333V31.25L47.375 0H4.66667C2.36458 0 0.5 1.86458 0.5 4.16667Z" fill="#0066CC"/>
<path d="M78.625 31.25L47.375 0V27.0833C47.375 29.3854 49.2396 31.25 51.5417 31.25H78.625Z" fill="#00488F"/>
<path d="M54.621 66.9579L46.3081 59.1487C45.6922 58.575 44.9506 58.281 44.1948 58.281C43.4251 58.281 42.7394 58.547 42.0956 59.1208L35.7699 64.7746L33.1808 62.4375C32.593 61.9057 31.9493 61.6398 31.2915 61.6398C30.6617 61.6398 30.0599 61.8917 29.4862 62.4235L24.1541 67.2377C24.2381 69.7709 25.2737 71.0583 27.3589 71.0583H50.8144C53.3474 71.0583 54.621 69.645 54.621 66.9579ZM27.4569 72.038H51.6681C54.607 72.038 56.0625 70.5965 56.0625 67.7137V50.6119C56.0625 47.7289 54.607 46.2734 51.6681 46.2734H27.4569C24.532 46.2734 23.0625 47.7289 23.0625 50.6119V67.7137C23.0625 70.5965 24.532 72.038 27.4569 72.038ZM27.4849 69.7849C26.0854 69.7849 25.3157 69.0431 25.3157 67.5876V50.7378C25.3157 49.2823 26.0854 48.5266 27.4849 48.5266H51.64C53.0256 48.5266 53.8093 49.2823 53.8093 50.7378V67.5876C53.8093 69.0431 53.0256 69.7849 51.64 69.7849H27.4849Z" fill="white"/>
<path d="M33.4903 59.2892C35.2956 59.2892 36.7791 57.8057 36.7791 55.9864C36.7791 54.1811 35.2956 52.6836 33.4903 52.6836C31.671 52.6836 30.1875 54.1811 30.1875 55.9864C30.1875 57.8057 31.671 59.2892 33.4903 59.2892Z" fill="white"/>
</svg>
