<svg width="79" height="100" viewBox="0 0 79 100" fill="none" xmlns="http://www.w3.org/2000/svg">
<path d="M0.25 4.16667V95.8333C0.25 98.1354 2.11458 100 4.41667 100H74.2083C76.5104 100 78.375 98.1354 78.375 95.8333V31.25L47.125 0H4.41667C2.11458 0 0.25 1.86458 0.25 4.16667Z" fill="#0066CC"/>
<path d="M78.375 31.25L47.125 0V27.0833C47.125 29.3854 48.9896 31.25 51.2917 31.25H78.375Z" fill="#00488F"/>
<path d="M49.3353 50.1249V43.9479C49.3353 43.0772 48.6289 42.5187 47.7911 42.6829L39.347 44.5229C38.2956 44.7529 37.7206 45.3279 37.7206 46.2478L37.7535 64.5159C37.8356 65.3209 37.4578 65.8466 36.7349 65.9944L34.1229 66.5367C30.8372 67.2267 29.293 68.9024 29.293 71.3829C29.293 73.8966 31.2315 75.6543 33.9586 75.6543C36.3735 75.6543 39.9877 73.8799 39.9877 69.0994V54.0676C39.9877 53.197 40.152 53.0162 40.9241 52.852L48.4318 51.2092C48.9904 51.0942 49.3353 50.667 49.3353 50.1249Z" fill="white"/>
</svg>
