<svg width="79" height="100" viewBox="0 0 79 100" fill="none" xmlns="http://www.w3.org/2000/svg">
<path d="M0.75 4.16667V95.8333C0.75 98.1354 2.61458 100 4.91667 100H74.7083C77.0104 100 78.875 98.1354 78.875 95.8333V31.25L47.625 0H4.91667C2.61458 0 0.75 1.86458 0.75 4.16667Z" fill="#F04438"/>
<path d="M78.875 31.25L47.625 0V27.0833C47.625 29.3854 49.4896 31.25 51.7917 31.25H78.875Z" fill="#E20016"/>
<path fill-rule="evenodd" clip-rule="evenodd" d="M38.1592 31.25C36.5182 31.25 35.1687 32.5995 35.1687 34.2405C35.1687 36.2806 36.3022 38.8131 37.4957 41.1936C36.5628 44.1141 35.5041 47.2439 34.15 49.8849C33.6596 50.0773 33.1786 50.261 32.7107 50.4396C30.5348 51.2705 28.6443 51.9925 27.4213 52.9782C27.3981 53.0019 27.3763 53.0269 27.3559 53.053C26.8129 53.6083 26.4961 54.3643 26.4961 55.1744C26.4961 56.8154 27.8456 58.1649 29.4866 58.1649C30.2869 58.1649 31.0593 57.8663 31.6174 57.2958C31.6367 57.281 31.6554 57.2654 31.6735 57.2491C32.7673 55.943 34.057 53.5738 35.2061 51.4082C37.8544 50.3664 40.6302 49.3063 43.3086 48.67C45.2639 50.2457 48.0926 51.2867 50.4205 51.2867C52.0615 51.2867 53.411 49.9371 53.411 48.2961C53.411 46.6551 52.0615 45.3056 50.4205 45.3056C48.5537 45.3056 45.8408 45.972 43.7665 46.67C42.0852 45.0916 40.5405 43.1204 39.4302 41.0254C39.5502 40.6558 39.6732 40.2863 39.7955 39.9186L39.7957 39.9183L39.7958 39.9179C40.4826 37.8543 41.1498 35.8496 41.1498 34.2405C41.1498 32.5995 39.8002 31.25 38.1592 31.25ZM38.1611 33.0433C38.8323 33.0433 39.3573 33.5683 39.3573 34.2395C39.3573 35.1371 38.8766 36.7897 38.3199 38.5665C37.5761 36.838 36.9648 35.1797 36.9648 34.2395C36.9648 33.5683 37.4898 33.0433 38.1611 33.0433ZM41.7748 47.2233C40.625 46.0415 39.5715 44.7102 38.6721 43.2795C38.0465 45.1834 37.3856 47.1169 36.56 48.9802C38.2693 48.3296 40.0013 47.7082 41.7748 47.2233ZM50.4203 47.1005C51.0916 47.1005 51.6165 47.6254 51.6165 48.2967C51.6165 48.968 51.0916 49.4929 50.4203 49.4929C49.0726 49.4929 47.1573 48.8846 45.6261 48.035C47.3836 47.5381 49.3014 47.1005 50.4203 47.1005ZM30.3045 56.063C30.8892 55.3579 31.7251 53.9567 32.5661 52.4556C30.8314 53.1499 29.3052 53.8005 28.6036 54.3434C28.4201 54.5455 28.2859 54.8592 28.2859 55.1751C28.2859 55.8464 28.8108 56.3714 29.4821 56.3714C29.8391 56.3714 30.1048 56.2539 30.3045 56.063Z" fill="white"/>
<path fill-rule="evenodd" clip-rule="evenodd" d="M27.5158 74.9843H24.8125V63.209H29.2904C32.1928 63.209 33.4864 64.9172 33.4864 67.2723C33.4864 69.8927 31.745 71.1863 29.0748 71.1863H27.5158V74.9843ZM27.5149 65.6468V68.7648H28.7588C29.9861 68.7648 30.6163 68.1843 30.6163 67.2058C30.6163 66.3102 30.0524 65.6468 28.8085 65.6468H27.5149Z" fill="white"/>
<path fill-rule="evenodd" clip-rule="evenodd" d="M39.0945 74.9843H34.9648V63.209H39.0447C42.7763 63.209 45.1646 65.6304 45.1646 69.1132C45.1646 72.5795 42.909 74.9843 39.0945 74.9843ZM37.6673 65.6806V72.5136H38.9111C40.9345 72.5136 42.2613 71.0209 42.2613 69.1137C42.2613 67.14 40.9179 65.6806 39.1101 65.6806H37.6673Z" fill="white"/>
<path d="M46.8516 74.9843H49.5549V70.7883H53.9002V68.3337H49.5549V65.6801H54.8123V63.209H46.8516V74.9843Z" fill="white"/>
</svg>
