<svg width="79" height="101" viewBox="0 0 79 101" fill="none" xmlns="http://www.w3.org/2000/svg">
<path d="M0.25 4.66667V96.3333C0.25 98.6354 2.11458 100.5 4.41667 100.5H74.2083C76.5104 100.5 78.375 98.6354 78.375 96.3333V31.75L47.125 0.5H4.41667C2.11458 0.5 0.25 2.36458 0.25 4.66667Z" fill="url(#paint0_linear_9573_174068)"/>
<path d="M78.375 31.75L47.125 0.5V27.5833C47.125 29.8854 48.9896 31.75 51.2917 31.75H78.375Z" fill="#FD8F69"/>
<path d="M29.7109 81.2168V56.2168H40.35C45.7924 56.2168 48.9174 59.2365 48.9174 64.1171C48.9174 68.9275 45.7924 71.9822 40.35 71.9822H33.468V81.2168H29.7109ZM40.2798 59.5174H33.468V68.6817H40.2798C43.4048 68.6817 45.0902 67.0665 45.0902 64.1171C45.0902 61.1676 43.4048 59.5174 40.2798 59.5174Z" fill="white"/>
<defs>
<linearGradient id="paint0_linear_9573_174068" x1="39.3125" y1="0.5" x2="39.3125" y2="100.5" gradientUnits="userSpaceOnUse">
<stop stop-color="#EE6B47"/>
<stop offset="1" stop-color="#CA401D"/>
</linearGradient>
</defs>
</svg>
