<svg width="79" height="100" viewBox="0 0 79 100" fill="none" xmlns="http://www.w3.org/2000/svg">
<path d="M0.625 4.16667V95.8333C0.625 98.1354 2.48958 100 4.79167 100H74.5833C76.8854 100 78.75 98.1354 78.75 95.8333V31.25L47.5 0H4.79167C2.48958 0 0.625 1.86458 0.625 4.16667Z" fill="#0066CC"/>
<path d="M78.75 31.25L47.5 0V27.0833C47.5 29.3854 49.3646 31.25 51.6667 31.25H78.75Z" fill="#00488F"/>
<path d="M24.4158 47.5276H54.9264C55.6144 47.5276 56.1875 46.9872 56.1875 46.283C56.1875 45.5951 55.6144 45.0547 54.9264 45.0547H24.4158C23.7279 45.0547 23.1875 45.5951 23.1875 46.283C23.1875 46.9872 23.7279 47.5276 24.4158 47.5276ZM24.4158 56.1093H54.9264C55.6144 56.1093 56.1875 55.5688 56.1875 54.8646C56.1875 54.1768 55.6144 53.6363 54.9264 53.6363H24.4158C23.7279 53.6363 23.1875 54.1768 23.1875 54.8646C23.1875 55.5688 23.7279 56.1093 24.4158 56.1093ZM24.4158 64.6909H54.9264C55.6144 64.6909 56.1875 64.1341 56.1875 63.4462C56.1875 62.7584 55.6144 62.2179 54.9264 62.2179H24.4158C23.7279 62.2179 23.1875 62.7584 23.1875 63.4462C23.1875 64.1341 23.7279 64.6909 24.4158 64.6909ZM24.4158 73.2561H41.9393C42.6272 73.2561 43.184 72.7157 43.184 72.0279C43.184 71.3401 42.6272 70.7831 41.9393 70.7831H24.4158C23.7279 70.7831 23.1875 71.3401 23.1875 72.0279C23.1875 72.7157 23.7279 73.2561 24.4158 73.2561Z" fill="white"/>
</svg>
