<svg width="79" height="100" viewBox="0 0 79 100" fill="none" xmlns="http://www.w3.org/2000/svg">
<path d="M0.375 4.16667V95.8333C0.375 98.1354 2.23958 100 4.54167 100H74.3333C76.6354 100 78.5 98.1354 78.5 95.8333V31.25L47.25 0H4.54167C2.23958 0 0.375 1.86458 0.375 4.16667Z" fill="#0066CC"/>
<path d="M78.5 31.25L47.25 0V27.0833C47.25 29.3854 49.1146 31.25 51.4167 31.25H78.5Z" fill="#00488F"/>
<path d="M27.2524 70.07H41.6889C44.3909 70.07 46.004 68.5106 46.004 65.8088V52.4879C46.004 49.7995 44.5253 48.2402 41.8235 48.2402H27.2524C24.6715 48.2402 22.9375 49.7995 22.9375 52.4879V65.8088C22.9375 68.5106 24.5505 70.07 27.2524 70.07ZM47.8321 63.1205L52.7248 67.3547C53.1818 67.758 53.7195 68.0134 54.2035 68.0134C55.252 68.0134 55.9375 67.2472 55.9375 66.1448V52.1653C55.9375 51.063 55.252 50.2968 54.2035 50.2968C53.7195 50.2968 53.1818 50.5523 52.7248 50.9555L47.8321 55.1763V63.1205Z" fill="white"/>
</svg>
