<svg width="79" height="101" viewBox="0 0 79 101" fill="none" xmlns="http://www.w3.org/2000/svg">
<path d="M0 4.66667V96.3333C0 98.6354 1.86458 100.5 4.16667 100.5H73.9583C76.2604 100.5 78.125 98.6354 78.125 96.3333V31.75L46.875 0.5H4.16667C1.86458 0.5 0 2.36458 0 4.66667Z" fill="url(#paint0_linear_9573_174058)"/>
<path d="M78.125 31.75L46.875 0.5V27.5833C46.875 29.8854 48.7396 31.75 51.0417 31.75H78.125Z" fill="#57B6FA"/>
<path d="M22.4922 56.2168H26.3897L29.4444 67.5581C30.4978 71.6662 31.2703 74.721 31.7619 76.7926C33.1312 71.2098 33.8686 68.1199 34.0442 67.4879L37.0638 56.2168H41.0666L44.0863 67.4879C44.2619 68.1199 44.9992 71.2098 46.3686 76.7926C46.8602 74.721 47.6326 71.6662 48.686 67.5581L51.7408 56.2168H55.6383L48.6158 81.2168H44.4023L41.2422 69.5244C40.6102 67.2421 39.9079 64.3629 39.0652 60.8516C38.2225 64.3629 37.5203 67.2421 36.8883 69.5244L33.7281 81.2168H29.5147L22.4922 56.2168Z" fill="white"/>
<defs>
<linearGradient id="paint0_linear_9573_174058" x1="39.0625" y1="0.5" x2="39.0625" y2="100.5" gradientUnits="userSpaceOnUse">
<stop stop-color="#3FA5EE"/>
<stop offset="1" stop-color="#113C92"/>
</linearGradient>
</defs>
</svg>
