<svg width="79" height="100" viewBox="0 0 79 100" fill="none" xmlns="http://www.w3.org/2000/svg">
<path d="M0.125 4.16667V95.8333C0.125 98.1354 1.98958 100 4.29167 100H74.0833C76.3854 100 78.25 98.1354 78.25 95.8333V31.25L47 0H4.29167C1.98958 0 0.125 1.86458 0.125 4.16667Z" fill="#0066CC"/>
<path d="M78.25 31.25L47 0V27.0833C47 29.3854 48.8646 31.25 51.1667 31.25H78.25Z" fill="#00488F"/>
<path d="M26.6875 71.0021C26.6875 74.1085 28.2184 75.6543 31.2951 75.6543H47.08C50.1566 75.6543 51.6875 74.1085 51.6875 71.0021V48.4545C51.6875 45.363 50.1566 43.7874 47.08 43.7874H31.2951C28.2184 43.7874 26.6875 45.363 26.6875 48.4545V71.0021ZM29.0805 70.9576V48.4991C29.0805 47.0128 29.8683 46.1804 31.414 46.1804H46.9609C48.5069 46.1804 49.2945 47.0128 49.2945 48.4991V70.9576C49.2945 72.4438 48.5069 73.2613 46.9609 73.2613H31.414C29.8683 73.2613 29.0805 72.4438 29.0805 70.9576ZM38.266 74.5545H40.1091V53.4486H38.266V74.5545ZM39.1875 54.0134C41.4467 54.0134 42.7844 52.7054 42.7844 50.5502C42.7844 50.1341 42.7398 49.7179 42.6507 49.3017L41.2535 43.2078C41.1198 42.6876 40.6738 42.3457 40.1239 42.3457H38.2511C37.7012 42.3457 37.2553 42.6876 37.1215 43.2078L35.7244 49.3017C35.6352 49.7179 35.5906 50.1341 35.5906 50.5502C35.5906 52.7054 36.9283 54.0134 39.1875 54.0134ZM39.1875 52.0366C38.266 52.0366 37.5674 51.3231 37.5674 50.4016C37.5674 49.4949 38.2809 48.7815 39.1875 48.7815C40.0942 48.7815 40.8076 49.4949 40.8076 50.4016C40.8076 51.3231 40.1239 52.0366 39.1875 52.0366ZM39.1875 57.4617H42.6953C43.2155 57.4617 43.6168 57.0604 43.6168 56.5401C43.6168 56.0348 43.2155 55.6335 42.6953 55.6335H39.1875V57.4617ZM35.6798 59.4831H39.1875V57.6549H35.6798C35.1596 57.6549 34.7583 58.0413 34.7583 58.5467C34.7583 59.0669 35.1596 59.4831 35.6798 59.4831ZM39.1875 61.4896H42.6953C43.2155 61.4896 43.6168 61.0883 43.6168 60.5681C43.6168 60.0627 43.2155 59.6614 42.6953 59.6614H39.1875V61.4896ZM35.6798 63.511H39.1875V61.6829H35.6798C35.1596 61.6829 34.7583 62.0693 34.7583 62.5746C34.7583 63.0948 35.1596 63.511 35.6798 63.511ZM39.1875 65.5176H42.6953C43.2155 65.5176 43.6168 65.1164 43.6168 64.596C43.6168 64.0907 43.2155 63.6895 42.6953 63.6895H39.1875V65.5176ZM35.6798 67.539H39.1875V65.7107H35.6798C35.1596 65.7107 34.7583 66.0973 34.7583 66.6026C34.7583 67.1227 35.1596 67.539 35.6798 67.539ZM39.1875 69.5456H42.6953C43.2155 69.5456 43.6168 69.1441 43.6168 68.624C43.6168 68.1187 43.2155 67.7173 42.6953 67.7173H39.1875V69.5456ZM35.6798 71.567H39.1875V69.7387H35.6798C35.1596 69.7387 34.7583 70.1401 34.7583 70.6454C34.7583 71.1655 35.1596 71.567 35.6798 71.567Z" fill="white"/>
</svg>
