<svg width="20" height="20" viewBox="0 0 20 20" fill="none" xmlns="http://www.w3.org/2000/svg">
<path d="M4.46203 9.99938H9.04354C9.38582 9.99938 9.65791 9.73605 9.65791 9.38494V3.46937C9.65791 3.12707 9.38582 2.86377 9.04354 2.86377C8.70127 2.86377 8.43794 3.12707 8.43794 3.46937V8.77933H4.46203C4.11096 8.77933 3.84766 9.04266 3.84766 9.38494C3.84766 9.73605 4.11096 9.99938 4.46203 9.99938Z" fill="#808080"/>
<path d="M12.4651 17.3155C11.4103 17.7589 10.2568 18.0047 9.05234 18.0047C4.16366 18.0047 0.0999756 13.9411 0.0999756 9.05234C0.0999756 4.15488 4.15488 0.0999756 9.04358 0.0999756C13.9411 0.0999756 18.0047 4.15488 18.0047 9.05234C18.0047 10.256 17.7589 11.4096 17.3153 12.4649C16.8839 12.234 16.4019 12.0885 15.8928 12.0516C16.2918 11.1353 16.5127 10.1213 16.5127 9.05234C16.5127 4.90969 13.1863 1.59204 9.04358 1.59204C4.90092 1.59204 1.60082 4.90969 1.60082 9.05234C1.60082 13.1951 4.90969 16.5127 9.05234 16.5127C10.1212 16.5127 11.1352 16.2918 12.0514 15.8929C12.088 16.4019 12.2338 16.884 12.4651 17.3155Z" fill="#808080"/>
<path fill-rule="evenodd" clip-rule="evenodd" d="M19.8999 15.6143C19.8999 17.9546 17.9588 19.8999 15.6143 19.8999C13.2741 19.8999 11.3287 17.9546 11.3287 15.6143C11.3287 13.2699 13.2699 11.3287 15.6101 11.3287C17.9546 11.3287 19.8999 13.2699 19.8999 15.6143ZM14.7752 17.4633C14.8845 17.6104 15.0021 17.6692 15.145 17.6692C15.2879 17.6692 15.4097 17.602 15.4979 17.4633L17.4727 14.3542C17.5231 14.2659 17.5777 14.1693 17.5777 14.0769C17.5777 13.8794 17.4054 13.7533 17.2206 13.7533C17.1113 13.7533 17.0021 13.8206 16.9223 13.9466L15.1282 16.8289L14.2753 15.7281C14.1702 15.5894 14.0778 15.5516 13.9559 15.5516C13.7669 15.5516 13.6198 15.7071 13.6198 15.8962C13.6198 15.9928 13.6576 16.0852 13.7207 16.1692L14.7752 17.4633Z" fill="#0066CC"/>
</svg>
