<svg width="22" height="20" viewBox="0 0 22 20" fill="none" xmlns="http://www.w3.org/2000/svg">
<path d="M13.3011 17.5509H3.49347C1.501 17.5509 0.5 16.5691 0.5 14.5956V2.95535C0.5 0.981937 1.501 0 3.49347 0H16.5161C18.5085 0 19.5 0.991471 19.5 2.95535V12.0681C19.0419 11.7569 18.5221 11.5316 17.9651 11.4162V5.69143C17.9651 4.81436 17.4885 4.35676 16.64 4.35676H3.35048C2.502 4.35676 2.03487 4.81436 2.03487 5.69143V14.6814C2.03487 15.568 2.502 16.016 3.35048 16.016H12.8479C12.9004 16.5623 13.0584 17.0809 13.3011 17.5509Z" fill="#808080"/>
<path d="M8.70823 7.77923H8.14576C7.8121 7.77923 7.6977 7.6839 7.6977 7.35023V6.78776C7.6977 6.4541 7.8121 6.34923 8.14576 6.34923H8.70823C9.0419 6.34923 9.14677 6.4541 9.14677 6.78776V7.35023C9.14677 7.6839 9.0419 7.77923 8.70823 7.77923Z" fill="#808080"/>
<path d="M11.8733 7.77923H11.3109C10.9772 7.77923 10.8628 7.6839 10.8628 7.35023V6.78776C10.8628 6.4541 10.9772 6.34923 11.3109 6.34923H11.8733C12.207 6.34923 12.3214 6.4541 12.3214 6.78776V7.35023C12.3214 7.6839 12.207 7.77923 11.8733 7.77923Z" fill="#808080"/>
<path d="M15.0384 7.77923H14.4759C14.1423 7.77923 14.0375 7.6839 14.0375 7.35023V6.78776C14.0375 6.4541 14.1423 6.34923 14.4759 6.34923H15.0384C15.3721 6.34923 15.4864 6.4541 15.4864 6.78776V7.35023C15.4864 7.6839 15.3721 7.77923 15.0384 7.77923Z" fill="#808080"/>
<path d="M5.53362 10.8966H4.98069C4.63748 10.8966 4.53262 10.8013 4.53262 10.4676V9.90517C4.53262 9.57151 4.63748 9.47617 4.98069 9.47617H5.53362C5.87682 9.47617 5.98169 9.57151 5.98169 9.90517V10.4676C5.98169 10.8013 5.87682 10.8966 5.53362 10.8966Z" fill="#808080"/>
<path d="M8.70823 10.8966H8.14576C7.8121 10.8966 7.6977 10.8013 7.6977 10.4676V9.90517C7.6977 9.57151 7.8121 9.47617 8.14576 9.47617H8.70823C9.0419 9.47617 9.14677 9.57151 9.14677 9.90517V10.4676C9.14677 10.8013 9.0419 10.8966 8.70823 10.8966Z" fill="#808080"/>
<path d="M11.8733 10.8966H11.3109C10.9772 10.8966 10.8628 10.8013 10.8628 10.4676V9.90517C10.8628 9.57151 10.9772 9.47617 11.3109 9.47617H11.8733C12.207 9.47617 12.3214 9.57151 12.3214 9.90517V10.4676C12.3214 10.8013 12.207 10.8966 11.8733 10.8966Z" fill="#808080"/>
<path d="M15.0384 10.8966H14.4759C14.1423 10.8966 14.0375 10.8013 14.0375 10.4676V9.90517C14.0375 9.57151 14.1423 9.47617 14.4759 9.47617H15.0384C15.3721 9.47617 15.4864 9.57151 15.4864 9.90517V10.4676C15.4864 10.8013 15.3721 10.8966 15.0384 10.8966Z" fill="#808080"/>
<path d="M5.53362 14.0236H4.98069C4.63748 14.0236 4.53262 13.9188 4.53262 13.585V13.0226C4.53262 12.689 4.63748 12.5935 4.98069 12.5935H5.53362C5.87682 12.5935 5.98169 12.689 5.98169 13.0226V13.585C5.98169 13.9188 5.87682 14.0236 5.53362 14.0236Z" fill="#808080"/>
<path d="M8.70823 14.0236H8.14576C7.8121 14.0236 7.6977 13.9188 7.6977 13.585V13.0226C7.6977 12.689 7.8121 12.5935 8.14576 12.5935H8.70823C9.0419 12.5935 9.14677 12.689 9.14677 13.0226V13.585C9.14677 13.9188 9.0419 14.0236 8.70823 14.0236Z" fill="#808080"/>
<path d="M11.8733 14.0236H11.3109C10.9772 14.0236 10.8628 13.9188 10.8628 13.585V13.0226C10.8628 12.689 10.9772 12.5935 11.3109 12.5935H11.8733C12.207 12.5935 12.3214 12.689 12.3214 13.0226V13.585C12.3214 13.9188 12.207 14.0236 11.8733 14.0236Z" fill="#808080"/>
<path fill-rule="evenodd" clip-rule="evenodd" d="M21.3999 15.6143C21.3999 17.9546 19.4588 19.8999 17.1143 19.8999C14.7741 19.8999 12.8287 17.9546 12.8287 15.6143C12.8287 13.2699 14.7699 11.3287 17.1101 11.3287C19.4546 11.3287 21.3999 13.2699 21.3999 15.6143ZM16.2752 17.4633C16.3845 17.6104 16.5021 17.6692 16.645 17.6692C16.7879 17.6692 16.9097 17.602 16.9979 17.4633L18.9727 14.3542C19.0231 14.2659 19.0777 14.1693 19.0777 14.0769C19.0777 13.8794 18.9054 13.7533 18.7206 13.7533C18.6113 13.7533 18.5021 13.8206 18.4223 13.9466L16.6282 16.8289L15.7753 15.7281C15.6702 15.5894 15.5778 15.5516 15.4559 15.5516C15.2669 15.5516 15.1198 15.7071 15.1198 15.8962C15.1198 15.9928 15.1576 16.0852 15.2207 16.1692L16.2752 17.4633Z" fill="#0066CC"/>
</svg>
