<svg width="154" height="64" viewBox="0 0 154 64" fill="none" xmlns="http://www.w3.org/2000/svg">
<path d="M0 14.9334V61.8667C0 63.0454 0.954667 64.0001 2.13333 64.0001H37.8667C39.0453 64.0001 40 63.0454 40 61.8667V28.8001L24 12.8H2.13333C0.954667 12.8 0 13.7547 0 14.9334Z" fill="url(#paint0_linear_2053_14513)"/>
<path d="M40 28.8001L24 12.8V26.6667C24 27.8454 24.9547 28.8001 26.1333 28.8001H40Z" fill="#35C481"/>
<path d="M24.5122 54.127H15.4336V41.327H24.5662V43.0529H17.3572V46.6664H23.883V48.3562H17.3572V52.4012H24.5122V54.127Z" fill="white"/>
<path d="M52 2.66667V61.3333C52 62.8067 53.1933 64 54.6667 64H99.3333C100.807 64 102 62.8067 102 61.3333V20L82 0H54.6667C53.1933 0 52 1.19333 52 2.66667Z" fill="#0066CC"/>
<path d="M102 20L82 0V17.3333C82 18.8067 83.1933 20 84.6667 20H102Z" fill="#00488F"/>
<path d="M69 45.4414C69 47.4295 69.9798 48.4188 71.9489 48.4188H82.0512C84.0202 48.4188 85 47.4295 85 45.4414V31.0109C85 29.0323 84.0202 28.024 82.0512 28.024H71.9489C69.9798 28.024 69 29.0323 69 31.0109V45.4414ZM70.5315 45.4129V31.0394C70.5315 30.0882 71.0357 29.5555 72.025 29.5555H81.975C82.9644 29.5555 83.4685 30.0882 83.4685 31.0394V45.4129C83.4685 46.3641 82.9644 46.8873 81.975 46.8873H72.025C71.0357 46.8873 70.5315 46.3641 70.5315 45.4129ZM76.4102 47.7149H77.5898V34.2071H76.4102V47.7149ZM77 34.5686C78.4459 34.5686 79.302 33.7315 79.302 32.3522C79.302 32.0858 79.2735 31.8195 79.2164 31.5531L78.3223 27.653C78.2366 27.32 77.9513 27.1013 77.5993 27.1013H76.4007C76.0488 27.1013 75.7634 27.32 75.6778 27.653L74.7836 31.5531C74.7265 31.8195 74.698 32.0858 74.698 32.3522C74.698 33.7315 75.5541 34.5686 77 34.5686ZM77 33.3034C76.4102 33.3034 75.9632 32.8468 75.9632 32.257C75.9632 31.6768 76.4198 31.2202 77 31.2202C77.5803 31.2202 78.0369 31.6768 78.0369 32.257C78.0369 32.8468 77.5993 33.3034 77 33.3034ZM77 36.7755H79.245C79.5779 36.7755 79.8347 36.5186 79.8347 36.1857C79.8347 35.8623 79.5779 35.6054 79.245 35.6054H77V36.7755ZM74.7551 38.0692H77V36.8991H74.7551C74.4221 36.8991 74.1653 37.1465 74.1653 37.4699C74.1653 37.8028 74.4221 38.0692 74.7551 38.0692ZM77 39.3534H79.245C79.5779 39.3534 79.8347 39.0965 79.8347 38.7636C79.8347 38.4402 79.5779 38.1833 79.245 38.1833H77V39.3534ZM74.7551 40.6471H77V39.4771H74.7551C74.4221 39.4771 74.1653 39.7244 74.1653 40.0478C74.1653 40.3807 74.4221 40.6471 74.7551 40.6471ZM77 41.9313H79.245C79.5779 41.9313 79.8347 41.6745 79.8347 41.3415C79.8347 41.0181 79.5779 40.7613 79.245 40.7613H77V41.9313ZM74.7551 43.225H77V42.0549H74.7551C74.4221 42.0549 74.1653 42.3023 74.1653 42.6257C74.1653 42.9586 74.4221 43.225 74.7551 43.225ZM77 44.5092H79.245C79.5779 44.5092 79.8347 44.2523 79.8347 43.9194C79.8347 43.596 79.5779 43.3391 79.245 43.3391H77V44.5092ZM74.7551 45.8029H77V44.6328H74.7551C74.4221 44.6328 74.1653 44.8897 74.1653 45.2131C74.1653 45.546 74.4221 45.8029 74.7551 45.8029Z" fill="white"/>
<path d="M114 14.9334V61.8667C114 63.0454 114.955 64.0001 116.133 64.0001H151.867C153.045 64.0001 154 63.0454 154 61.8667V28.8001L138 12.8H116.133C114.955 12.8 114 13.7547 114 14.9334Z" fill="url(#paint1_linear_2053_14513)"/>
<path d="M154 28.8001L138 12.8V26.6667C138 27.8454 138.955 28.8001 140.133 28.8001H154Z" fill="#FD8F69"/>
<path d="M129.084 54.127V41.327H134.531C137.318 41.327 138.918 42.8731 138.918 45.372C138.918 47.8349 137.318 49.3989 134.531 49.3989H131.008V54.127H129.084ZM134.495 43.0169H131.008V47.7091H134.495C136.095 47.7091 136.958 46.8821 136.958 45.372C136.958 43.8619 136.095 43.0169 134.495 43.0169Z" fill="white"/>
<defs>
<linearGradient id="paint0_linear_2053_14513" x1="20" y1="12.8" x2="20" y2="64.0001" gradientUnits="userSpaceOnUse">
<stop stop-color="#1FA163"/>
<stop offset="1" stop-color="#175B36"/>
</linearGradient>
<linearGradient id="paint1_linear_2053_14513" x1="134" y1="12.8" x2="134" y2="64.0001" gradientUnits="userSpaceOnUse">
<stop stop-color="#EE6B47"/>
<stop offset="1" stop-color="#CA401D"/>
</linearGradient>
</defs>
</svg>
