<svg width="24" height="25" viewBox="0 0 24 25" fill="none" xmlns="http://www.w3.org/2000/svg">
<path d="M3.33841 6.16121C3.50657 6.09272 3.69134 6.05469 3.88636 6.05469H5.23864C5.50223 6.05469 5.71591 5.84482 5.71591 5.58594C5.71591 5.32705 5.50223 5.11719 5.23864 5.11719H3.88636C3.56367 5.11719 3.2548 5.18035 2.97277 5.29522C2.72928 5.39438 2.61375 5.66863 2.71472 5.90777C2.81569 6.14691 3.09492 6.26038 3.33841 6.16121Z" fill="#4D4D4D"/>
<path d="M7.94318 5.11719C7.67959 5.11719 7.46591 5.32705 7.46591 5.58594C7.46591 5.84482 7.67959 6.05469 7.94318 6.05469H10.6477C10.9113 6.05469 11.125 5.84482 11.125 5.58594C11.125 5.32705 10.9113 5.11719 10.6477 5.11719H7.94318Z" fill="#4D4D4D"/>
<path d="M13.3523 5.11719C13.0887 5.11719 12.875 5.32705 12.875 5.58594C12.875 5.84482 13.0887 6.05469 13.3523 6.05469H16.0568C16.3204 6.05469 16.5341 5.84482 16.5341 5.58594C16.5341 5.32705 16.3204 5.11719 16.0568 5.11719H13.3523Z" fill="#4D4D4D"/>
<path d="M18.7614 5.11719C18.4978 5.11719 18.2841 5.32705 18.2841 5.58594C18.2841 5.84482 18.4978 6.05469 18.7614 6.05469H20.1136C20.3087 6.05469 20.4934 6.09272 20.6616 6.16121C20.9051 6.26038 21.1843 6.14691 21.2853 5.90777C21.3863 5.66863 21.2707 5.39438 21.0272 5.29522C20.7452 5.18035 20.4363 5.11719 20.1136 5.11719H18.7614Z" fill="#4D4D4D"/>
<path d="M2.563 6.92277C2.66397 6.68363 2.54844 6.40938 2.30496 6.31021C2.06147 6.21105 1.78224 6.32452 1.68127 6.56365C1.56431 6.84065 1.5 7.14401 1.5 7.46094V8.75C1.5 9.00888 1.71368 9.21875 1.97727 9.21875C2.24086 9.21875 2.45455 9.00888 2.45455 8.75V7.46094C2.45455 7.2694 2.49327 7.08792 2.563 6.92277Z" fill="#4D4D4D"/>
<path d="M22.3187 6.56365C22.2178 6.32452 21.9385 6.21105 21.695 6.31021C21.4516 6.40938 21.336 6.68363 21.437 6.92277C21.5067 7.08792 21.5455 7.2694 21.5455 7.46094V8.75C21.5455 9.00888 21.7591 9.21875 22.0227 9.21875C22.2863 9.21875 22.5 9.00888 22.5 8.75V7.46094C22.5 7.14401 22.4357 6.84065 22.3187 6.56365Z" fill="#4D4D4D"/>
<path d="M2.45455 11.3281C2.45455 11.0692 2.24086 10.8594 1.97727 10.8594C1.71368 10.8594 1.5 11.0692 1.5 11.3281V13.9062C1.5 14.1651 1.71368 14.375 1.97727 14.375C2.24086 14.375 2.45455 14.1651 2.45455 13.9062V11.3281Z" fill="#4D4D4D"/>
<path d="M22.5 11.3281C22.5 11.0692 22.2863 10.8594 22.0227 10.8594C21.7591 10.8594 21.5455 11.0692 21.5455 11.3281V13.9062C21.5455 14.1651 21.7591 14.375 22.0227 14.375C22.2863 14.375 22.5 14.1651 22.5 13.9062V11.3281Z" fill="#4D4D4D"/>
<path d="M2.45455 16.4844C2.45455 16.2255 2.24086 16.0156 1.97727 16.0156C1.71368 16.0156 1.5 16.2255 1.5 16.4844V17.7734C1.5 18.0904 1.56431 18.3937 1.68127 18.6707C1.78224 18.9099 2.06147 19.0233 2.30496 18.9242C2.54844 18.825 2.66397 18.5507 2.563 18.3116C2.49327 18.1465 2.45455 17.965 2.45455 17.7734V16.4844Z" fill="#4D4D4D"/>
<path d="M22.5 16.4844C22.5 16.2255 22.2863 16.0156 22.0227 16.0156C21.7591 16.0156 21.5455 16.2255 21.5455 16.4844V17.7734C21.5455 17.965 21.5067 18.1465 21.437 18.3116C21.336 18.5507 21.4516 18.825 21.695 18.9242C21.9385 19.0233 22.2178 18.9099 22.3187 18.6707C22.4357 18.3937 22.5 18.0904 22.5 17.7734V16.4844Z" fill="#4D4D4D"/>
<path d="M3.33841 19.0732C3.09492 18.974 2.81569 19.0875 2.71472 19.3266C2.61375 19.5657 2.72928 19.84 2.97277 19.9392C3.2548 20.054 3.56367 20.1172 3.88636 20.1172H5.23864C5.50223 20.1172 5.71591 19.9073 5.71591 19.6484C5.71591 19.3896 5.50223 19.1797 5.23864 19.1797H3.88636C3.69134 19.1797 3.50657 19.1417 3.33841 19.0732Z" fill="#4D4D4D"/>
<path d="M21.0272 19.9392C21.2707 19.84 21.3863 19.5657 21.2853 19.3266C21.1843 19.0875 20.9051 18.974 20.6616 19.0732C20.4934 19.1417 20.3087 19.1797 20.1136 19.1797H18.7614C18.4978 19.1797 18.2841 19.3896 18.2841 19.6484C18.2841 19.9073 18.4978 20.1172 18.7614 20.1172H20.1136C20.4363 20.1172 20.7452 20.054 21.0272 19.9392Z" fill="#4D4D4D"/>
<path d="M7.94318 19.1797C7.67959 19.1797 7.46591 19.3896 7.46591 19.6484C7.46591 19.9073 7.67959 20.1172 7.94318 20.1172H10.6477C10.9113 20.1172 11.125 19.9073 11.125 19.6484C11.125 19.3896 10.9113 19.1797 10.6477 19.1797H7.94318Z" fill="#4D4D4D"/>
<path d="M13.3523 19.1797C13.0887 19.1797 12.875 19.3896 12.875 19.6484C12.875 19.9073 13.0887 20.1172 13.3523 20.1172H16.0568C16.3204 20.1172 16.5341 19.9073 16.5341 19.6484C16.5341 19.3896 16.3204 19.1797 16.0568 19.1797H13.3523Z" fill="#4D4D4D"/>
<path d="M11.3384 9.75133C11.3384 9.39926 11.6329 9.10156 12 9.10156C12.3624 9.10156 12.6656 9.39468 12.6656 9.75133V11.9635H14.918C15.2811 11.9635 15.5795 12.2612 15.5795 12.6172C15.5795 12.9777 15.2765 13.2669 14.918 13.2669H12.6656V15.4831C12.6656 15.8397 12.3624 16.1328 12 16.1328C11.6329 16.1328 11.3384 15.8352 11.3384 15.4831V13.2669H9.08203C8.72358 13.2669 8.42045 12.9778 8.42045 12.6172C8.42045 12.2612 8.71891 11.9635 9.08203 11.9635H11.3384V9.75133Z" fill="#4D4D4D"/>
</svg>
