<svg width="20" height="20" viewBox="0 0 20 20" fill="none" xmlns="http://www.w3.org/2000/svg">
<g id="Icons / Logo / OneDrive">
<path id="path4256 2" fill-rule="evenodd" clip-rule="evenodd" d="M1.43351 13.0753C1.74069 13.6997 2.39578 14.2458 3.01402 14.3927C3.23768 14.4458 4.85541 14.4628 4.90569 14.4125C4.92535 14.3928 4.89086 14.2776 4.82904 14.1564C4.66504 13.835 4.5469 13.2737 4.54673 12.815C4.5462 11.5547 5.30523 10.5698 6.60567 10.1433C7.0257 10.0056 7.12405 9.94488 7.12405 9.82341C7.12405 9.6522 7.43427 8.9626 7.67759 8.59294C8.01888 8.07444 8.47071 7.67657 9.03298 7.39943C10.4404 6.70574 12.096 6.925 13.1105 7.93946L13.4703 8.29925L13.8646 8.19647C14.0814 8.13995 14.3298 8.09222 14.4165 8.0904C14.6151 8.08624 14.6235 7.94497 14.4551 7.44057C13.9281 5.8619 12.5028 4.8275 10.8491 4.82344C10.2574 4.82199 9.76258 4.93207 9.28683 5.17102C8.84602 5.39242 8.30749 5.82704 8.04098 6.17651C7.73055 6.58356 7.64534 6.70154 7.55271 6.70769C7.51086 6.71047 7.4675 6.69042 7.40117 6.66389C6.72915 6.39505 5.95293 6.3481 5.33508 6.53894C4.19146 6.89217 3.37243 7.99204 3.3235 9.24032C3.31562 9.44131 3.29115 9.63482 3.26912 9.67034C3.24709 9.70586 3.10768 9.76549 2.95931 9.80285C2.25631 9.97987 1.69602 10.4307 1.40359 11.0546C1.26487 11.3506 1.25 11.4462 1.25 12.0423C1.25 12.6689 1.25926 12.721 1.43351 13.0753ZM5.27253 12.7577C5.2744 14.0068 5.86439 14.8485 6.9234 15.1132C7.14359 15.1682 8.41748 15.1824 12.4249 15.1747L17.6399 15.1646L17.8746 15.0391C18.3738 14.772 18.6889 14.2339 18.7408 13.56C18.8202 12.5295 18.3822 11.8285 17.4505 11.4947L17.1242 11.3778L17.0878 10.9316C16.9546 9.30043 15.3029 8.32439 13.6461 8.89777L13.3038 9.01623L12.9217 8.61493C12.2269 7.88524 11.7301 7.66924 10.7344 7.66389C10.0332 7.66013 9.74063 7.72561 9.16104 8.01599C8.60725 8.29343 8.08899 8.97166 7.80908 9.78524C7.74747 9.96433 7.69705 10.1664 7.69705 10.2342C7.69705 10.4504 7.56656 10.5438 7.14298 10.6308C6.29174 10.8056 5.64484 11.2806 5.40051 11.9102C5.30083 12.1671 5.27193 12.3584 5.27253 12.7577Z" fill="#094AB1"/>
</g>
</svg>
