<svg width="111" height="28" viewBox="0 0 111 28" fill="none" xmlns="http://www.w3.org/2000/svg">
<g clip-path="url(#clip0_746_6899)">
<path d="M39.6767 7.0033C42.7257 7.0033 45.1489 8.60101 46.0942 11.4236H42.952C42.3129 10.0922 41.1546 9.46644 39.6634 9.46644C37.2535 9.46644 35.5759 11.2106 35.5759 13.98C35.5759 16.7494 37.2535 18.4935 39.6634 18.4935C41.1546 18.4935 42.2996 17.8545 42.952 16.523H46.0942C45.1489 19.3457 42.7257 20.9434 39.6767 20.9434C35.749 20.9434 32.7532 18.0675 32.7532 13.98C32.7532 9.8925 35.749 7.0033 39.6767 7.0033Z" fill="black"/>
<path d="M57.3581 20.8369H54.7219V19.5321C54.0695 20.4109 52.9244 20.9701 51.6329 20.9701C49.2231 20.9701 47.4789 19.399 47.4789 16.563V10.4917H50.1018V16.1902C50.1018 17.8545 50.9939 18.7466 52.4052 18.7466C53.8165 18.7466 54.7219 17.8545 54.7219 16.1902V10.4917H57.3581V20.8502V20.8369Z" fill="black"/>
<path d="M61.8317 11.9962C62.4841 11.0375 63.6824 10.3186 65.2535 10.3186C67.903 10.3186 69.9801 12.3956 69.9801 15.631C69.9801 18.8663 67.903 21.01 65.2535 21.01C63.6025 21.01 62.4841 20.2644 61.8317 19.359V20.8369H59.2088V7.0033H61.8317V11.9962ZM64.5612 12.6086C63.1632 12.6086 61.8317 13.6871 61.8317 15.6576C61.8317 17.6281 63.1632 18.7066 64.5612 18.7066C65.9592 18.7066 67.3039 17.5882 67.3039 15.6177C67.3039 13.6471 65.9725 12.6086 64.5612 12.6086Z" fill="black"/>
<path d="M75.8916 10.3053C77.5559 10.3053 78.7009 11.0775 79.3134 11.9563V10.4784H81.9496V20.8369H79.3134V19.3191C78.7009 20.2111 77.516 20.9967 75.8783 20.9967C73.2554 20.9967 71.165 18.8531 71.165 15.6177C71.165 12.3823 73.2554 10.3053 75.8916 10.3053ZM76.5706 12.6087C75.1726 12.6087 73.8412 13.6605 73.8412 15.6177C73.8412 17.5749 75.1726 18.7066 76.5706 18.7066C77.9686 18.7066 79.3134 17.6282 79.3134 15.6577C79.3134 13.6871 78.0086 12.6087 76.5706 12.6087Z" fill="black"/>
<path d="M86.4365 11.9962C87.0889 11.0375 88.2872 10.3186 89.8583 10.3186C92.5078 10.3186 94.5849 12.3956 94.5849 15.631C94.5849 18.8663 92.5078 21.01 89.8583 21.01C88.2073 21.01 87.0889 20.2644 86.4365 19.359V20.8369H83.8136V7.0033H86.4365V11.9962ZM89.166 12.6086C87.7679 12.6086 86.4365 13.6871 86.4365 15.6576C86.4365 17.6281 87.7679 18.7066 89.166 18.7066C90.564 18.7066 91.9087 17.5882 91.9087 15.6177C91.9087 13.6471 90.5773 12.6086 89.166 12.6086Z" fill="black"/>
<path d="M95.7566 7.0033H98.3795V20.8369H95.7566V7.0033Z" fill="black"/>
<path d="M109.577 17.5749C109.018 19.4789 107.3 20.9967 104.73 20.9967C101.735 20.9967 99.5378 18.9063 99.5378 15.6576C99.5378 12.409 101.668 10.3186 104.73 10.3186C107.793 10.3186 109.83 12.3557 109.83 15.4446C109.83 15.8041 109.816 16.097 109.75 16.4565H102.174C102.307 18.0143 103.332 18.8531 104.664 18.8531C105.782 18.8531 106.381 18.2939 106.741 17.6015H109.564L109.577 17.5749ZM102.214 14.6724H107.127C107.074 13.3276 106.009 12.4489 104.664 12.4489C103.399 12.4489 102.427 13.2478 102.214 14.6724Z" fill="black"/>
<path d="M11.903 26.9083V15.2183C11.903 14.8322 11.7033 14.4594 11.3571 14.273C8.92059 12.8484 4.04755 9.99912 1.61103 8.57449C0.905373 8.14843 0 8.66769 0 9.50649C0 12.3691 0 18.1075 0 20.9701C0 21.3562 0.199715 21.7157 0.519258 21.9154C2.95578 23.3933 7.82881 26.3624 10.252 27.8403C10.971 28.2797 11.8897 27.7471 11.8897 26.895L11.903 26.9083Z" fill="url(#paint0_linear_746_6899)"/>
<path d="M23.34 7.12321C23.34 7.12321 20.8902 8.56116 18.3072 10.0657L17.5882 10.4651L14.233 12.2759C13.301 12.7818 12.1826 12.7818 11.2506 12.2759L7.58917 10.2787L7.21637 10.0657C5.379 8.9739 3.46174 7.84219 2.13031 7.09659C1.41133 6.69716 1.41133 5.59207 2.15694 5.19264C3.67477 4.38047 5.60534 3.31532 7.46935 2.31675L11.1574 0.386172C12.156 -0.119772 13.3276 -0.119772 14.2863 0.386172L17.5483 2.07709L17.9877 2.33006C20.6505 3.79464 23.3001 5.23258 23.3001 5.23258C24.0457 5.63201 24.0723 6.69716 23.3267 7.13653L23.34 7.12321Z" fill="url(#paint1_linear_746_6899)"/>
<path d="M25.5768 16.9225C25.5768 16.9225 25.4703 16.856 25.3904 16.856C25.2572 16.8693 25.1374 16.9359 25.0309 17.0424C24.8844 17.1755 24.7513 17.3619 24.6181 17.5883C24.3519 18.0676 23.9791 18.467 23.4997 18.7865C23.1136 19.0661 22.7275 19.1993 22.3414 19.186C21.9686 19.186 21.689 19.0528 21.4893 18.7999C21.2763 18.5336 21.1564 18.1608 21.1165 17.6681C21.0765 16.9225 21.3295 16.0971 21.8754 15.1917C22.2349 14.5792 22.7808 14.0466 23.4997 13.6206C23.6995 13.5141 23.8992 13.4475 24.0723 13.4209C24.232 13.3942 24.3652 13.4209 24.4983 13.4741C24.6714 13.5673 24.8179 13.6073 24.9377 13.6073C25.0975 13.6073 25.2572 13.5008 25.4303 13.301C25.5502 13.1413 25.63 12.8617 25.6567 12.4622V9.50647C25.6567 8.66767 24.7513 8.13509 24.0323 8.56115C24.0323 8.56115 16.7228 12.835 14.2862 14.2597C13.9534 14.4594 13.7404 14.8189 13.7404 15.205V26.895C13.7404 27.7471 14.659 28.2663 15.378 27.8403C17.8145 26.3624 25.1108 21.9154 25.1108 21.9154C25.4303 21.7157 25.63 21.3562 25.63 20.9701V17.2687C25.63 17.0823 25.5901 16.9625 25.5502 16.9225H25.5768Z" fill="url(#paint2_linear_746_6899)"/>
</g>
<defs>
<linearGradient id="paint0_linear_746_6899" x1="0" y1="18.2007" x2="11.903" y2="18.2007" gradientUnits="userSpaceOnUse">
<stop stop-color="#00B88D"/>
<stop offset="1" stop-color="#00FFBE"/>
</linearGradient>
<linearGradient id="paint1_linear_746_6899" x1="12.7551" y1="12.6487" x2="12.7551" y2="5.67967e-05" gradientUnits="userSpaceOnUse">
<stop stop-color="#FF9FB4"/>
<stop offset="1" stop-color="#FF001F"/>
</linearGradient>
<linearGradient id="paint2_linear_746_6899" x1="26.3224" y1="21.4627" x2="13.5007" y2="15.1517" gradientUnits="userSpaceOnUse">
<stop stop-color="#440DE6"/>
<stop offset="0.13" stop-color="#4815E7"/>
<stop offset="0.35" stop-color="#552DEB"/>
<stop offset="0.62" stop-color="#6B53F3"/>
<stop offset="0.94" stop-color="#8888FC"/>
<stop offset="1" stop-color="#8F94FF"/>
</linearGradient>
<clipPath id="clip0_746_6899">
<rect width="109.83" height="28" fill="white"/>
</clipPath>
</defs>
</svg>
