<svg width="81" height="60" viewBox="0 0 81 60" fill="none" xmlns="http://www.w3.org/2000/svg">
<g clip-path="url(#clip0_14381_20768)">
<path d="M7.26192 45.3661C10.4624 45.3661 13.006 47.0419 13.9903 49.9866H10.6872C10.0107 48.5969 8.80051 47.9422 7.2412 47.9422C4.71833 47.9422 2.95388 49.7615 2.95388 52.664C2.95388 55.5664 4.71833 57.3857 7.2412 57.3857C8.80051 57.3857 10.0107 56.7115 10.6872 55.3207H13.9903C13.006 58.2644 10.4624 59.9412 7.26192 59.9412C3.1383 59.9412 0 56.9366 0 52.664C0 48.3914 3.1383 45.3661 7.26192 45.3661Z" fill="black"/>
<path d="M25.8099 59.8245H23.0456V58.4564C22.3597 59.3743 21.1631 59.9608 19.811 59.9608C17.2819 59.9608 15.4584 58.3191 15.4584 55.3495V48.9995H18.203V54.9582C18.203 56.697 19.1437 57.6345 20.615 57.6345C22.0862 57.6345 23.0456 56.697 23.0456 54.9582V48.9995H25.8099V59.8235V59.8245Z" fill="black"/>
<path d="M30.5127 50.5824C31.1986 49.586 32.4533 48.824 34.1007 48.824C36.8846 48.824 39.0604 50.9923 39.0604 54.3728C39.0604 57.7533 36.8846 60.0001 34.1007 60.0001C32.3756 60.0001 31.1986 59.2184 30.5127 58.2809V59.8245H27.7681V45.3661H30.5127V50.5824ZM33.3754 51.2267C31.9052 51.2267 30.5127 52.3604 30.5127 54.411C30.5127 56.4616 31.9052 57.5953 33.3754 57.5953C34.8456 57.5953 36.2578 56.4234 36.2578 54.3718C36.2578 52.3201 34.8653 51.2257 33.3754 51.2257V51.2267Z" fill="black"/>
<path d="M45.2593 48.824C47.0041 48.824 48.1997 49.6253 48.8473 50.5432V48.9996H51.6115V59.8235H48.8473V58.2407C48.2007 59.1782 46.9647 59.999 45.2396 59.999C42.495 59.999 40.2985 57.7523 40.2985 54.3718C40.2985 50.9913 42.494 48.823 45.2583 48.823L45.2593 48.824ZM45.9649 51.2277C44.4947 51.2277 43.1022 52.3222 43.1022 54.3738C43.1022 56.4255 44.4947 57.5974 45.9649 57.5974C47.4351 57.5974 48.8473 56.4637 48.8473 54.4131C48.8473 52.3625 47.4745 51.2288 45.9649 51.2288V51.2277Z" fill="black"/>
<path d="M56.3144 50.5824C57.0002 49.586 58.2549 48.824 59.9023 48.824C62.6863 48.824 64.8621 50.9923 64.8621 54.3728C64.8621 57.7533 62.6863 60.0001 59.9023 60.0001C58.1772 60.0001 57.0002 59.2184 56.3144 58.2809V59.8245H53.5698V45.3661H56.3144V50.5824ZM59.1771 51.2267C57.7069 51.2267 56.3144 52.3604 56.3144 54.411C56.3144 56.4616 57.7069 57.5953 59.1771 57.5953C60.6473 57.5953 62.0594 56.4234 62.0594 54.3718C62.0594 52.3201 60.6669 51.2257 59.1771 51.2257V51.2267Z" fill="black"/>
<path d="M66.0867 45.3661H68.8313V59.8245H66.0867V45.3661Z" fill="black"/>
<path d="M80.5826 56.4244C79.9941 58.4172 78.1903 60 75.5047 60C72.3675 60 70.0539 57.8121 70.0539 54.412C70.0539 51.0119 72.2887 48.824 75.5047 48.824C78.7207 48.824 80.8572 50.9541 80.8572 54.1776C80.8572 54.5493 80.8375 54.8611 80.7784 55.2329H72.8379C72.9746 56.855 74.0532 57.7336 75.4457 57.7336C76.6216 57.7336 77.2495 57.1472 77.6215 56.4244H80.5816H80.5826ZM72.8575 53.396H78.0141C77.9551 51.9897 76.8382 51.0707 75.426 51.0707C74.0926 51.0707 73.073 51.9112 72.8575 53.396Z" fill="black"/>
<path d="M39.2542 33.746V19.0842C39.2542 18.5937 38.9952 18.1394 38.5745 17.8947C35.5098 16.1064 29.3803 12.5297 26.3145 10.7414C25.408 10.2127 24.2755 10.8735 24.2755 11.9308C24.2755 15.5261 24.2776 22.7155 24.2776 26.3098C24.2776 26.792 24.5283 27.239 24.9376 27.4879C28.0023 29.3464 34.1308 33.0645 37.1955 34.9231C38.101 35.4724 39.2542 34.8136 39.2542 33.745V33.746Z" fill="url(#paint0_linear_14381_20768)"/>
<path d="M53.6558 8.93233C53.6558 8.93233 50.5693 10.7341 47.3274 12.6153L46.4291 13.1244L42.2102 15.397C41.0384 16.0237 39.6324 16.0237 38.4606 15.397L33.851 12.89L33.3827 12.6153C31.0785 11.2442 28.6561 9.83372 26.9766 8.89412C26.0783 8.38509 26.0783 7.0139 27.016 6.50383C28.9296 5.48473 31.352 4.1538 33.6956 2.89929L38.3435 0.470789C39.593 -0.155953 41.0777 -0.155953 42.2889 0.470789L46.3908 2.58643L46.9378 2.90032C50.2968 4.74131 53.6175 6.5441 53.6175 6.5441C54.5551 7.05313 54.5945 8.38509 53.6569 8.93336L53.6558 8.93233Z" fill="url(#paint1_linear_14381_20768)"/>
<path d="M56.4729 21.2307C56.4159 21.1708 56.3372 21.1419 56.2377 21.144C56.0761 21.1605 55.9238 21.2369 55.7787 21.3732C55.5995 21.5415 55.4296 21.7697 55.2669 22.0567C54.9271 22.6597 54.4577 23.1636 53.8578 23.5673C53.3667 23.9132 52.8819 24.0815 52.4011 24.0733C51.9349 24.0598 51.5774 23.8988 51.3288 23.5921C51.0604 23.2565 50.905 22.7836 50.8615 22.1724C50.8118 21.2369 51.1288 20.2003 51.8116 19.0624C52.2685 18.2891 52.9502 17.6334 53.8568 17.0965C54.1127 16.9633 54.3552 16.8786 54.5831 16.8435C54.7893 16.8156 54.9602 16.8353 55.1271 16.9106C55.3508 17.0252 55.5342 17.081 55.6762 17.0789C55.873 17.0789 56.0782 16.9519 56.2926 16.6979C56.4512 16.5049 56.5465 16.1517 56.5807 15.6386V11.9308C56.5807 10.8735 55.4482 10.2116 54.5417 10.7413C54.5417 10.7413 45.3464 16.1063 42.2817 17.8946C41.861 18.1404 41.602 18.5937 41.602 19.0841V33.7459C41.602 34.8136 42.7552 35.4734 43.6607 34.9241C46.7254 33.0655 55.9186 27.4888 55.9186 27.4888C56.3279 27.241 56.5786 26.794 56.5786 26.3107V21.6654C56.5631 21.4352 56.5278 21.2885 56.4719 21.2297L56.4729 21.2307Z" fill="url(#paint2_linear_14381_20768)"/>
</g>
<defs>
<linearGradient id="paint0_linear_14381_20768" x1="24.2755" y1="22.8384" x2="39.2542" y2="22.8384" gradientUnits="userSpaceOnUse">
<stop stop-color="#00B88D"/>
<stop offset="1" stop-color="#00FFBE"/>
</linearGradient>
<linearGradient id="paint1_linear_14381_20768" x1="40.3235" y1="15.8668" x2="40.3235" y2="-4.21353e-05" gradientUnits="userSpaceOnUse">
<stop stop-color="#FF9FB4"/>
<stop offset="1" stop-color="#FF001F"/>
</linearGradient>
<linearGradient id="paint2_linear_14381_20768" x1="57.4033" y1="26.9158" x2="41.2911" y2="18.9565" gradientUnits="userSpaceOnUse">
<stop stop-color="#440DE6"/>
<stop offset="0.13" stop-color="#4815E7"/>
<stop offset="0.35" stop-color="#552DEB"/>
<stop offset="0.62" stop-color="#6B53F3"/>
<stop offset="0.94" stop-color="#8888FC"/>
<stop offset="1" stop-color="#8F94FF"/>
</linearGradient>
<clipPath id="clip0_14381_20768">
<rect width="80.8571" height="60" fill="white"/>
</clipPath>
</defs>
</svg>
