<svg width="26" height="28" viewBox="0 0 26 28" fill="none" xmlns="http://www.w3.org/2000/svg">
<g clip-path="url(#clip0_746_6897)">
<path d="M12.0677 26.9011V15.2137C12.0677 14.8235 11.8578 14.4605 11.5195 14.2654C9.05018 12.8406 4.11147 9.9885 1.64212 8.56368C0.913661 8.14142 0 8.6674 0 9.51191C0 12.3788 0 18.1102 0 20.9747C0 21.3599 0.202487 21.7155 0.530911 21.913C3.00026 23.3946 7.9365 26.3578 10.4059 27.8395C11.1368 28.2765 12.0653 27.753 12.0653 26.9011H12.0677Z" fill="url(#paint0_linear_746_6897)"/>
<path d="M25.743 16.925C25.6961 16.878 25.6344 16.8533 25.5529 16.8558C25.422 16.8682 25.2985 16.9299 25.1825 17.0385C25.0393 17.1719 24.901 17.3546 24.7701 17.5843C24.496 18.0658 24.1182 18.4658 23.6342 18.7893C23.2391 19.0659 22.8465 19.1992 22.4613 19.1918C22.0859 19.1819 21.797 19.0535 21.597 18.8091C21.3797 18.5424 21.2562 18.1646 21.2216 17.6781C21.1821 16.9324 21.4365 16.1051 21.9871 15.1989C22.3551 14.5815 22.9033 14.0605 23.6342 13.6308C23.8391 13.5247 24.0342 13.458 24.2194 13.4283C24.3849 13.4061 24.5232 13.4209 24.659 13.4827C24.8392 13.574 24.9874 13.6185 25.101 13.616C25.259 13.616 25.4245 13.5148 25.5973 13.3123C25.7257 13.1592 25.8023 12.8777 25.8294 12.4678V9.51195C25.8294 8.6699 24.9183 8.14146 24.1873 8.56372C24.1873 8.56372 16.7793 12.8406 14.3099 14.2655C13.9716 14.4605 13.7617 14.8235 13.7617 15.2137V26.9011C13.7617 27.7531 14.6902 28.279 15.4211 27.8395C17.8905 26.3579 25.2961 21.913 25.2961 21.913C25.627 21.7155 25.827 21.3599 25.827 20.9747V17.2707C25.8146 17.0879 25.785 16.9694 25.7406 16.9225L25.743 16.925Z" fill="url(#paint1_linear_746_6897)"/>
<path d="M23.5354 7.1216C23.5354 7.1216 21.0685 8.55876 18.4757 10.0577L17.7571 10.4626L14.384 12.2751C13.4481 12.774 12.3221 12.774 11.3862 12.2751L7.70194 10.2774L7.32659 10.0577C5.48446 8.96374 3.54848 7.84018 2.20516 7.09197C1.48657 6.687 1.48657 5.59307 2.23726 5.18563C3.76826 4.37321 5.70423 3.31139 7.57847 2.3113L11.2924 0.375328C12.2925 -0.123482 13.4778 -0.123482 14.4457 0.375328L17.725 2.0619L18.1621 2.3113C20.8488 3.7781 23.5033 5.21526 23.5033 5.21526C24.254 5.62023 24.2836 6.68206 23.5354 7.11913V7.1216Z" fill="url(#paint2_linear_746_6897)"/>
</g>
<defs>
<linearGradient id="paint0_linear_746_6897" x1="0" y1="18.2065" x2="12.0677" y2="18.2065" gradientUnits="userSpaceOnUse">
<stop stop-color="#00B272"/>
<stop offset="1" stop-color="#7BFCC6"/>
</linearGradient>
<linearGradient id="paint1_linear_746_6897" x1="13.7617" y1="18.2065" x2="25.8294" y2="18.2065" gradientUnits="userSpaceOnUse">
<stop stop-color="#8380FF"/>
<stop offset="1" stop-color="#413DC6"/>
</linearGradient>
<linearGradient id="paint2_linear_746_6897" x1="12.8777" y1="12.648" x2="12.8777" y2="-1.41543e-05" gradientUnits="userSpaceOnUse">
<stop stop-color="#FF9FB4"/>
<stop offset="1" stop-color="#FF1157"/>
</linearGradient>
<clipPath id="clip0_746_6897">
<rect width="26" height="28" fill="white"/>
</clipPath>
</defs>
</svg>
