<svg width="21" height="15" viewBox="0 0 21 15" fill="none" xmlns="http://www.w3.org/2000/svg">
<g clip-path="url(#clip0_126_2432)">
<mask id="mask0_126_2432" style="mask-type:alpha" maskUnits="userSpaceOnUse" x="0" y="0" width="21" height="15">
<path d="M19 0H2C0.89543 0 0 0.89543 0 2V13C0 14.1046 0.89543 15 2 15H19C20.1046 15 21 14.1046 21 13V2C21 0.89543 20.1046 0 19 0Z" fill="white"/>
</mask>
<g mask="url(#mask0_126_2432)">
<path d="M19 0H2C0.89543 0 0 0.89543 0 2V13C0 14.1046 0.89543 15 2 15H19C20.1046 15 21 14.1046 21 13V2C21 0.89543 20.1046 0 19 0Z" fill="#D0091E"/>
<path fill-rule="evenodd" clip-rule="evenodd" d="M0 8H21V15H0V8Z" fill="black"/>
<path fill-rule="evenodd" clip-rule="evenodd" d="M13.3104 9.58586C13.7444 9.00386 14.0004 8.28186 14.0004 7.49986C14.0004 6.03286 13.0974 4.77686 11.8174 4.25586L11.2124 5.10286C12.2464 5.40986 13.0004 6.36686 13.0004 7.49986C13.0004 8.09386 12.7934 8.63986 12.4474 9.06786L9.00037 6.99986L11.6964 9.69586C11.3414 9.88986 10.9334 9.99986 10.5004 9.99986C9.66037 9.99986 8.91737 9.58586 8.46437 8.94986L7.85938 9.79686C8.50037 10.5339 9.44537 10.9999 10.5004 10.9999C11.2104 10.9999 11.8724 10.7879 12.4244 10.4239L13.0004 10.9999L14.0004 9.99986L13.3104 9.58586ZM9.00037 4.99986H10.0004V5.99986H9.00037V4.99986Z" fill="#FAD800"/>
<path d="M19 0.5H2C1.17157 0.5 0.5 1.17157 0.5 2V13C0.5 13.8284 1.17157 14.5 2 14.5H19C19.8284 14.5 20.5 13.8284 20.5 13V2C20.5 1.17157 19.8284 0.5 19 0.5Z" stroke="black" stroke-opacity="0.1"/>
</g>
</g>
<defs>
<clipPath id="clip0_126_2432">
<rect width="21" height="15" fill="white"/>
</clipPath>
</defs>
</svg>
