<svg width="21" height="15" viewBox="0 0 21 15" fill="none" xmlns="http://www.w3.org/2000/svg">
<g clip-path="url(#clip0_126_2626)">
<mask id="mask0_126_2626" style="mask-type:alpha" maskUnits="userSpaceOnUse" x="0" y="0" width="21" height="15">
<path d="M19 0H2C0.89543 0 0 0.89543 0 2V13C0 14.1046 0.89543 15 2 15H19C20.1046 15 21 14.1046 21 13V2C21 0.89543 20.1046 0 19 0Z" fill="white"/>
</mask>
<g mask="url(#mask0_126_2626)">
<path d="M19 0H2C0.89543 0 0 0.89543 0 2V13C0 14.1046 0.89543 15 2 15H19C20.1046 15 21 14.1046 21 13V2C21 0.89543 20.1046 0 19 0Z" fill="#007BFF"/>
<path fill-rule="evenodd" clip-rule="evenodd" d="M4.49519 5.22952L3.02519 6.00252L3.30519 4.36552L2.11719 3.20552L3.76019 2.96852L4.49519 1.47852L5.22919 2.96852L6.87219 3.20552L5.68219 4.36552L5.96419 6.00152" fill="#FFE000"/>
<path fill-rule="evenodd" clip-rule="evenodd" d="M0 14L21 3V-1L0 10V14Z" fill="#F8D800"/>
<path fill-rule="evenodd" clip-rule="evenodd" d="M0 16L21 5V1L0 12V16Z" fill="#F8D800"/>
<path fill-rule="evenodd" clip-rule="evenodd" d="M0 15L21 4V0L0 11V15Z" fill="#D00817"/>
<path d="M19 0.5H2C1.17157 0.5 0.5 1.17157 0.5 2V13C0.5 13.8284 1.17157 14.5 2 14.5H19C19.8284 14.5 20.5 13.8284 20.5 13V2C20.5 1.17157 19.8284 0.5 19 0.5Z" stroke="black" stroke-opacity="0.1"/>
</g>
</g>
<defs>
<clipPath id="clip0_126_2626">
<rect width="21" height="15" fill="white"/>
</clipPath>
</defs>
</svg>
