<svg width="21" height="15" viewBox="0 0 21 15" fill="none" xmlns="http://www.w3.org/2000/svg">
<g clip-path="url(#clip0_126_2682)">
<mask id="mask0_126_2682" style="mask-type:alpha" maskUnits="userSpaceOnUse" x="0" y="0" width="21" height="15">
<path d="M19 0H2C0.89543 0 0 0.89543 0 2V13C0 14.1046 0.89543 15 2 15H19C20.1046 15 21 14.1046 21 13V2C21 0.89543 20.1046 0 19 0Z" fill="white"/>
</mask>
<g mask="url(#mask0_126_2682)">
<path d="M19 0H2C0.89543 0 0 0.89543 0 2V13C0 14.1046 0.89543 15 2 15H19C20.1046 15 21 14.1046 21 13V2C21 0.89543 20.1046 0 19 0Z" fill="#E02600"/>
<path fill-rule="evenodd" clip-rule="evenodd" d="M5.49519 7.23L4.02519 8.003L4.30519 6.366L3.11719 5.206L4.76019 4.969L5.49519 3.479L6.22919 4.969L7.87219 5.206L6.68219 6.366L6.96419 8.002L5.49519 7.23ZM8.99719 3H9.99719V4H8.99719V3ZM9.99719 5H10.9972V6H9.99719V5ZM9.99719 7H10.9972V8H9.99719V7ZM8.99719 9H9.99719V10H8.99719V9Z" fill="#FFE000"/>
<path d="M19 0.5H2C1.17157 0.5 0.5 1.17157 0.5 2V13C0.5 13.8284 1.17157 14.5 2 14.5H19C19.8284 14.5 20.5 13.8284 20.5 13V2C20.5 1.17157 19.8284 0.5 19 0.5Z" stroke="black" stroke-opacity="0.1"/>
</g>
</g>
<defs>
<clipPath id="clip0_126_2682">
<rect width="21" height="15" fill="white"/>
</clipPath>
</defs>
</svg>
