<svg width="21" height="15" viewBox="0 0 21 15" fill="none" xmlns="http://www.w3.org/2000/svg">
<g clip-path="url(#clip0_126_2816)">
<mask id="mask0_126_2816" style="mask-type:alpha" maskUnits="userSpaceOnUse" x="0" y="0" width="21" height="15">
<path d="M19 0H2C0.89543 0 0 0.89543 0 2V13C0 14.1046 0.89543 15 2 15H19C20.1046 15 21 14.1046 21 13V2C21 0.89543 20.1046 0 19 0Z" fill="white"/>
</mask>
<g mask="url(#mask0_126_2816)">
<path d="M19 0H2C0.89543 0 0 0.89543 0 2V13C0 14.1046 0.89543 15 2 15H19C20.1046 15 21 14.1046 21 13V2C21 0.89543 20.1046 0 19 0Z" fill="#3C87E0"/>
<path fill-rule="evenodd" clip-rule="evenodd" d="M0 0H21V8H0V0Z" fill="#00AF1E"/>
<path fill-rule="evenodd" clip-rule="evenodd" d="M0 0L21 7.5L0 15V0Z" fill="#ED0030"/>
<path fill-rule="evenodd" clip-rule="evenodd" d="M9 7.50022C9 6.12022 7.88 5.00022 6.5 4.50022C5.12 5.00022 4 6.12022 4 7.50022C4 8.71022 4.86 9.71822 6 9.95022V6.49822C6 6.22322 6.232 6.00022 6.5 6.00022C6.776 6.00022 7 6.21522 7 6.49822V9.95022C8.14 9.71822 9 8.71022 9 7.50022ZM10 7.50022C10 5.56722 8.433 4.00022 6.5 4.50022C4.567 4.00022 3 5.56722 3 7.50022C3 9.43322 4.567 11.0002 6.5 11.0002C8.433 11.0002 10 9.43322 10 7.50022Z" fill="#FFC800"/>
<path d="M19 0.5H2C1.17157 0.5 0.5 1.17157 0.5 2V13C0.5 13.8284 1.17157 14.5 2 14.5H19C19.8284 14.5 20.5 13.8284 20.5 13V2C20.5 1.17157 19.8284 0.5 19 0.5Z" stroke="black" stroke-opacity="0.1"/>
</g>
</g>
<defs>
<clipPath id="clip0_126_2816">
<rect width="21" height="15" fill="white"/>
</clipPath>
</defs>
</svg>
