<svg width="21" height="15" viewBox="0 0 21 15" fill="none" xmlns="http://www.w3.org/2000/svg">
<g clip-path="url(#clip0_126_2884)">
<mask id="mask0_126_2884" style="mask-type:alpha" maskUnits="userSpaceOnUse" x="0" y="0" width="21" height="15">
<path d="M19 0H2C0.89543 0 0 0.89543 0 2V13C0 14.1046 0.89543 15 2 15H19C20.1046 15 21 14.1046 21 13V2C21 0.89543 20.1046 0 19 0Z" fill="white"/>
</mask>
<g mask="url(#mask0_126_2884)">
<path d="M19 0H2C0.89543 0 0 0.89543 0 2V13C0 14.1046 0.89543 15 2 15H19C20.1046 15 21 14.1046 21 13V2C21 0.89543 20.1046 0 19 0Z" fill="#22438B"/>
<path fill-rule="evenodd" clip-rule="evenodd" d="M3.00256 1L0.976562 1.026L1.00256 3L17.9846 14.028L20.0216 13.991L19.9836 12.029L3.00256 1Z" fill="white"/>
<path fill-rule="evenodd" clip-rule="evenodd" d="M2 1L1 2L19 14L20 13L2 1Z" fill="#C7152A"/>
<path fill-rule="evenodd" clip-rule="evenodd" d="M18.0022 1H20.0022V3C20.0022 3 8.25219 10.396 3.02019 14.028C2.95719 14.072 1.02219 14.031 1.02219 14.031L0.867188 12.13L18.0022 1Z" fill="white"/>
<path fill-rule="evenodd" clip-rule="evenodd" d="M19.043 0.972656L20 2.00066L2 14.0007L1 13.0007L19.043 0.972656Z" fill="#C7152A"/>
<path fill-rule="evenodd" clip-rule="evenodd" d="M8 1H13V5H20V10H13V14H8V10H1V5H8V1Z" fill="white"/>
<path fill-rule="evenodd" clip-rule="evenodd" d="M9 1H12V6H20V9H12V14H9V9H1V6H9V1Z" fill="#C7152A"/>
<path d="M19 0.5H2C1.17157 0.5 0.5 1.17157 0.5 2V13C0.5 13.8284 1.17157 14.5 2 14.5H19C19.8284 14.5 20.5 13.8284 20.5 13V2C20.5 1.17157 19.8284 0.5 19 0.5Z" stroke="black" stroke-opacity="0.1"/>
</g>
</g>
<defs>
<clipPath id="clip0_126_2884">
<rect width="21" height="15" fill="white"/>
</clipPath>
</defs>
</svg>
