<svg width="21" height="15" viewBox="0 0 21 15" fill="none" xmlns="http://www.w3.org/2000/svg">
<g clip-path="url(#clip0_126_2980)">
<mask id="mask0_126_2980" style="mask-type:alpha" maskUnits="userSpaceOnUse" x="0" y="0" width="21" height="15">
<path d="M19 0H2C0.89543 0 0 0.89543 0 2V13C0 14.1046 0.89543 15 2 15H19C20.1046 15 21 14.1046 21 13V2C21 0.89543 20.1046 0 19 0Z" fill="white"/>
</mask>
<g mask="url(#mask0_126_2980)">
<path d="M19 0H2C0.89543 0 0 0.89543 0 2V13C0 14.1046 0.89543 15 2 15H19C20.1046 15 21 14.1046 21 13V2C21 0.89543 20.1046 0 19 0Z" fill="#DE2910"/>
<path fill-rule="evenodd" clip-rule="evenodd" d="M10.1515 7.51434C7.43954 6.36634 8.64154 2.83034 11.2365 3.00634C10.7105 3.27634 10.6345 3.78034 10.9345 4.24634C11.2705 4.77034 10.9045 5.61134 10.4505 5.81634C9.70454 6.15134 9.55554 7.04634 10.1505 7.51434H10.1515ZM10.3785 7.39234C10.6315 4.45934 14.3685 4.50934 14.9985 7.03034C14.5805 6.61534 14.0785 6.69834 13.7265 7.12834C13.3335 7.60834 12.4205 7.51834 12.0865 7.15134C11.5365 6.54734 10.6365 6.68134 10.3785 7.39334V7.39234ZM10.4705 7.68534C13.3505 7.07034 14.3945 10.6573 12.1675 11.9993C12.4435 11.4763 12.2175 11.0193 11.7035 10.8093C11.1295 10.5733 10.9475 9.67434 11.2015 9.24734C11.6195 8.54434 11.2275 7.72434 10.4715 7.68434L10.4705 7.68534ZM6.74654 10.9803C7.32654 11.0803 7.69154 10.7233 7.73254 10.1703C7.77954 9.55034 8.57754 9.10034 9.06254 9.21034C9.86054 9.39034 10.5195 8.76434 10.3225 8.03234C11.7985 10.5823 8.70954 12.6823 6.74554 10.9793L6.74654 10.9803ZM6.14954 5.50034C6.26454 6.07834 6.72754 6.29034 7.25954 6.13034C7.85454 5.95234 8.56154 6.53634 8.63254 7.03034C8.75054 7.83834 9.57054 8.22834 10.1825 7.78434C8.33254 10.0743 5.26254 7.94434 6.14954 5.49934V5.50034Z" fill="white"/>
<path d="M19 0.5H2C1.17157 0.5 0.5 1.17157 0.5 2V13C0.5 13.8284 1.17157 14.5 2 14.5H19C19.8284 14.5 20.5 13.8284 20.5 13V2C20.5 1.17157 19.8284 0.5 19 0.5Z" stroke="black" stroke-opacity="0.1"/>
</g>
</g>
<defs>
<clipPath id="clip0_126_2980">
<rect width="21" height="15" fill="white"/>
</clipPath>
</defs>
</svg>
