<svg width="21" height="15" viewBox="0 0 21 15" fill="none" xmlns="http://www.w3.org/2000/svg">
<g clip-path="url(#clip0_126_3102)">
<mask id="mask0_126_3102" style="mask-type:alpha" maskUnits="userSpaceOnUse" x="0" y="0" width="21" height="15">
<path d="M19 0H2C0.89543 0 0 0.89543 0 2V13C0 14.1046 0.89543 15 2 15H19C20.1046 15 21 14.1046 21 13V2C21 0.89543 20.1046 0 19 0Z" fill="white"/>
</mask>
<g mask="url(#mask0_126_3102)">
<path d="M19 0H2C0.89543 0 0 0.89543 0 2V13C0 14.1046 0.89543 15 2 15H19C20.1046 15 21 14.1046 21 13V2C21 0.89543 20.1046 0 19 0Z" fill="black"/>
<path fill-rule="evenodd" clip-rule="evenodd" d="M0 10H21V11H0V10Z" fill="white"/>
<path fill-rule="evenodd" clip-rule="evenodd" d="M0 11H21V15H0V11Z" fill="#006700"/>
<path fill-rule="evenodd" clip-rule="evenodd" d="M0 5H21V10H0V5Z" fill="#BD0000"/>
<path fill-rule="evenodd" clip-rule="evenodd" d="M0 4H21V5H0V4Z" fill="white"/>
<path fill-rule="evenodd" clip-rule="evenodd" d="M12.4112 5.91406C12.4832 5.91406 12.9112 5.24406 12.9112 4.41406C12.9112 3.58606 12.4832 2.91406 12.4112 2.91406C12.3412 2.91406 11.9112 3.58606 11.9112 4.41406C11.9112 5.24406 12.3412 5.91406 12.4112 5.91406ZM9.47223 5.47506C9.42223 5.52506 8.64223 5.35506 8.05823 4.76806C7.47323 4.18206 7.30123 3.40406 7.35223 3.35406C7.40223 3.30406 8.18023 3.47406 8.76623 4.06106C9.35223 4.64706 9.52323 5.42506 9.47323 5.47606L9.47223 5.47506ZM11.3512 10.0081C11.4012 9.96106 12.1812 10.1211 12.7662 10.6681C13.3512 11.2181 13.5232 11.9451 13.4732 11.9921C13.4232 12.0391 12.6432 11.8791 12.0572 11.3321C11.4722 10.7821 11.3002 10.0551 11.3512 10.0081ZM9.47223 10.0081C9.42223 9.96106 8.64223 10.1211 8.05823 10.6681C7.47323 11.2181 7.30123 11.9451 7.35223 11.9921C7.40223 12.0391 8.18023 11.8791 8.76623 11.3321C9.35223 10.7821 9.52323 10.0551 9.47323 10.0081H9.47223Z" fill="white"/>
<path fill-rule="evenodd" clip-rule="evenodd" d="M10.5 12C10.857 12 13 9.985 13 7.5C13 5.015 10.857 3 10.5 3C10.143 3 8 5.015 8 7.5C8 9.985 10.143 12 10.5 12Z" fill="#BD0000"/>
<path fill-rule="evenodd" clip-rule="evenodd" d="M8.5 9C8.57 9 9 8.328 9 7.5C9 6.672 8.57 6 8.5 6C8.43 6 8 6.672 8 7.5C8 8.328 8.43 9 8.5 9ZM12.5 9C12.57 9 13 8.328 13 7.5C13 6.672 12.57 6 12.5 6C12.43 6 12 6.672 12 7.5C12 8.328 12.43 9 12.5 9Z" fill="black"/>
<path d="M11 7.5C11 6.67157 10.7761 6 10.5 6C10.2239 6 10 6.67157 10 7.5C10 8.32843 10.2239 9 10.5 9C10.7761 9 11 8.32843 11 7.5Z" fill="white"/>
<path d="M19 0.5H2C1.17157 0.5 0.5 1.17157 0.5 2V13C0.5 13.8284 1.17157 14.5 2 14.5H19C19.8284 14.5 20.5 13.8284 20.5 13V2C20.5 1.17157 19.8284 0.5 19 0.5Z" stroke="black" stroke-opacity="0.1"/>
</g>
</g>
<defs>
<clipPath id="clip0_126_3102">
<rect width="21" height="15" fill="white"/>
</clipPath>
</defs>
</svg>
