<svg width="21" height="15" viewBox="0 0 21 15" fill="none" xmlns="http://www.w3.org/2000/svg">
<g clip-path="url(#clip0_126_3152)">
<mask id="mask0_126_3152" style="mask-type:alpha" maskUnits="userSpaceOnUse" x="0" y="0" width="21" height="15">
<path d="M19 0H2C0.89543 0 0 0.89543 0 2V13C0 14.1046 0.89543 15 2 15H19C20.1046 15 21 14.1046 21 13V2C21 0.89543 20.1046 0 19 0Z" fill="white"/>
</mask>
<g mask="url(#mask0_126_3152)">
<path d="M19 0H2C0.89543 0 0 0.89543 0 2V13C0 14.1046 0.89543 15 2 15H19C20.1046 15 21 14.1046 21 13V2C21 0.89543 20.1046 0 19 0Z" fill="#004DA4"/>
<path fill-rule="evenodd" clip-rule="evenodd" d="M0 3H21V4H0V3Z" fill="white"/>
<path fill-rule="evenodd" clip-rule="evenodd" d="M0 4H21V11H0V4Z" fill="#F0161B"/>
<path d="M5.5 10C6.88071 10 8 8.88071 8 7.5C8 6.11929 6.88071 5 5.5 5C4.11929 5 3 6.11929 3 7.5C3 8.88071 4.11929 10 5.5 10Z" fill="white"/>
<path fill-rule="evenodd" clip-rule="evenodd" d="M5.49469 8.47597L4.29469 9.10597L4.52469 7.77097L3.55469 6.82697L4.89469 6.63197L5.49469 5.41797L6.09469 6.63297L7.43469 6.82897L6.46469 7.77397L6.69469 9.10997" fill="#F0161B"/>
<path fill-rule="evenodd" clip-rule="evenodd" d="M0 11H21V12H0V11Z" fill="white"/>
<path d="M19 0.5H2C1.17157 0.5 0.5 1.17157 0.5 2V13C0.5 13.8284 1.17157 14.5 2 14.5H19C19.8284 14.5 20.5 13.8284 20.5 13V2C20.5 1.17157 19.8284 0.5 19 0.5Z" stroke="black" stroke-opacity="0.1"/>
</g>
</g>
<defs>
<clipPath id="clip0_126_3152">
<rect width="21" height="15" fill="white"/>
</clipPath>
</defs>
</svg>
