<svg width="21" height="15" viewBox="0 0 21 15" fill="none" xmlns="http://www.w3.org/2000/svg">
<g clip-path="url(#clip0_126_3216)">
<mask id="mask0_126_3216" style="mask-type:alpha" maskUnits="userSpaceOnUse" x="0" y="0" width="21" height="15">
<path d="M19 0H2C0.89543 0 0 0.89543 0 2V13C0 14.1046 0.89543 15 2 15H19C20.1046 15 21 14.1046 21 13V2C21 0.89543 20.1046 0 19 0Z" fill="white"/>
</mask>
<g mask="url(#mask0_126_3216)">
<path d="M19 0H2C0.89543 0 0 0.89543 0 2V13C0 14.1046 0.89543 15 2 15H19C20.1046 15 21 14.1046 21 13V2C21 0.89543 20.1046 0 19 0Z" fill="#FFBF00"/>
<path fill-rule="evenodd" clip-rule="evenodd" d="M2 2H5V13H2V2Z" fill="#00614A"/>
<path fill-rule="evenodd" clip-rule="evenodd" d="M5 2H8V13H5V2Z" fill="#FF6600"/>
<path fill-rule="evenodd" clip-rule="evenodd" d="M9 2H19V13H9V2Z" fill="#98232E"/>
<path fill-rule="evenodd" clip-rule="evenodd" d="M12.5335 10.6164L12.5915 10.5724L12.6155 10.6164C12.6485 10.6764 12.7395 10.6744 12.7995 10.6164L12.8465 10.5694L12.8865 10.6144C12.9365 10.6744 13.0305 10.6744 13.0905 10.6144C13.1345 10.5724 13.1405 10.5714 13.1685 10.6044C13.1845 10.6224 13.2335 10.6444 13.2765 10.6514C13.3545 10.6654 13.3565 10.6644 13.4015 10.5734C13.4415 10.4974 13.4465 10.4674 13.4375 10.3934C13.4315 10.3434 13.4245 10.2654 13.4225 10.2184C13.4205 10.1324 13.4205 10.1314 13.5145 10.0884C13.5645 10.0644 13.6245 10.0324 13.6475 10.0164C13.6845 9.99045 13.7875 9.82945 13.7875 9.79645C13.7875 9.78845 13.7475 9.77645 13.6975 9.76845C13.5025 9.73845 13.4695 9.59845 13.5975 9.33845C13.8045 8.91645 13.9295 8.50345 13.9305 8.24045C13.9305 8.12345 13.9355 8.08345 13.9475 8.11045C13.9935 8.21345 13.9105 8.65045 13.7845 8.96545L13.7345 9.09245L13.7825 9.07745C13.8085 9.06745 13.9655 8.98045 14.1295 8.88145C14.5795 8.61145 14.7345 8.55745 15.0265 8.57345C15.2705 8.58745 15.3745 8.65045 15.5465 8.89145C15.6385 9.01845 15.7265 9.10945 15.8865 9.24345C16.2305 9.52945 16.2445 9.55345 16.2605 9.88945C16.2775 10.2294 16.2705 10.2494 16.0755 10.3054C15.9105 10.3534 15.8055 10.4554 15.7785 10.5984C15.7645 10.6754 15.7955 10.6784 15.8785 10.6064L15.9385 10.5544L15.9665 10.6064C16.0025 10.6764 16.0785 10.6764 16.1415 10.6064L16.1885 10.5564L16.2365 10.6064C16.3125 10.6864 16.4135 10.6684 16.4415 10.5664C16.4465 10.5484 16.4615 10.5544 16.4915 10.5884C16.5465 10.6524 16.6875 10.6804 16.7035 10.6284C16.7095 10.6104 16.6975 10.5634 16.6785 10.5244C16.5965 10.3604 16.5705 10.2814 16.5685 10.1924C16.5685 10.0684 16.5955 10.0084 16.7025 9.90645C16.8325 9.78345 16.8725 9.62645 16.7745 9.62645C16.7145 9.62645 16.6525 9.55345 16.6145 9.43645C16.5345 9.20145 16.5495 8.93645 16.6685 8.49645C16.7885 8.04645 16.8025 7.96645 16.8035 7.66645C16.8035 7.42345 16.8005 7.38145 16.7585 7.24845C16.7335 7.16845 16.6815 7.04645 16.6445 6.98045L16.5775 6.86045L16.6645 6.76245C16.9315 6.46845 16.8775 5.98645 16.5545 5.80245C16.4575 5.74445 16.4325 5.73945 16.2605 5.74245C16.1565 5.74245 16.0005 5.76045 15.9105 5.78245C15.8185 5.80245 15.6645 5.82045 15.5585 5.82045C15.3905 5.82045 15.3625 5.81645 15.2985 5.77045C15.2305 5.72245 15.2185 5.70045 15.2055 5.59045C15.2035 5.56645 15.1915 5.54445 15.1795 5.54045C15.1565 5.53045 15.0495 5.65045 15.0355 5.70645C15.0275 5.73245 15.0205 5.73045 14.9985 5.69645C14.9835 5.67145 14.9625 5.61645 14.9515 5.57445C14.9245 5.46645 14.9575 5.38445 15.0515 5.32445L15.1265 5.27845L15.0845 5.24245C14.9945 5.16845 14.8415 5.21845 14.7865 5.34245C14.7705 5.37545 14.7535 5.40445 14.7485 5.40445C14.7435 5.40445 14.7135 5.37145 14.6825 5.33145C14.5665 5.18145 14.6065 4.95745 14.7625 4.88845C14.8445 4.85245 14.9175 4.88045 14.9325 4.95345C14.9555 5.06545 15.0285 4.91845 15.0155 4.78545C15.0055 4.69745 15.0055 4.69345 15.0525 4.69345C15.1165 4.69345 15.2525 4.80545 15.2955 4.89345C15.3455 4.99345 15.3405 5.15345 15.2855 5.27145L15.2455 5.36445L15.2995 5.35045C15.3795 5.32845 15.4595 5.26045 15.4995 5.18045C15.5415 5.09445 15.5465 4.92745 15.5095 4.83645C15.4725 4.74945 15.4765 4.73645 15.5295 4.76645C15.6215 4.81645 15.6695 4.87045 15.7065 4.96645C15.7405 5.05145 15.7425 5.07245 15.7245 5.16145C15.7145 5.21645 15.6895 5.28845 15.6705 5.32145C15.6405 5.37445 15.6405 5.38345 15.6635 5.38345C15.7065 5.38345 15.7985 5.32845 15.8305 5.28345C15.8465 5.25945 15.8705 5.20345 15.8835 5.15545L15.9065 5.07145L15.9335 5.13545C15.9715 5.22545 16.0435 5.30845 16.1335 5.35945C16.2305 5.41545 16.2705 5.41945 16.2205 5.36745C16.1865 5.33245 16.1235 5.08745 16.1425 5.06445C16.1525 5.05045 16.2845 5.18445 16.4325 5.36245C16.5745 5.53245 16.6625 5.58645 16.7925 5.58645C16.9595 5.58645 17.0555 5.39445 16.9825 5.21345C16.9375 5.10745 16.8405 5.09345 16.7845 5.18345C16.7585 5.22545 16.7515 5.25845 16.7585 5.30145C16.7685 5.35545 16.7645 5.36145 16.7285 5.36145C16.6785 5.36145 16.5845 5.28145 16.4165 5.09345C16.1595 4.80845 15.8465 4.56645 15.6215 4.47845C15.4765 4.42045 15.1675 4.39845 15.0215 4.43445C14.8615 4.47245 14.6715 4.59445 14.5695 4.72445C14.3875 4.95445 14.3855 5.25945 14.5625 5.53845L14.6125 5.61845L14.5785 5.68845C14.5285 5.79245 14.5325 5.93145 14.5885 6.03345C14.6135 6.07845 14.6385 6.11545 14.6445 6.11545C14.6505 6.11545 14.6565 6.08545 14.6585 6.05045C14.6635 5.96045 14.6925 5.90045 14.7425 5.87745C14.7865 5.85545 14.8155 5.86545 15.0205 5.97345C15.2355 6.08845 15.5885 6.09545 15.9645 5.99345C16.1495 5.94545 16.3665 5.94845 16.4625 6.00145C16.6375 6.09945 16.6785 6.35345 16.5495 6.54645C16.4935 6.62845 16.4395 6.66245 16.2595 6.72845C16.1215 6.77845 16.0895 6.78245 15.7765 6.77845C15.5095 6.77445 15.4135 6.78145 15.3045 6.81145C15.1865 6.84445 15.1145 6.84745 14.7665 6.83645L14.3645 6.82245L14.4095 6.87245C14.4335 6.89845 14.4695 6.93245 14.4865 6.94545C14.5165 6.96745 14.5165 6.97045 14.4705 6.99245C14.4435 7.00645 14.3855 7.01645 14.3405 7.01645H14.2575L14.2475 7.11045C14.2415 7.16245 14.2415 7.22045 14.2475 7.24345C14.2575 7.27645 14.2545 7.28045 14.2275 7.26845C14.2115 7.25845 14.1635 7.24345 14.1215 7.23145C14.0795 7.21945 14.0235 7.19645 13.9965 7.17845C13.9505 7.14845 13.9465 7.14845 13.9285 7.18845C13.9145 7.22445 13.7745 7.36245 13.7535 7.36245C13.7505 7.36245 13.7465 7.33545 13.7435 7.30245C13.7435 7.27045 13.7235 7.18545 13.6995 7.11445C13.6775 7.04445 13.6535 6.96645 13.6475 6.94245C13.6375 6.90645 13.6345 6.90445 13.6225 6.93245C13.6155 6.94945 13.6045 6.99745 13.5985 7.03945C13.5935 7.07945 13.5725 7.14945 13.5525 7.18945L13.5165 7.26345L13.4935 7.19945C13.4695 7.13145 13.4285 7.05945 13.4135 7.05945C13.4085 7.05945 13.3995 7.08245 13.3935 7.10945C13.3835 7.16445 13.2865 7.31945 13.2635 7.31945C13.2535 7.31945 13.2465 7.27545 13.2465 7.22245C13.2465 7.16845 13.2395 7.12545 13.2295 7.12545C13.2215 7.12545 13.2135 7.13845 13.2135 7.15545C13.2135 7.19545 13.1305 7.31845 13.1035 7.31845C13.0905 7.31845 13.0715 7.33245 13.0595 7.35045C13.0295 7.39645 13.0045 7.39045 13.0165 7.34045C13.0235 7.31545 13.0195 7.26045 13.0085 7.21545L12.9815 7.11045C12.9775 7.09445 12.9485 7.09845 12.8855 7.12545C12.7835 7.16845 12.7495 7.16145 12.8015 7.10545C12.8215 7.08545 12.8515 7.01745 12.8665 6.95345C12.8825 6.88945 12.9065 6.83345 12.9205 6.82645C12.9385 6.82045 12.9375 6.82945 12.9155 6.86845C12.9005 6.89645 12.8875 6.93445 12.8875 6.95245C12.8875 6.97045 12.8745 7.01245 12.8605 7.04745C12.8465 7.08345 12.8375 7.11445 12.8405 7.11745C12.8445 7.12245 12.8825 7.10345 12.9265 7.07545L13.0065 7.02545V7.07045C13.0065 7.09545 13.0165 7.16045 13.0265 7.21645L13.0485 7.31645L13.1025 7.28345C13.1575 7.24945 13.2105 7.12845 13.2105 7.03545C13.2105 6.98745 13.2305 6.99545 13.2385 7.04545L13.2665 7.16545L13.2905 7.25945L13.3275 7.19945C13.3475 7.16645 13.3745 7.10245 13.3855 7.05645C13.4055 6.97845 13.4335 6.94445 13.4335 7.00145C13.4335 7.04345 13.5195 7.19145 13.5355 7.17945C13.5435 7.17345 13.5595 7.11745 13.5705 7.05545C13.5945 6.92545 13.6325 6.83745 13.6575 6.85545C13.6675 6.86345 13.6695 6.87545 13.6645 6.88545C13.6605 6.89545 13.6795 6.98045 13.7085 7.07345C13.7385 7.16645 13.7685 7.26045 13.7735 7.28145C13.7835 7.31645 13.7935 7.31145 13.8555 7.23845C13.8955 7.19345 13.9295 7.14345 13.9335 7.12645C13.9395 7.10245 13.9485 7.10345 13.9835 7.13245C14.0335 7.17445 14.2035 7.24245 14.2165 7.22445C14.2215 7.21845 14.2265 7.15945 14.2265 7.09445L14.2295 6.97445L14.2795 6.98745C14.3065 6.99545 14.3625 6.99445 14.4045 6.98745L14.4805 6.97245L14.4135 6.91045C14.3765 6.87645 14.3385 6.83245 14.3295 6.81245C14.3195 6.79245 14.2855 6.77245 14.2495 6.76945C14.1465 6.75745 13.9655 6.62245 13.9655 6.55945C13.9655 6.54645 13.9905 6.56645 14.0215 6.60445C14.0895 6.68645 14.1835 6.73845 14.2655 6.73845H14.3275L14.2895 6.67245C14.2675 6.63245 14.2475 6.56045 14.2425 6.49945C14.2355 6.40445 14.2275 6.38945 14.1525 6.31945C14.1075 6.27745 14.0505 6.21445 14.0275 6.17945L13.9855 6.11645L13.9635 6.19145C13.9515 6.23345 13.9365 6.26645 13.9315 6.26645C13.9255 6.26645 13.9015 6.24245 13.8815 6.21345C13.8585 6.18345 13.8355 6.15945 13.8315 6.15945C13.8245 6.15945 13.8055 6.19945 13.7865 6.24945L13.7535 6.33645L13.7275 6.28645C13.7125 6.25645 13.6795 6.20845 13.6525 6.17645C13.6255 6.14245 13.6105 6.11645 13.6205 6.11645C13.6305 6.11645 13.6645 6.15045 13.6955 6.19145L13.7525 6.26745L13.7755 6.21145C13.7885 6.17945 13.7935 6.12845 13.7875 6.08745C13.7775 6.02745 13.7795 6.02545 13.7975 6.06245C13.8075 6.08645 13.8405 6.13245 13.8705 6.16245L13.9245 6.22245L13.9615 6.13245C13.9985 6.04245 13.9995 6.04245 14.0155 6.09445C14.0385 6.16645 14.2005 6.34445 14.3385 6.44645C14.3585 6.46245 14.3505 6.40645 14.3115 6.28145C14.3015 6.24845 14.2915 6.18845 14.2915 6.14845C14.2915 6.08845 14.2795 6.06145 14.2215 6.00345C14.1395 5.91945 14.1135 5.86045 14.0975 5.72545C14.0915 5.67045 14.0775 5.60945 14.0655 5.59045C14.0485 5.56045 14.0455 5.57745 14.0505 5.67845C14.0525 5.74845 14.0455 5.83245 14.0345 5.86845L14.0145 5.93245L13.9985 5.87845C13.9885 5.84845 13.9515 5.79845 13.9135 5.76345C13.8735 5.73045 13.8485 5.69745 13.8535 5.69045C13.8585 5.68445 13.8985 5.71445 13.9405 5.75845C14.0055 5.82545 14.0205 5.83245 14.0285 5.80345C14.0385 5.76845 14.0285 5.61745 14.0085 5.51345C13.9985 5.45945 13.9985 5.45945 14.0485 5.52345C14.0845 5.57345 14.1035 5.62945 14.1185 5.72945C14.1385 5.85645 14.1485 5.87945 14.2365 5.97945C14.2895 6.04245 14.3365 6.08945 14.3385 6.08545C14.3425 6.08145 14.3485 5.92145 14.3535 5.73045C14.3635 5.36545 14.3535 5.27845 14.2865 5.16545L14.2525 5.10745L14.3055 5.03045C14.3755 4.93045 14.4075 4.85045 14.4215 4.74045L14.4335 4.65045L14.3735 4.72745C14.3235 4.78945 14.3005 4.80345 14.2435 4.80345C14.1865 4.80345 14.1635 4.79145 14.1265 4.73645C14.0805 4.67145 13.9985 4.60945 13.9205 4.57845C13.8905 4.56845 13.8805 4.57245 13.8805 4.59845C13.8805 4.61845 13.8655 4.67245 13.8455 4.72045L13.8105 4.80845L13.7365 4.71045C13.6905 4.65045 13.6365 4.60445 13.5965 4.59045C13.4935 4.55445 13.4885 4.55745 13.4885 4.66045C13.4885 4.81345 13.4385 4.84245 13.3485 4.74045C13.2815 4.66045 13.2245 4.64445 13.0955 4.66345L12.9955 4.67845L13.0155 4.73845C13.0295 4.78845 13.0255 4.80845 12.9935 4.86545C12.9415 4.95745 12.8735 4.99745 12.7695 4.99745C12.7215 4.99745 12.6615 5.01045 12.6355 5.02745C12.6105 5.04245 12.5475 5.06145 12.4955 5.06745C12.4435 5.07445 12.3885 5.08745 12.3725 5.09445C12.3485 5.10645 12.3455 5.09645 12.3525 5.02245C12.3655 4.90845 12.3065 4.82545 12.2125 4.82545C12.0925 4.82545 12.0375 4.96845 12.0845 5.15745C12.0945 5.19345 12.1045 5.25145 12.1105 5.28445C12.1175 5.31945 12.1705 5.41245 12.2385 5.50145C12.3025 5.58745 12.3625 5.67645 12.3725 5.69945C12.3825 5.72245 12.4155 5.75945 12.4455 5.78145L12.5005 5.82145L12.4935 5.74445C12.4855 5.65845 12.4995 5.64445 12.5335 5.70445C12.5465 5.72745 12.5775 5.76245 12.6035 5.78445C12.6435 5.81645 12.6505 5.81745 12.6505 5.78845C12.6505 5.76845 12.6585 5.72845 12.6685 5.69445L12.6885 5.63445L12.7185 5.71645C12.7365 5.76145 12.7945 5.86445 12.8465 5.94645C12.9485 6.10145 13.0105 6.27645 12.9785 6.31645C12.9655 6.33345 12.9305 6.33145 12.8585 6.31245C12.8015 6.29845 12.7315 6.29045 12.7025 6.29545C12.6425 6.30545 12.6395 6.29545 12.6755 6.23545C12.7135 6.17245 12.7075 6.16245 12.6325 6.16245C12.5455 6.16245 12.3305 6.10645 12.2475 6.06245C12.1675 6.02245 12.1475 6.03245 12.1245 6.13245L12.0815 6.31745L12.0585 6.41745L12.1455 6.40745C12.1935 6.40045 12.2555 6.38745 12.2825 6.37545C12.3105 6.36545 12.3355 6.35945 12.3385 6.36245C12.3415 6.36645 12.3285 6.40645 12.3115 6.45045L12.2775 6.53045L12.3325 6.51645C12.3625 6.50845 12.4075 6.48845 12.4325 6.47245C12.4765 6.44445 12.4795 6.44645 12.5145 6.51945C12.5565 6.60945 12.5905 6.60645 12.5975 6.50945C12.6055 6.41145 12.6305 6.42645 12.6775 6.55745C12.7205 6.68345 12.7675 6.72745 12.7755 6.65345C12.7785 6.62945 12.8015 6.58845 12.8285 6.56345C12.8815 6.51345 12.9215 6.52945 12.9435 6.60745C12.9685 6.68745 12.9155 6.77145 12.7635 6.89545C12.4535 7.14345 12.2755 7.48345 12.2235 7.91545C12.1775 8.30545 12.3215 8.70945 12.6105 8.99945C12.7485 9.13945 12.9685 9.28445 12.9545 9.22945C12.8965 8.99145 12.8985 8.53945 12.9585 8.46245C12.9685 8.45045 12.9645 8.49745 12.9515 8.56645C12.9035 8.82445 12.9245 9.02945 13.0485 9.51045C13.1585 9.94645 13.1445 10.1324 12.9865 10.2544C12.9365 10.2944 12.9025 10.3004 12.7665 10.2984C12.6185 10.2964 12.6025 10.3004 12.5545 10.3504C12.5085 10.4004 12.4495 10.5604 12.4495 10.6344C12.4495 10.6744 12.4825 10.6694 12.5495 10.6184L12.5335 10.6164ZM11.4135 9.81645C11.4295 9.78945 11.4415 9.74645 11.4415 9.72145C11.4415 9.68345 11.4545 9.67345 11.5185 9.66145L11.5955 9.64745L11.5455 9.59245C11.4835 9.52845 11.4775 9.47845 11.5315 9.47845C11.5845 9.47845 11.6755 9.40445 11.6895 9.34845C11.6965 9.32445 11.6925 9.29045 11.6815 9.27245C11.6515 9.22745 11.5945 9.23445 11.5845 9.28445C11.5725 9.33845 11.5545 9.33945 11.5115 9.28445C11.4475 9.20445 11.4455 9.03645 11.5085 8.93845C11.5365 8.89245 11.5365 8.88845 11.4985 8.84245C11.4585 8.79045 11.4285 8.68945 11.4485 8.66545C11.4545 8.65845 11.4865 8.66545 11.5185 8.67945C11.5665 8.69945 11.5855 8.70145 11.6045 8.67945C11.6645 8.61945 11.5995 8.53945 11.5045 8.55745C11.4675 8.56445 11.4525 8.55745 11.4465 8.53145C11.4425 8.51145 11.4095 8.48445 11.3715 8.47145C11.3055 8.44945 11.3045 8.45145 11.3045 8.51145C11.3045 8.57845 11.2745 8.59145 11.2215 8.54845C11.1765 8.51345 11.1335 8.54045 11.1335 8.60345C11.1335 8.66145 11.1785 8.69045 11.2575 8.68345C11.3175 8.67845 11.3205 8.73945 11.2625 8.82545L11.2205 8.88845L11.2535 8.95145C11.3035 9.04445 11.2985 9.19945 11.2435 9.27645L11.2035 9.33645L11.1755 9.28845C11.1375 9.22145 11.0855 9.22645 11.0705 9.29845C11.0605 9.34545 11.0705 9.36645 11.1135 9.41645C11.1435 9.44945 11.1865 9.47645 11.2095 9.47645C11.2675 9.47645 11.2655 9.53645 11.2055 9.59845L11.1585 9.64645L11.2325 9.66145C11.2725 9.66945 11.3045 9.68545 11.3045 9.69645C11.3045 9.73645 11.3545 9.86445 11.3715 9.86445C11.3815 9.86445 11.4015 9.84445 11.4145 9.81745L11.4135 9.81645ZM11.6665 7.64645C11.8325 7.54945 11.8465 7.30245 11.6905 7.23645C11.6255 7.21045 11.5845 7.22645 11.5605 7.28345C11.5405 7.32845 11.5535 7.40945 11.5805 7.40945C11.5885 7.40945 11.5955 7.42345 11.5955 7.44145C11.5955 7.52745 11.3425 7.56645 11.2395 7.49645C11.2035 7.47145 11.1895 7.40845 11.2195 7.40845C11.2395 7.40845 11.2565 7.34245 11.2455 7.29645C11.2295 7.23445 11.1815 7.21245 11.1135 7.23645C10.9585 7.29045 10.9635 7.53245 11.1205 7.63645C11.2505 7.71945 11.5345 7.72445 11.6685 7.64645H11.6665ZM11.5635 7.45645C11.5735 7.44645 11.5695 7.42645 11.5535 7.40945C11.5185 7.37245 11.5205 7.31745 11.5585 7.25445C11.5885 7.20745 11.5915 7.13745 11.6015 6.42845C11.6185 5.20445 11.6865 4.28545 11.7765 4.06545C11.8125 3.97745 11.8065 3.97545 11.7145 4.06045C11.5945 4.16845 11.5045 4.31045 11.4245 4.51045C11.2725 4.89045 11.2195 5.40245 11.2195 6.49445C11.2195 7.11445 11.2235 7.19445 11.2495 7.25445C11.2755 7.30845 11.2765 7.32945 11.2595 7.38845C11.2475 7.42645 11.2425 7.46345 11.2475 7.46845C11.2815 7.51245 11.5275 7.50145 11.5645 7.45545L11.5635 7.45645Z" fill="#FFB700"/>
<path fill-rule="evenodd" clip-rule="evenodd" d="M10 3H11V4H10V3ZM17 3H18V4H17V3ZM10 11H11V12H10V11ZM17 11H18V12H17V11Z" fill="#DA8210"/>
<path d="M19 0.5H2C1.17157 0.5 0.5 1.17157 0.5 2V13C0.5 13.8284 1.17157 14.5 2 14.5H19C19.8284 14.5 20.5 13.8284 20.5 13V2C20.5 1.17157 19.8284 0.5 19 0.5Z" stroke="black" stroke-opacity="0.1"/>
</g>
</g>
<defs>
<clipPath id="clip0_126_3216">
<rect width="21" height="15" fill="white"/>
</clipPath>
</defs>
</svg>
