<svg width="21" height="15" viewBox="0 0 21 15" fill="none" xmlns="http://www.w3.org/2000/svg">
<g clip-path="url(#clip0_126_3353)">
<mask id="mask0_126_3353" style="mask-type:alpha" maskUnits="userSpaceOnUse" x="0" y="0" width="21" height="15">
<path d="M19 0H2C0.89543 0 0 0.89543 0 2V13C0 14.1046 0.89543 15 2 15H19C20.1046 15 21 14.1046 21 13V2C21 0.89543 20.1046 0 19 0Z" fill="white"/>
</mask>
<g mask="url(#mask0_126_3353)">
<path d="M19 0H2C0.89543 0 0 0.89543 0 2V13C0 14.1046 0.89543 15 2 15H19C20.1046 15 21 14.1046 21 13V2C21 0.89543 20.1046 0 19 0Z" fill="#006331"/>
<path fill-rule="evenodd" clip-rule="evenodd" d="M10.4952 7.24905L9.02519 8.02205L9.30519 6.38505L8.11719 5.22505L9.76019 4.98805L10.4952 3.49805L11.2292 4.98805L12.8722 5.22505L11.6822 6.38505L11.9642 8.02105" fill="#FFC500"/>
<path fill-rule="evenodd" clip-rule="evenodd" d="M14.965 5.9385C14.988 6.1225 15 6.3105 15 6.5005C15 8.9855 12.985 11.0005 10.5 11.0005C8.015 11.0005 6 8.9855 6 6.5005C6 6.3105 6.012 6.1225 6.035 5.9375C6.312 7.6655 8.205 9.0005 10.5 9.0005C12.795 9.0005 14.688 7.6645 14.965 5.9375V5.9385Z" fill="#FFC500"/>
<path d="M19 0.5H2C1.17157 0.5 0.5 1.17157 0.5 2V13C0.5 13.8284 1.17157 14.5 2 14.5H19C19.8284 14.5 20.5 13.8284 20.5 13V2C20.5 1.17157 19.8284 0.5 19 0.5Z" stroke="black" stroke-opacity="0.1"/>
</g>
</g>
<defs>
<clipPath id="clip0_126_3353">
<rect width="21" height="15" fill="white"/>
</clipPath>
</defs>
</svg>
