<svg width="21" height="15" viewBox="0 0 21 15" fill="none" xmlns="http://www.w3.org/2000/svg">
<g clip-path="url(#clip0_126_3474)">
<mask id="mask0_126_3474" style="mask-type:alpha" maskUnits="userSpaceOnUse" x="0" y="0" width="21" height="15">
<path d="M19 0H2C0.89543 0 0 0.89543 0 2V13C0 14.1046 0.89543 15 2 15H19C20.1046 15 21 14.1046 21 13V2C21 0.89543 20.1046 0 19 0Z" fill="white"/>
</mask>
<g mask="url(#mask0_126_3474)">
<path d="M19 0H2C0.89543 0 0 0.89543 0 2V13C0 14.1046 0.89543 15 2 15H19C20.1046 15 21 14.1046 21 13V2C21 0.89543 20.1046 0 19 0Z" fill="#002781"/>
<path fill-rule="evenodd" clip-rule="evenodd" d="M0 7H21V8H0V7Z" fill="#FFC700"/>
<path fill-rule="evenodd" clip-rule="evenodd" d="M7.49519 12.2295L6.02519 13.0025L6.30519 11.3655L5.11719 10.2055L6.76019 9.96852L7.49519 8.47852L8.22919 9.96852L9.87219 10.2055L8.68219 11.3655L8.96419 13.0015" fill="white"/>
<path d="M19 0.5H2C1.17157 0.5 0.5 1.17157 0.5 2V13C0.5 13.8284 1.17157 14.5 2 14.5H19C19.8284 14.5 20.5 13.8284 20.5 13V2C20.5 1.17157 19.8284 0.5 19 0.5Z" stroke="black" stroke-opacity="0.1"/>
</g>
</g>
<defs>
<clipPath id="clip0_126_3474">
<rect width="21" height="15" fill="white"/>
</clipPath>
</defs>
</svg>
