<svg width="21" height="15" viewBox="0 0 21 15" fill="none" xmlns="http://www.w3.org/2000/svg">
<g clip-path="url(#clip0_126_3489)">
<mask id="mask0_126_3489" style="mask-type:alpha" maskUnits="userSpaceOnUse" x="0" y="0" width="21" height="15">
<path d="M19 0H2C0.89543 0 0 0.89543 0 2V13C0 14.1046 0.89543 15 2 15H19C20.1046 15 21 14.1046 21 13V2C21 0.89543 20.1046 0 19 0Z" fill="white"/>
</mask>
<g mask="url(#mask0_126_3489)">
<path d="M19 0H2C0.89543 0 0 0.89543 0 2V13C0 14.1046 0.89543 15 2 15H19C20.1046 15 21 14.1046 21 13V2C21 0.89543 20.1046 0 19 0Z" fill="#DE0F09"/>
<path fill-rule="evenodd" clip-rule="evenodd" d="M6 10H21V15H6V10Z" fill="#008100"/>
<path fill-rule="evenodd" clip-rule="evenodd" d="M6.00362 0H21.0036V5H6.00362V0ZM4.57963 3.903C4.52463 3.986 4.46163 4.063 4.38963 4.136C3.80263 4.722 2.85263 4.722 2.26763 4.136C1.68163 3.551 1.68163 2.601 2.26763 2.016C2.33963 1.942 2.41763 1.879 2.50063 1.824C2.27563 2.244 2.46062 2.916 2.97462 3.429C3.48863 3.941 4.15963 4.127 4.58063 3.902L4.57963 3.903Z" fill="white"/>
<path fill-rule="evenodd" clip-rule="evenodd" d="M2.42287 3.90322C2.47787 3.98622 2.54087 4.06322 2.61287 4.13622C3.19987 4.72222 4.14987 4.72222 4.73487 4.13622C5.32087 3.55122 5.32087 2.60122 4.73487 2.01622C4.66287 1.94222 4.58487 1.87922 4.50187 1.82422C4.72687 2.24422 4.54187 2.91622 4.02787 3.42922C3.51387 3.94122 2.84288 4.12722 2.42188 3.90222L2.42287 3.90322Z" fill="white"/>
<path d="M19 0.5H2C1.17157 0.5 0.5 1.17157 0.5 2V13C0.5 13.8284 1.17157 14.5 2 14.5H19C19.8284 14.5 20.5 13.8284 20.5 13V2C20.5 1.17157 19.8284 0.5 19 0.5Z" stroke="black" stroke-opacity="0.1"/>
</g>
</g>
<defs>
<clipPath id="clip0_126_3489">
<rect width="21" height="15" fill="white"/>
</clipPath>
</defs>
</svg>
