<svg width="21" height="15" viewBox="0 0 21 15" fill="none" xmlns="http://www.w3.org/2000/svg">
<g clip-path="url(#clip0_126_3621)">
<mask id="mask0_126_3621" style="mask-type:alpha" maskUnits="userSpaceOnUse" x="0" y="0" width="21" height="15">
<path d="M19 0H2C0.89543 0 0 0.89543 0 2V13C0 14.1046 0.89543 15 2 15H19C20.1046 15 21 14.1046 21 13V2C21 0.89543 20.1046 0 19 0Z" fill="white"/>
</mask>
<g mask="url(#mask0_126_3621)">
<path d="M19 0H2C0.89543 0 0 0.89543 0 2V13C0 14.1046 0.89543 15 2 15H19C20.1046 15 21 14.1046 21 13V2C21 0.89543 20.1046 0 19 0Z" fill="#00773C"/>
<path fill-rule="evenodd" clip-rule="evenodd" d="M16.0018 10.0002V9.00025H5.00181L7.00181 10.0002H13.0018C13.0018 10.5522 13.6738 11.0002 14.5018 11.0002C15.3298 11.0002 16.0018 10.5522 16.0018 10.0002ZM8.73181 3.90625C8.71981 3.90625 8.70181 3.91225 8.67881 3.92625C8.62481 3.96225 8.51881 4.07325 8.51481 4.20125C8.51181 4.27425 8.49781 4.27425 8.54481 4.32125C8.57881 4.36925 8.61481 4.36525 8.68281 4.32825C8.72281 4.29825 8.73581 4.28125 8.74981 4.23225C8.76581 4.15225 8.66281 4.27225 8.64981 4.18025C8.62681 4.09625 8.69281 4.06025 8.75481 3.98025C8.75681 3.94025 8.75681 3.91025 8.73181 3.90825V3.90625ZM9.73481 3.91125C9.71481 3.91525 9.69181 3.94125 9.65881 3.99925C9.63581 4.06125 9.53481 4.15525 9.60881 4.34925C9.66681 4.47225 9.69181 4.67125 9.66481 4.89425C9.62281 4.95725 9.61481 4.97925 9.55981 5.04225C9.48381 5.12525 9.39981 5.10425 9.33781 5.07225C9.27781 5.03225 9.23181 5.01225 9.20481 4.88625C9.20981 4.68625 9.22181 4.35425 9.18481 4.28425C9.13081 4.17625 9.04081 4.21425 9.00281 4.24725C8.81981 4.41725 8.72881 4.70025 8.67281 4.92725C8.62281 5.09125 8.56781 5.04325 8.52981 4.97725C8.43681 4.88925 8.42981 4.20725 8.31781 4.32025C8.13781 4.83425 8.42081 5.39725 8.61781 5.34225C8.75781 5.40225 8.84781 5.13225 8.90581 4.83725C8.94581 4.75425 8.97581 4.74425 8.99581 4.78725C8.99081 5.17925 9.02581 5.26725 9.12581 5.38525C9.34981 5.55925 9.53581 5.40725 9.55081 5.39325L9.72581 5.21925C9.76581 5.17925 9.81581 5.17525 9.87081 5.21125C9.92481 5.26125 9.91781 5.34425 10.0308 5.40125C10.1288 5.44125 10.3338 5.41125 10.3808 5.32825C10.4458 5.21825 10.4608 5.18025 10.4908 5.13825C10.5368 5.07825 10.6158 5.10525 10.6158 5.12425C10.6088 5.15925 10.5628 5.19425 10.5938 5.25425C10.6488 5.29425 10.6618 5.26825 10.6938 5.25925C10.8078 5.20525 10.8938 4.95725 10.8938 4.95725C10.8988 4.86525 10.8468 4.87225 10.8138 4.89125C10.7688 4.91825 10.7668 4.92725 10.7238 4.95425C10.6668 4.96225 10.5588 4.99925 10.5058 4.91625C10.4508 4.81625 10.4508 4.67825 10.4088 4.57625C10.4088 4.57025 10.3358 4.41925 10.4028 4.41025C10.4358 4.41625 10.5098 4.43525 10.5208 4.37425C10.5568 4.31425 10.4438 4.14425 10.3668 4.06025C10.3008 3.98725 10.2088 3.97825 10.1198 4.05225C10.0568 4.11025 10.0668 4.17425 10.0538 4.23525C10.0388 4.30525 10.0418 4.39225 10.1138 4.48525C10.1758 4.60725 10.2888 4.76525 10.2508 4.98725C10.2508 4.98725 10.1858 5.09325 10.0708 5.07925C10.0208 5.06925 9.94281 5.04925 9.90081 4.73925C9.87081 4.50625 9.90881 4.17925 9.81081 4.02625C9.78781 3.96925 9.76881 3.91325 9.73681 3.91625L9.73481 3.91125ZM9.41681 3.93725C9.38681 3.94025 9.35381 3.97525 9.32681 4.04225C9.30381 4.09425 9.27481 4.36225 9.27981 4.36225C9.25981 4.44225 9.36281 4.47625 9.40981 4.37425C9.47981 4.18425 9.47981 4.10425 9.48381 4.02625C9.47381 3.96625 9.44681 3.93625 9.41681 3.93825V3.93725ZM10.5898 3.95725C10.5598 3.96125 10.5348 3.97925 10.5258 4.02525C10.5128 4.13125 10.5198 4.19025 10.5378 4.27925C10.5508 4.33925 10.6378 4.43725 10.6798 4.49525C10.8828 4.76825 11.0798 5.04225 11.2678 5.32525C11.2978 5.53725 11.3178 5.74325 11.3328 5.94925C11.3648 6.39925 11.3728 6.95925 11.3458 7.43425C11.4298 7.43725 11.5658 7.29725 11.6128 7.09425C11.6428 6.81025 11.6028 6.23425 11.5988 6.06625L11.5888 5.82825C11.8088 6.18825 12.0208 6.56825 12.2288 6.98425C12.3058 6.94825 12.2888 6.51925 12.2448 6.45925C12.0768 6.09925 11.8448 5.74325 11.7718 5.60625C11.7448 5.55625 11.6538 5.41925 11.5468 5.26025C11.5268 5.03225 11.5048 4.84025 11.4908 4.78225C11.4558 4.54225 11.5888 4.80925 11.5708 4.67025C11.5268 4.43025 11.3948 4.26825 11.2388 4.04825C11.1888 3.97825 11.1888 3.96225 11.1118 4.06625C11.0668 4.17125 11.0668 4.25925 11.0818 4.34125C11.0598 4.31125 11.0348 4.27725 10.9988 4.23325L10.7438 4.01725C10.7088 3.99225 10.6408 3.95425 10.5898 3.95725ZM14.0658 3.99425C14.0508 3.99225 14.0358 3.99925 14.0158 4.02625C13.9808 4.05625 13.9438 4.11325 13.9458 4.18625C13.9528 4.31125 13.9758 4.44025 13.9838 4.56625L13.9938 4.61625C13.9798 4.60025 13.9678 4.58625 13.9608 4.58025C13.7138 4.32025 14.0738 4.53625 13.9128 4.33725C13.7778 4.18725 13.7378 4.14125 13.6228 4.05125C13.5628 4.01525 13.5288 3.94325 13.5098 4.06525C13.5018 4.17225 13.4938 4.29725 13.4998 4.38725C13.4998 4.43725 13.5528 4.53225 13.5978 4.58725C13.7618 4.79025 13.9298 5.00525 14.0978 5.22925C14.1338 5.68625 14.1428 6.10525 14.1778 6.56325C14.1738 6.75925 14.1138 7.01925 14.0578 7.04325C14.0578 7.04325 13.9698 7.09325 13.9118 7.03825C13.8688 7.02125 13.6998 6.75525 13.6998 6.75525C13.6128 6.67525 13.5548 6.69825 13.4938 6.75525C13.3238 6.91925 13.2458 7.22725 13.1308 7.43925C13.1008 7.48625 13.0178 7.52725 12.9248 7.43525C12.6878 7.11125 12.8248 6.65025 12.7968 6.76925C12.5868 7.00725 12.6788 7.40125 12.7268 7.48625C12.7968 7.62625 12.8528 7.71625 12.9868 7.78325C13.1118 7.87325 13.2068 7.81825 13.2608 7.75325C13.3848 7.62525 13.3868 7.29625 13.4448 7.23125C13.4848 7.11125 13.5878 7.13125 13.6378 7.18525C13.6878 7.25525 13.7438 7.30025 13.8148 7.33825C13.9308 7.44025 14.0688 7.45825 14.2048 7.36525C14.2978 7.31325 14.3588 7.24525 14.4128 7.11125C14.4728 6.95525 14.4428 6.13525 14.4298 5.67925L14.6898 6.05525C14.7258 6.45525 14.7428 6.85025 14.7298 7.22825C14.7218 7.30325 14.9928 7.00425 14.9898 6.86225C14.9898 6.73925 14.9918 6.62625 14.9898 6.52225C15.1228 6.73225 15.2498 6.94525 15.3698 7.16225C15.4448 7.12225 15.4198 6.69925 15.3728 6.64225C15.2468 6.43025 15.0848 6.20225 14.9598 6.02425C14.9348 5.80125 14.9018 5.53825 14.8858 5.45725C14.8628 5.33125 14.8388 5.14225 14.8028 4.99325C14.7928 4.93625 14.7628 4.75025 14.7728 4.73325C14.7868 4.69025 14.8428 4.73325 14.8698 4.68525C14.9098 4.64025 14.7278 4.16525 14.6348 4.03125C14.6018 3.97125 14.5408 3.99125 14.4668 4.09125C14.3968 4.15525 14.4228 4.30325 14.4488 4.44425C14.5168 4.80425 14.5788 5.16825 14.6268 5.53425C14.5368 5.39925 14.4268 5.23725 14.3188 5.08225L14.3048 5.01225C14.3048 5.00425 14.2908 4.71725 14.2778 4.64925C14.2748 4.62125 14.2678 4.61325 14.2978 4.61725C14.3278 4.64325 14.3318 4.64425 14.3508 4.65325C14.3828 4.65725 14.4108 4.60525 14.3908 4.55625L14.1008 4.02225C14.0908 4.00925 14.0768 3.99725 14.0608 3.99525L14.0658 3.99425ZM5.09581 4.00425C5.04081 4.00225 4.98281 4.03425 5.00581 4.09925C4.99181 4.13425 5.10981 4.25225 5.13081 4.31725C5.14781 4.36425 5.11081 4.51225 5.15081 4.52725C5.18581 4.54225 5.23481 4.42325 5.25281 4.31425C5.26281 4.25425 5.25581 4.04825 5.11581 4.00625C5.10881 4.00425 5.10181 4.00425 5.09381 4.00325L5.09581 4.00425ZM15.3158 4.00425C15.3028 4.00625 15.2878 4.02425 15.2658 4.07425C15.2108 4.16425 15.1918 4.32425 15.2138 4.46425C15.3438 5.35425 15.4438 6.21625 15.4638 7.00425C15.4518 7.08025 15.4478 7.12025 15.4138 7.21425C15.3358 7.31425 15.2498 7.43825 15.1688 7.49825C15.0888 7.55825 14.9168 7.61625 14.8608 7.66025C14.6808 7.76225 14.6808 7.88025 14.8248 7.88525C15.0728 7.85525 15.3668 7.83525 15.5688 7.53025C15.6228 7.44525 15.6868 7.21325 15.6888 7.07025C15.7088 6.24025 15.6788 5.42525 15.5538 4.82425C15.5458 4.76425 15.5198 4.63125 15.5298 4.61425C15.5448 4.57225 15.6258 4.61725 15.6548 4.57025C15.6978 4.52625 15.4448 4.20325 15.3568 4.06525C15.3388 4.03125 15.3268 4.00225 15.3128 4.00525L15.3158 4.00425ZM12.7128 4.01825C12.7028 4.02025 12.6888 4.03625 12.6608 4.07325C12.5908 4.29925 12.5668 4.48325 12.5938 4.62525C12.7738 5.55525 12.9538 6.40025 12.9258 7.28525C13.0098 7.28525 13.1078 7.09225 13.1498 6.90025C13.1728 6.63525 13.1338 6.47425 13.1278 6.32025C13.1208 6.16425 12.9518 4.90425 12.9178 4.78725C12.8758 4.56525 13.0818 4.75725 13.0598 4.62925C12.9878 4.46525 12.8098 4.22925 12.7558 4.08625C12.7358 4.04825 12.7318 4.01325 12.7158 4.01625L12.7128 4.01825ZM6.37881 4.03625C6.35881 4.04025 6.33581 4.05825 6.32881 4.08625C6.32381 4.10625 6.33681 4.13925 6.31881 4.14925C6.30881 4.15925 6.27081 4.15225 6.27281 4.09925C6.27281 4.08125 6.25981 4.06325 6.25281 4.05225C6.24481 4.04825 6.23981 4.04725 6.22581 4.04725C6.20881 4.04725 6.20881 4.05225 6.19981 4.06725C6.19581 4.08125 6.18981 4.09525 6.18981 4.11125C6.18781 4.13125 6.17981 4.13625 6.16681 4.13925C6.15081 4.13925 6.15381 4.14125 6.14181 4.13225C6.13181 4.12525 6.12381 4.12225 6.12381 4.10825C6.12381 4.09325 6.11981 4.06825 6.11581 4.06025C6.10881 4.05025 6.09781 4.04625 6.08581 4.04325C6.01981 4.04325 6.01581 4.12125 6.01881 4.14925C6.01381 4.15525 6.01181 4.28925 6.10181 4.32725C6.22181 4.38525 6.44981 4.36025 6.44181 4.16525C6.44181 4.14825 6.43681 4.09025 6.43481 4.07525C6.42281 4.04525 6.39981 4.03525 6.37781 4.03825L6.37881 4.03625ZM8.00481 4.03825C7.96281 4.04025 7.92481 4.05225 7.89481 4.06825C7.81481 4.14525 7.79481 4.26825 7.85881 4.34525C7.91881 4.37525 7.98181 4.43525 7.94081 4.47025C7.76681 4.65525 7.31381 4.96625 7.29081 5.02325V5.02925H7.29481V5.03125C7.31781 5.04625 7.60181 5.04625 7.63281 5.03125H7.63481C7.73281 4.99425 8.19481 4.46625 8.19481 4.46625C8.17081 4.44625 8.14881 4.43025 8.12481 4.40925C8.09881 4.38725 8.10181 4.36525 8.12481 4.34325C8.23881 4.27725 8.20281 4.13025 8.14281 4.06325C8.09281 4.04125 8.04681 4.03325 8.00481 4.03625V4.03825ZM12.2548 4.03825C12.2428 4.04125 12.2278 4.05825 12.2048 4.10825C12.1498 4.19825 12.1128 4.35325 12.1178 4.49825C12.2358 5.31825 12.2718 6.03525 12.3498 6.85525C12.3558 6.93525 12.3438 7.04925 12.2918 7.09525C12.0958 7.29925 11.8148 7.54925 11.5088 7.66525C11.4758 7.70225 11.5908 7.85925 11.7388 7.85925C11.9868 7.82925 12.2048 7.69125 12.4088 7.32425C12.4618 7.23925 12.5568 7.05625 12.5588 6.91425C12.5788 6.08225 12.5188 5.43425 12.3928 4.83425C12.3858 4.77425 12.3908 4.70425 12.4008 4.68825C12.4168 4.66825 12.4708 4.68825 12.5008 4.64125C12.5428 4.59725 12.3868 4.23825 12.2988 4.10125C12.2808 4.06625 12.2708 4.03825 12.2548 4.03925V4.03825ZM5.67081 4.06525C5.63681 4.06925 5.60481 4.09525 5.58881 4.13525C5.58381 4.26525 5.58281 4.39525 5.59881 4.51725C5.65881 4.73025 5.67581 4.91725 5.70481 5.13425C5.71481 5.42625 5.53681 5.26025 5.54481 5.11625C5.58481 4.92825 5.57481 4.63325 5.53881 4.55825C5.50881 4.48325 5.47681 4.46525 5.40681 4.47825C5.35181 4.47425 5.20881 4.62825 5.16881 4.88825C5.16881 4.88825 5.13481 5.02025 5.12081 5.13825C5.10081 5.27125 5.01281 5.36625 4.95081 5.12025C4.89781 4.94025 4.86581 4.50025 4.77681 4.60225C4.75081 4.94625 4.72081 5.55225 5.01281 5.61425C5.36681 5.64825 5.17081 5.01625 5.29881 4.90125C5.32381 4.84625 5.36881 4.84525 5.37181 4.91625V5.45325C5.36781 5.62725 5.48181 5.67925 5.57181 5.71525C5.66481 5.70825 5.72581 5.71125 5.76181 5.80125L5.80681 6.73125C5.80681 6.73125 6.02081 6.79125 6.03081 6.20825C6.04081 5.86525 5.96081 5.57825 6.00781 5.51125C6.00981 5.44525 6.09381 5.44125 6.15181 5.47425C6.24481 5.53925 6.28581 5.61925 6.42981 5.58725C6.64981 5.52725 6.77981 5.42125 6.78281 5.25325C6.77281 5.09325 6.75281 4.93325 6.68281 4.77325C6.69281 4.74525 6.64281 4.67025 6.65281 4.64125C6.69081 4.70125 6.75081 4.69725 6.76281 4.64125C6.72681 4.51825 6.66881 4.40125 6.57481 4.35125C6.49781 4.28125 6.38481 4.29625 6.34281 4.43825C6.32281 4.60225 6.40281 4.79625 6.52281 4.95525C6.54681 5.01725 6.58281 5.12025 6.56681 5.21325C6.50381 5.24925 6.44081 5.23325 6.38681 5.17825C6.38681 5.17825 6.21381 5.04825 6.21381 5.01825C6.26081 4.72325 6.22381 4.68825 6.19881 4.60825C6.18081 4.49425 6.12681 4.45825 6.08381 4.38025C6.03981 4.33325 5.98081 4.33325 5.95381 4.38025C5.87581 4.51325 5.91181 4.80025 5.96781 4.92725C6.00781 5.04525 6.06981 5.11925 6.04081 5.11925C6.01681 5.18425 5.96681 5.16925 5.93081 5.09225C5.88081 4.93225 5.86881 4.69625 5.86881 4.58925C5.85381 4.45725 5.83681 4.17425 5.74881 4.10225C5.72581 4.07025 5.69881 4.05925 5.67181 4.06225L5.67081 4.06525ZM6.91281 4.06525C6.89581 4.06925 6.87581 4.07925 6.85281 4.08525C6.77781 4.10825 6.70781 4.17325 6.72981 4.29925C6.81981 4.83925 6.87681 5.25225 6.96581 5.79225C6.97881 5.85625 6.92581 5.93925 6.85781 5.93225C6.74181 5.85225 6.71281 5.69225 6.51481 5.70025C6.37081 5.70025 6.20681 5.85825 6.18681 6.00825C6.16281 6.12825 6.15481 6.25825 6.18681 6.36225C6.28681 6.48225 6.40881 6.47025 6.51481 6.44225C6.60181 6.40725 6.67481 6.32225 6.70481 6.34225C6.72481 6.37525 6.70281 6.65625 6.29481 6.87225C6.04281 6.98625 5.84281 7.01225 5.73481 6.80825C5.66881 6.68025 5.74081 6.19225 5.57681 6.30425C5.09081 7.55625 6.71381 7.73025 6.89481 6.35625C6.90681 6.31625 6.94181 6.27825 6.96781 6.28825C6.97781 6.29325 6.98781 6.30825 6.99181 6.33625C6.95381 7.58025 5.73581 7.66625 5.52981 7.27425C5.47781 7.18225 5.46281 6.97625 5.45781 6.85425C5.44781 6.77925 5.42981 6.73625 5.40781 6.71925C5.35781 6.68225 5.29181 6.77925 5.27781 6.94625C5.25781 7.08125 5.26281 7.11825 5.26281 7.24825C5.32881 8.23125 6.89581 7.80825 7.15081 6.99825C7.27681 6.57825 7.14781 6.26125 7.19081 6.22225L7.19381 6.22025H7.19681L7.20181 6.21825C7.35781 6.38625 7.57581 6.23825 7.62381 6.18125C7.64381 6.15125 7.69581 6.13125 7.73181 6.17125C7.85181 6.25725 8.06581 6.21625 8.10981 6.06125C8.13581 5.91125 8.15781 5.75725 8.16281 5.59625C8.08281 5.62125 8.01881 5.63925 7.99281 5.66625C7.98681 5.67325 7.98281 5.68125 7.98081 5.68925L7.96081 5.82225C7.96081 5.82725 7.95881 5.83025 7.95681 5.83225C7.95381 5.83925 7.94681 5.84425 7.94281 5.84725C7.91481 5.86225 7.86581 5.85425 7.86281 5.81325C7.82581 5.64325 7.67081 5.62125 7.57681 5.88625C7.51381 5.93625 7.39681 5.94625 7.38681 5.87025C7.40181 5.69225 7.32981 5.66825 7.18681 5.75225L7.04881 4.71225C7.10881 4.70925 7.16281 4.75225 7.21881 4.68425C7.15881 4.50025 7.03381 4.12625 6.96281 4.09025H6.96081L6.95081 4.08025C6.95081 4.07825 6.94781 4.07725 6.94581 4.07625L6.94181 4.07025C6.93781 4.07025 6.93381 4.06825 6.93181 4.06725C6.92481 4.06525 6.91881 4.06525 6.91181 4.06525H6.91281ZM11.7548 4.06925C11.6928 4.06725 11.6248 4.10625 11.6508 4.18425C11.6348 4.22725 11.7838 4.37125 11.8078 4.44925C11.8508 4.56925 11.7748 4.68625 11.8198 4.70325C11.8618 4.72125 11.9198 4.57825 11.9398 4.44525C11.9658 4.33725 11.8898 4.11725 11.7798 4.07225L11.7548 4.07025V4.06925ZM7.98181 4.20025C8.00981 4.19825 8.04381 4.22425 8.06181 4.26025C8.07881 4.30025 8.06981 4.33725 8.04181 4.34425C8.01181 4.35125 7.97381 4.32625 7.95581 4.28625C7.93781 4.24625 7.94581 4.20925 7.97581 4.20225H7.98181V4.20025ZM14.9788 4.38225C14.9218 4.38025 14.8588 4.42225 14.8848 4.50725C14.8708 4.55325 15.0048 4.70925 15.0278 4.79525C15.0478 4.85525 14.9978 5.05125 15.0378 5.06925C15.0758 5.08925 15.1278 4.93325 15.1478 4.78925C15.1598 4.70925 15.1018 4.43425 15.0028 4.38525C14.9958 4.38325 14.9878 4.38125 14.9798 4.38125L14.9788 4.38225ZM11.1088 4.47825C11.1158 4.50125 11.1208 4.52425 11.1238 4.54825C11.1358 4.59825 11.1458 4.64825 11.1558 4.70025C11.1118 4.63825 11.0758 4.58825 11.0588 4.57025C10.9588 4.45025 11.0608 4.49225 11.1088 4.47825ZM12.0018 4.91625C11.9798 4.92025 11.9588 4.93925 11.9518 4.96925C11.9458 4.98725 11.9598 5.01925 11.9418 5.02925C11.9318 5.03925 11.8918 5.03325 11.8948 4.97925C11.8948 4.96125 11.8818 4.94225 11.8748 4.93225C11.8668 4.92725 11.8618 4.92525 11.8478 4.92525C11.8308 4.92525 11.8308 4.93025 11.8218 4.94525C11.8178 4.95925 11.8118 4.97325 11.8118 4.99025C11.8118 5.01025 11.8038 5.01625 11.7898 5.02025C11.7738 5.02025 11.7768 5.02025 11.7638 5.01325C11.7558 5.00325 11.7468 5.00125 11.7468 4.98725C11.7468 4.97225 11.7438 4.94925 11.7388 4.93925C11.7318 4.92925 11.7218 4.92625 11.7088 4.92225C11.6438 4.92225 11.6388 4.99825 11.6428 5.02625C11.6388 5.03225 11.6358 5.16825 11.7258 5.20625C11.8478 5.26325 12.0758 5.23625 12.0658 5.04225C12.0658 5.02525 12.0608 4.96725 12.0598 4.95225C12.0468 4.92225 12.0238 4.91225 12.0028 4.91525L12.0018 4.91625ZM7.93181 4.95625C7.91781 4.95625 7.89781 4.96025 7.87481 4.97425C7.76781 5.03225 7.72681 5.20425 7.79481 5.30425C7.85481 5.39425 7.95481 5.36125 7.96781 5.36125C8.07281 5.37525 8.13481 5.16525 8.13481 5.16525C8.13481 5.16525 8.13781 5.10525 8.01481 5.21725C7.96081 5.22725 7.95481 5.20725 7.94081 5.17725C7.92881 5.12425 7.93081 5.06725 7.95581 5.01425C7.96781 4.98125 7.95581 4.96025 7.93181 4.95825V4.95625ZM13.6848 4.98325C13.6248 4.98025 13.5618 5.01925 13.5448 5.10025C13.5448 5.14825 13.5668 5.17425 13.5628 5.21825C13.5578 5.24325 13.5328 5.25825 13.4708 5.23025C13.4808 5.22025 13.4308 5.15225 13.4308 5.15225C13.3838 5.12225 13.3208 5.15225 13.2788 5.18025C13.2558 5.22225 13.2388 5.29325 13.2648 5.36525C13.3328 5.49225 13.5678 5.70825 13.6798 5.71025C13.6818 5.59625 13.6928 5.44425 13.6998 5.35025C13.7018 5.31425 13.7098 5.27525 13.7448 5.26625C13.7788 5.25625 13.8378 5.30025 13.8378 5.26325C13.8318 5.19125 13.8178 5.08325 13.7778 5.03325C13.7558 5.00325 13.7208 4.98525 13.6858 4.98325H13.6848ZM8.92181 5.38025L8.91881 5.38325C8.91881 5.38325 8.91681 5.38325 8.91581 5.38525C8.90381 5.39525 8.88981 5.41525 8.85881 5.43525C8.80581 5.49525 8.79681 5.53825 8.79881 5.65825C8.80281 5.67125 8.89881 5.94125 8.98181 6.13025C9.03781 6.32725 9.08881 6.55325 9.05181 6.76625C8.92181 7.04825 8.66181 7.30125 8.40881 7.43925C8.27881 7.47925 8.16881 7.46525 8.13881 7.43725C8.06481 7.38725 8.06381 7.29725 8.06881 7.28325V7.28025C8.28081 7.13225 8.52381 7.01225 8.71381 6.61325C8.76981 6.46025 8.78781 6.36825 8.73181 6.13325C8.70981 6.04325 8.68181 5.97325 8.62181 5.90925H8.62381C8.65981 5.89225 8.75381 5.96125 8.76881 5.91925C8.74581 5.80525 8.66881 5.65425 8.58381 5.57625C8.50781 5.50625 8.42381 5.49925 8.35581 5.56225C8.27781 5.60625 8.26181 5.76225 8.29881 5.89825C8.34081 6.00025 8.45381 6.01825 8.53381 6.22525C8.53581 6.23925 8.56081 6.38025 8.52081 6.43825C8.48681 6.54025 8.06581 6.87225 8.03581 6.89225L8.03281 6.89425L8.03081 6.89625H8.02881H8.02681V6.89325C8.02481 6.88525 8.02681 6.86325 8.02681 6.83025C8.02381 6.76825 8.04981 6.62725 8.04681 6.60225V6.60025C7.90681 6.69025 7.85981 6.96525 7.83481 7.04725C7.48181 7.29025 7.08181 7.47125 6.85081 7.71725C6.73081 7.90725 7.67881 7.50325 7.78881 7.45425L7.79181 7.45725C7.81381 7.48025 7.81481 7.56025 7.87781 7.63325C7.97781 7.76625 8.18581 7.84825 8.38981 7.79725C8.73181 7.67425 8.92981 7.44125 9.12981 7.18225C9.15781 7.14225 9.20281 7.10825 9.24481 7.14025C9.38181 7.44825 9.77981 7.66825 10.2928 7.69025C10.4128 7.54625 10.3558 7.47525 10.3078 7.44525C10.2928 7.43525 10.0528 7.34125 10.0148 7.24825C9.99181 7.16225 10.0488 7.08525 10.1628 7.02825C10.4928 6.98825 10.8168 6.94325 11.1308 6.84225C11.1338 6.73625 11.1958 6.57925 11.2378 6.51025C11.2678 6.46325 11.2848 6.45825 11.2918 6.45225V6.45025H11.2938V6.44725V6.43725L11.2398 6.40525L10.1868 6.40125C10.1738 6.39625 10.1648 6.39125 10.1588 6.38625L10.1568 6.38325C10.1568 6.38325 10.1548 6.38325 10.1548 6.38125C10.1548 6.37925 10.1528 6.37925 10.1528 6.37925V6.38025V6.37825V6.37625V6.37425L10.1548 6.37125C10.1598 6.36525 10.1728 6.35825 10.1878 6.35125C10.4398 6.31825 10.8858 6.24525 10.9158 5.81625C10.9108 5.59225 10.8198 5.44625 10.5458 5.40625C10.3438 5.42125 10.1998 5.61625 10.2228 5.83025C10.2128 5.88725 10.2428 6.00025 10.1828 6.01325C9.79681 6.04925 9.37481 6.29125 9.36081 6.46525H9.35881H9.35681H9.35481C9.35481 6.46725 9.35281 6.46725 9.35181 6.46725H9.34781H9.34581H9.34181C9.31681 6.45925 9.28481 6.41725 9.28981 6.36025C9.27481 6.06025 9.17681 5.72025 9.02481 5.46025C8.96981 5.40525 8.94481 5.38325 8.93081 5.38025H8.92781H8.92481H8.92281H8.92181ZM9.92981 5.53825C9.90981 5.54225 9.88681 5.56025 9.87981 5.59025C9.87481 5.61025 9.88981 5.64225 9.87181 5.65225C9.86181 5.66225 9.82181 5.65625 9.82381 5.60225C9.82381 5.58525 9.81081 5.56625 9.80381 5.55525C9.79581 5.55025 9.79081 5.54925 9.77781 5.54925C9.76081 5.54925 9.75981 5.55325 9.75081 5.56725C9.74581 5.58125 9.74081 5.59725 9.74081 5.61225C9.73881 5.63225 9.73081 5.63825 9.71781 5.64025C9.70181 5.64025 9.70581 5.64325 9.69281 5.63525C9.68481 5.62725 9.67481 5.62325 9.67481 5.60925C9.67481 5.59425 9.67181 5.56925 9.66781 5.55925C9.66081 5.55225 9.64981 5.54925 9.63781 5.54525C9.57081 5.54525 9.56781 5.62025 9.57081 5.64925C9.56581 5.65425 9.56281 5.78925 9.65281 5.82725C9.77281 5.88525 10.0628 5.85125 9.99281 5.66425C9.99281 5.64725 9.98781 5.58925 9.98681 5.57425C9.97381 5.54425 9.95081 5.53425 9.92881 5.53725L9.92981 5.53825ZM13.9948 5.70525H13.9848C13.9848 5.70525 13.4228 6.10525 13.4098 6.11925C13.3538 6.16925 13.3818 6.34225 13.4098 6.32225C13.4498 6.33725 14.0148 5.95425 14.0038 5.90925C14.0288 5.91125 14.0408 5.71225 13.9938 5.70425L13.9948 5.70525ZM10.4608 5.76525C10.4828 5.76225 10.5128 5.77025 10.5408 5.78525C10.5838 5.81125 10.6108 5.84725 10.6058 5.87525V5.87925C10.6038 5.87925 10.6038 5.87925 10.6038 5.88125V5.88325C10.6038 5.88325 10.6018 5.88325 10.6018 5.88525C10.6018 5.88725 10.5988 5.88925 10.5968 5.89125C10.5768 5.91125 10.5308 5.90725 10.4868 5.88125C10.4448 5.85825 10.4198 5.82125 10.4218 5.79525V5.79225L10.4268 5.78225C10.4268 5.78225 10.4268 5.78025 10.4288 5.77925L10.4338 5.77325C10.4408 5.76825 10.4498 5.76325 10.4608 5.76325V5.76525ZM5.54281 5.86525C5.25281 5.87125 4.82581 6.24725 4.81481 6.45525L5.73481 6.01525C5.68481 5.93925 5.73181 5.87125 5.54281 5.86525ZM6.48581 5.99525C6.51381 5.99725 6.54381 6.01125 6.55981 6.05125C6.57381 6.08825 6.55981 6.12625 6.54281 6.14525V6.14825C6.52881 6.16425 6.48681 6.15825 6.45581 6.15825C6.41881 6.15625 6.40081 6.15025 6.37881 6.12025C6.36681 6.08525 6.39881 6.05225 6.41381 6.02825L6.42081 6.01825C6.43081 6.00825 6.45081 6.00025 6.47081 5.99825L6.48381 5.99625L6.48581 5.99525ZM13.8858 6.11225C13.8328 6.11825 13.7838 6.16725 13.8058 6.24525C13.7918 6.29125 13.8758 6.45225 13.8988 6.53725C13.9188 6.59725 13.8728 6.77025 13.9138 6.78725C13.9518 6.80725 14.0508 6.68725 14.0478 6.53325C14.0578 6.45325 14.0198 6.16325 13.9208 6.11525C13.9088 6.11225 13.8968 6.11125 13.8848 6.11225H13.8858ZM7.60181 6.39625C7.55581 6.39925 7.51481 6.42325 7.53381 6.48825C7.53081 6.53425 7.66381 6.59125 7.67081 6.69825C7.68881 6.74425 7.64081 6.88825 7.68081 6.90025C7.71681 6.91525 7.76681 6.80025 7.78581 6.69625C7.79581 6.63825 7.73981 6.43625 7.64581 6.39925C7.63081 6.39525 7.61581 6.39425 7.60081 6.39525L7.60181 6.39625ZM9.48181 6.65225H9.49381C9.61181 6.68425 9.78381 6.68825 9.93381 6.70225C10.0568 6.71225 10.1168 6.80625 10.0038 6.84725C9.88981 6.88525 9.78081 6.91725 9.78081 7.07925C9.79481 7.15925 9.79081 7.20125 9.77881 7.21925C9.77881 7.22225 9.77581 7.22425 9.77481 7.22525C9.77481 7.22525 9.77481 7.22725 9.77281 7.22725V7.22925H9.76981L9.76281 7.23225H9.75781C9.73081 7.23725 9.69181 7.21225 9.66281 7.19625C9.59281 7.14625 9.39781 7.02625 9.36981 6.76625C9.36581 6.70625 9.40981 6.65625 9.47981 6.65125L9.48181 6.65225ZM4.88781 6.85225C4.88081 6.85225 4.86781 6.87425 4.84781 6.89925C4.67381 7.17425 4.65781 7.58525 4.75381 7.70925C4.80381 7.76625 4.88781 7.79225 4.94981 7.77425C5.05981 7.72725 5.10681 7.50625 5.07981 7.42625C5.04481 7.36925 5.01581 7.36025 4.97981 7.40825C4.90281 7.56325 4.86981 7.45625 4.86481 7.36825C4.85281 7.20525 4.86881 7.05325 4.88681 6.93325C4.89681 6.87325 4.89681 6.85025 4.88681 6.85025L4.88781 6.85225ZM10.7848 7.21425C10.7718 7.21425 10.7588 7.21625 10.7448 7.22425C10.7418 7.22425 10.6208 7.30425 10.5818 7.36225C10.5578 7.38025 10.5618 7.39525 10.5678 7.42725C10.5858 7.47025 10.6178 7.45725 10.6558 7.43725C10.7058 7.42925 10.7288 7.46225 10.7258 7.52125C10.7028 7.59625 10.7358 7.62325 10.7358 7.62825C10.7358 7.63225 10.7828 7.67325 10.8388 7.64125C10.9558 7.59625 11.0288 7.55125 11.1938 7.51625C11.2368 7.51625 11.2338 7.40025 11.1658 7.39625C11.0758 7.40025 10.9958 7.40625 10.9058 7.47625C10.8508 7.48825 10.8418 7.45425 10.8288 7.42425C10.8148 7.35025 10.8608 7.29825 10.8508 7.24225C10.8528 7.24525 10.8228 7.21825 10.7838 7.21625L10.7848 7.21425ZM14.5608 7.35425L14.4808 7.36225C14.4448 7.36925 14.4328 7.38525 14.4258 7.42925C14.4288 7.49425 14.4688 7.49125 14.5108 7.51725C14.5348 7.54725 14.5508 7.57525 14.5088 7.62725C14.4688 7.66225 14.4418 7.68225 14.4018 7.71725C14.3848 7.74925 14.3718 7.79725 14.4298 7.81325C14.5348 7.84325 14.7778 7.68525 14.7778 7.68325C14.8178 7.65325 14.8038 7.59625 14.8008 7.59625C14.7768 7.57025 14.7248 7.58625 14.6908 7.58125C14.6738 7.58125 14.6208 7.57325 14.6448 7.52525C14.6668 7.49525 14.6748 7.47825 14.6898 7.44125C14.7048 7.40525 14.6898 7.38125 14.6318 7.36125C14.6018 7.35525 14.5818 7.35325 14.5588 7.35425H14.5608ZM13.1078 11.2142C13.3778 11.2272 13.6298 11.2172 13.8978 11.2302C13.9418 11.2662 13.9208 11.3503 13.8928 11.3643L13.8878 11.3663H13.8848H13.8808L13.6548 11.3602V11.3472C13.6328 11.2853 13.4828 11.2892 13.4468 11.3372V11.3403C13.4448 11.3403 13.4438 11.3432 13.4438 11.3442L13.4418 11.3492V11.3612C13.3218 11.3762 13.2168 11.3572 13.0988 11.3532C13.0638 11.3102 13.0688 11.2333 13.1088 11.2133L13.1078 11.2142Z" fill="white"/>
<path d="M19 0.5H2C1.17157 0.5 0.5 1.17157 0.5 2V13C0.5 13.8284 1.17157 14.5 2 14.5H19C19.8284 14.5 20.5 13.8284 20.5 13V2C20.5 1.17157 19.8284 0.5 19 0.5Z" stroke="black" stroke-opacity="0.1"/>
</g>
</g>
<defs>
<clipPath id="clip0_126_3621">
<rect width="21" height="15" fill="white"/>
</clipPath>
</defs>
</svg>
