<svg width="21" height="15" viewBox="0 0 21 15" fill="none" xmlns="http://www.w3.org/2000/svg">
<g clip-path="url(#clip0_126_3627)">
<mask id="mask0_126_3627" style="mask-type:alpha" maskUnits="userSpaceOnUse" x="0" y="0" width="21" height="15">
<path d="M19 0H2C0.89543 0 0 0.89543 0 2V13C0 14.1046 0.89543 15 2 15H19C20.1046 15 21 14.1046 21 13V2C21 0.89543 20.1046 0 19 0Z" fill="white"/>
</mask>
<g mask="url(#mask0_126_3627)">
<path d="M19 0H2C0.89543 0 0 0.89543 0 2V13C0 14.1046 0.89543 15 2 15H19C20.1046 15 21 14.1046 21 13V2C21 0.89543 20.1046 0 19 0Z" fill="#025BC2"/>
<path fill-rule="evenodd" clip-rule="evenodd" d="M0 15H21V0L0 15Z" fill="#FCD715"/>
<path fill-rule="evenodd" clip-rule="evenodd" d="M2 15H21V2L2 15Z" fill="#24663A"/>
<path fill-rule="evenodd" clip-rule="evenodd" d="M5.125 5.658L4.507 6L4.625 5.276L4.125 4.764L4.815 4.658L5.125 4L5.435 4.658L6.125 4.764L5.625 5.276L5.743 6L5.125 5.658ZM3.125 3.658L2.507 4L2.625 3.276L2.125 2.764L2.815 2.658L3.125 2L3.435 2.658L4.125 2.764L3.625 3.276L3.743 4L3.125 3.658ZM7.125 3.658L6.507 4L6.625 3.276L6.125 2.764L6.815 2.658L7.125 2L7.435 2.658L8.125 2.764L7.625 3.276L7.743 4L7.125 3.658ZM7.125 7.658L6.507 8L6.625 7.276L6.125 6.764L6.815 6.658L7.125 6L7.435 6.658L8.125 6.764L7.625 7.276L7.743 8L7.125 7.658ZM3.125 7.658L2.507 8L2.625 7.276L2.125 6.764L2.815 6.658L3.125 6L3.435 6.658L4.125 6.764L3.625 7.276L3.743 8L3.125 7.658Z" fill="white"/>
<path d="M19 0.5H2C1.17157 0.5 0.5 1.17157 0.5 2V13C0.5 13.8284 1.17157 14.5 2 14.5H19C19.8284 14.5 20.5 13.8284 20.5 13V2C20.5 1.17157 19.8284 0.5 19 0.5Z" stroke="black" stroke-opacity="0.1"/>
</g>
</g>
<defs>
<clipPath id="clip0_126_3627">
<rect width="21" height="15" fill="white"/>
</clipPath>
</defs>
</svg>
