<svg width="21" height="15" viewBox="0 0 21 15" fill="none" xmlns="http://www.w3.org/2000/svg">
<g clip-path="url(#clip0_126_3761)">
<mask id="mask0_126_3761" style="mask-type:alpha" maskUnits="userSpaceOnUse" x="0" y="0" width="21" height="15">
<path d="M19 0H2C0.89543 0 0 0.89543 0 2V13C0 14.1046 0.89543 15 2 15H19C20.1046 15 21 14.1046 21 13V2C21 0.89543 20.1046 0 19 0Z" fill="white"/>
</mask>
<g mask="url(#mask0_126_3761)">
<path d="M19 0H2C0.89543 0 0 0.89543 0 2V13C0 14.1046 0.89543 15 2 15H19C20.1046 15 21 14.1046 21 13V2C21 0.89543 20.1046 0 19 0Z" fill="white"/>
<path fill-rule="evenodd" clip-rule="evenodd" d="M0 10H21V15H0V10Z" fill="black"/>
<path fill-rule="evenodd" clip-rule="evenodd" d="M0 0H21V5H0V0Z" fill="#D4112A"/>
<path fill-rule="evenodd" clip-rule="evenodd" d="M6.503 8.75L5.033 9.523L5.313 7.886L4.125 6.726L5.768 6.489L6.503 5L7.238 6.49L8.881 6.727L7.691 7.887L7.971 9.523L6.503 8.75ZM14.503 8.75L13.033 9.523L13.313 7.886L12.125 6.726L13.768 6.489L14.503 5L15.238 6.49L16.881 6.727L15.691 7.887L15.971 9.523" fill="#048849"/>
<path d="M19 0.5H2C1.17157 0.5 0.5 1.17157 0.5 2V13C0.5 13.8284 1.17157 14.5 2 14.5H19C19.8284 14.5 20.5 13.8284 20.5 13V2C20.5 1.17157 19.8284 0.5 19 0.5Z" stroke="black" stroke-opacity="0.1"/>
</g>
</g>
<defs>
<clipPath id="clip0_126_3761">
<rect width="21" height="15" fill="white"/>
</clipPath>
</defs>
</svg>
