<svg width="101" height="100" viewBox="0 0 101 100" fill="none" xmlns="http://www.w3.org/2000/svg">
<rect x="0.832031" width="100" height="100" rx="16" fill="url(#paint0_linear_6399_131285)"/>
<path d="M72.9404 51.5143L48.9298 75.525C42.6903 81.7971 34.2947 81.1766 28.9373 75.7537C23.5471 70.3964 22.9264 62.0661 29.1659 55.7938L61.9315 23.0609C65.6885 19.3041 71.2093 18.7814 74.8024 22.3422C78.3633 25.9683 77.8406 31.4565 74.1166 35.2132L42.1023 67.2273C40.5016 68.8936 38.5415 68.4035 37.4308 67.2929C36.3201 66.1493 35.8628 64.2547 37.4635 62.5888L59.8408 40.2767C60.8208 39.264 60.8862 37.8266 59.9388 36.8793C58.9914 35.9646 57.5541 36.0299 56.574 37.0099L34.1314 59.4527C30.7993 62.7845 30.93 67.8808 33.8701 70.8208C37.0715 74.0221 41.9063 73.9569 45.2711 70.5921L77.4158 38.4473C83.5249 32.3385 83.2636 24.3022 77.9385 18.9774C72.7447 13.7833 64.5775 13.3913 58.4688 19.5001L25.5398 52.4617C17.4709 60.5307 18.0916 72.0623 25.3765 79.3472C32.6613 86.5995 44.193 87.2201 52.2619 79.1837L76.4361 55.0098C77.3832 54.0624 77.3832 52.331 76.4035 51.449C75.456 50.4363 73.9205 50.567 72.9404 51.5143Z" fill="white"/>
<defs>
<linearGradient id="paint0_linear_6399_131285" x1="50.832" y1="0" x2="50.832" y2="100" gradientUnits="userSpaceOnUse">
<stop stop-color="#9D19CB"/>
<stop offset="1" stop-color="#FF6CF0"/>
</linearGradient>
</defs>
</svg>
