<svg width="101" height="100" viewBox="0 0 101 100" fill="none" xmlns="http://www.w3.org/2000/svg">
<rect x="0.832031" width="100" height="100" rx="16" fill="url(#paint0_linear_6399_131291)"/>
<path d="M27.7712 84.9999H73.893C81.8777 84.9999 85.832 81.0455 85.832 73.2132V26.7871C85.832 18.9544 81.8777 15 73.893 15H27.7712C19.8244 15 15.832 18.9164 15.832 26.7871V73.2132C15.832 81.0839 19.8244 84.9999 27.7712 84.9999ZM46.5925 68.536C45.2997 68.536 44.2351 68.0036 43.2465 66.673L33.7028 54.962C33.1324 54.2015 32.7902 53.3651 32.7902 52.4905C32.7902 50.7795 34.121 49.3726 35.8701 49.3726C36.9347 49.3726 37.7712 49.7149 38.7218 50.9696L46.4404 60.9316L62.6762 34.8479C63.3986 33.7073 64.3872 33.0989 65.4138 33.0989C67.0486 33.0989 68.608 34.2396 68.608 36.0266C68.608 36.8631 68.1515 37.7377 67.657 38.5361L49.7864 66.673C48.988 67.9277 47.8853 68.536 46.5925 68.536Z" fill="white"/>
<defs>
<linearGradient id="paint0_linear_6399_131291" x1="50.832" y1="0" x2="50.832" y2="100" gradientUnits="userSpaceOnUse">
<stop stop-color="#9D19CB"/>
<stop offset="1" stop-color="#FF6CF0"/>
</linearGradient>
</defs>
</svg>
