<svg width="100" height="100" viewBox="0 0 100 100" fill="none" xmlns="http://www.w3.org/2000/svg">
<rect width="100" height="100" rx="16" fill="url(#paint0_linear_10492_29379)"/>
<path d="M26.0286 82.3311H74.0066C81.3472 82.3311 85 78.6783 85 71.4433V28.558C85 21.3227 81.3472 17.6699 74.0066 17.6699H26.0286C18.6879 17.6699 15 21.2876 15 28.558V71.4433C15 78.7138 18.6879 82.3311 26.0286 82.3311ZM25.5018 76.6764C22.3758 76.6764 20.6548 75.0255 20.6548 71.7594V38.6383C20.6548 35.407 22.3758 33.7211 25.5018 33.7211H74.4633C77.5892 33.7211 79.3453 35.407 79.3453 38.6383V71.7594C79.3453 75.0255 77.5892 76.6764 74.4633 76.6764H25.5018ZM43.1686 46.3302H45.2409C46.4702 46.3302 46.8565 45.979 46.8565 44.7497V42.6774C46.8565 41.4482 46.4702 41.0618 45.2409 41.0618H43.1686C41.9393 41.0618 41.5178 41.4482 41.5178 42.6774V44.7497C41.5178 45.979 41.9393 46.3302 43.1686 46.3302ZM54.8295 46.3302H56.9017C58.131 46.3302 58.5525 45.979 58.5525 44.7497V42.6774C58.5525 41.4482 58.131 41.0618 56.9017 41.0618H54.8295C53.6001 41.0618 53.1787 41.4482 53.1787 42.6774V44.7497C53.1787 45.979 53.6001 46.3302 54.8295 46.3302ZM66.4901 46.3302H68.5627C69.7918 46.3302 70.2131 45.979 70.2131 44.7497V42.6774C70.2131 41.4482 69.7918 41.0618 68.5627 41.0618H66.4901C65.261 41.0618 64.8748 41.4482 64.8748 42.6774V44.7497C64.8748 45.979 65.261 46.3302 66.4901 46.3302ZM31.5078 57.8154H33.5449C34.8093 57.8154 35.1957 57.4642 35.1957 56.2349V54.1627C35.1957 52.9334 34.8093 52.5821 33.5449 52.5821H31.5078C30.2433 52.5821 29.857 52.9334 29.857 54.1627V56.2349C29.857 57.4642 30.2433 57.8154 31.5078 57.8154ZM43.1686 57.8154H45.2409C46.4702 57.8154 46.8565 57.4642 46.8565 56.2349V54.1627C46.8565 52.9334 46.4702 52.5821 45.2409 52.5821H43.1686C41.9393 52.5821 41.5178 52.9334 41.5178 54.1627V56.2349C41.5178 57.4642 41.9393 57.8154 43.1686 57.8154ZM54.8295 57.8154H56.9017C58.131 57.8154 58.5525 57.4642 58.5525 56.2349V54.1627C58.5525 52.9334 58.131 52.5821 56.9017 52.5821H54.8295C53.6001 52.5821 53.1787 52.9334 53.1787 54.1627V56.2349C53.1787 57.4642 53.6001 57.8154 54.8295 57.8154ZM66.4901 57.8154H68.5627C69.7918 57.8154 70.2131 57.4642 70.2131 56.2349V54.1627C70.2131 52.9334 69.7918 52.5821 68.5627 52.5821H66.4901C65.261 52.5821 64.8748 52.9334 64.8748 54.1627V56.2349C64.8748 57.4642 65.261 57.8154 66.4901 57.8154ZM31.5078 69.3357H33.5449C34.8093 69.3357 35.1957 68.9496 35.1957 67.72V65.6479C35.1957 64.4187 34.8093 64.0672 33.5449 64.0672H31.5078C30.2433 64.0672 29.857 64.4187 29.857 65.6479V67.72C29.857 68.9496 30.2433 69.3357 31.5078 69.3357ZM43.1686 69.3357H45.2409C46.4702 69.3357 46.8565 68.9496 46.8565 67.72V65.6479C46.8565 64.4187 46.4702 64.0672 45.2409 64.0672H43.1686C41.9393 64.0672 41.5178 64.4187 41.5178 65.6479V67.72C41.5178 68.9496 41.9393 69.3357 43.1686 69.3357ZM54.8295 69.3357H56.9017C58.131 69.3357 58.5525 68.9496 58.5525 67.72V65.6479C58.5525 64.4187 58.131 64.0672 56.9017 64.0672H54.8295C53.6001 64.0672 53.1787 64.4187 53.1787 65.6479V67.72C53.1787 68.9496 53.6001 69.3357 54.8295 69.3357Z" fill="white"/>
<defs>
<linearGradient id="paint0_linear_10492_29379" x1="50" y1="0" x2="50" y2="100" gradientUnits="userSpaceOnUse">
<stop stop-color="#F4BF00"/>
<stop offset="1" stop-color="#FFE55A"/>
</linearGradient>
</defs>
</svg>
