<svg width="100" height="100" viewBox="0 0 100 100" fill="none" xmlns="http://www.w3.org/2000/svg">
<rect width="100" height="100" rx="16" fill="url(#paint0_linear_10492_29313)"/>
<path d="M58.241 49.1106C52.8 49.1106 48.0591 50.3838 44.1773 52.3562C48.7591 56.1108 51.7182 61.8061 51.7182 68.1698C51.7182 69.761 51.5273 71.3836 51.1455 72.8791H78.2226C83.2182 72.8791 85 71.4471 85 68.6471C85 60.4381 74.7229 49.1106 58.241 49.1106ZM58.241 43.4154C65.0819 43.4154 70.9682 37.3063 70.9682 29.3518C70.9682 21.4927 65.0502 15.6699 58.241 15.6699C51.4318 15.6699 45.5136 21.6199 45.5136 29.4154C45.5136 37.3063 51.4318 43.4154 58.241 43.4154ZM31.1636 84.3336C39.9455 84.3336 47.3591 76.9836 47.3591 68.1698C47.3591 59.2925 40.0409 52.0063 31.1636 52.0063C22.3182 52.0063 15 59.2925 15 68.1698C15 77.0471 22.3182 84.3336 31.1636 84.3336ZM23.6227 70.6199C22.5409 70.6199 21.65 69.761 21.65 68.6789C21.65 67.5971 22.5727 66.7382 23.6227 66.7382H29.3818V58.7516C29.3818 57.7016 30.2409 56.8427 31.3545 56.8427C32.4364 56.8427 33.2955 57.7016 33.2955 58.7516V68.6789C33.2955 69.7928 32.4364 70.6199 31.3545 70.6199H23.6227Z" fill="white"/>
<defs>
<linearGradient id="paint0_linear_10492_29313" x1="50" y1="0" x2="50" y2="100" gradientUnits="userSpaceOnUse">
<stop stop-color="#F4BF00"/>
<stop offset="1" stop-color="#FFE55A"/>
</linearGradient>
</defs>
</svg>
