<svg width="101" height="100" viewBox="0 0 101 100" fill="none" xmlns="http://www.w3.org/2000/svg">
<rect x="0.832031" width="100" height="100" rx="16" fill="url(#paint0_linear_6399_131281)"/>
<path d="M27.7712 85H73.8931C81.8778 85 85.8322 81.0456 85.8322 73.2133V26.7871C85.8322 18.9544 81.8778 15 73.8931 15H27.7712C19.8244 15 15.832 18.9164 15.832 26.7871V73.2133C15.832 81.0841 19.8244 85 27.7712 85ZM50.8511 72.3387C49.7865 72.3387 48.988 71.578 48.988 70.4756V67.6616C43.7409 67.1676 39.3682 64.2776 38.2656 59.753C38.1515 59.3727 38.0754 58.9545 38.0754 58.5363C38.0754 57.1674 39.026 56.2169 40.3568 56.2169C41.5355 56.2169 42.372 56.8252 42.7903 58.194C43.4367 60.7796 45.4899 62.7568 48.988 63.2511V51.6921L48.7218 51.6161C42.1819 50.0571 38.8359 47.0914 38.8359 42.1103C38.8359 36.7491 43.0564 33.0229 48.988 32.3765V29.6768C48.988 28.5742 49.7865 27.8137 50.8511 27.8137C51.9158 27.8137 52.7523 28.5742 52.7523 29.6768V32.3765C57.7713 32.9468 61.7637 35.8746 62.7903 40.0951C62.8664 40.5134 62.9804 40.9316 62.9804 41.3119C62.9804 42.6807 61.9919 43.6313 60.6611 43.6313C59.4063 43.6313 58.6459 42.8708 58.2656 41.6921C57.4671 39.0685 55.528 37.3955 52.7523 36.9012V47.8138L53.2466 47.9278C60.0527 49.1446 63.5128 52.3765 63.5128 57.6997C63.5128 63.6312 58.7979 67.1676 52.7523 67.738V70.4756C52.7523 71.578 51.9158 72.3387 50.8511 72.3387ZM48.988 46.8252V36.9012C45.68 37.4715 43.7028 39.4868 43.7028 41.8442C43.7028 44.1636 45.2618 45.7225 48.7218 46.7491L48.988 46.8252ZM52.7523 52.6047V63.2511C56.7447 62.7948 58.6839 60.7035 58.6839 57.9659C58.6839 55.4944 57.3531 53.8594 53.5508 52.8328L52.7523 52.6047Z" fill="white"/>
<defs>
<linearGradient id="paint0_linear_6399_131281" x1="50.832" y1="0" x2="50.832" y2="100" gradientUnits="userSpaceOnUse">
<stop stop-color="#F4BF00"/>
<stop offset="1" stop-color="#FFE55A"/>
</linearGradient>
</defs>
</svg>
