<svg width="101" height="100" viewBox="0 0 101 100" fill="none" xmlns="http://www.w3.org/2000/svg">
<rect x="0.832031" width="100" height="100" rx="16" fill="url(#paint0_linear_6399_131279)"/>
<path d="M26.5286 82.3311H74.5066C81.8472 82.3311 85.5 78.6783 85.5 71.4433V28.558C85.5 21.3227 81.8472 17.6699 74.5066 17.6699H26.5286C19.1879 17.6699 15.5 21.2876 15.5 28.558V71.4433C15.5 78.7138 19.1879 82.3311 26.5286 82.3311ZM26.0018 76.6764C22.8758 76.6764 21.1548 75.0255 21.1548 71.7594V38.6383C21.1548 35.407 22.8758 33.7211 26.0018 33.7211H74.9633C78.0892 33.7211 79.8453 35.407 79.8453 38.6383V71.7594C79.8453 75.0255 78.0892 76.6764 74.9633 76.6764H26.0018ZM43.6686 46.3302H45.7409C46.9702 46.3302 47.3565 45.979 47.3565 44.7497V42.6774C47.3565 41.4482 46.9702 41.0618 45.7409 41.0618H43.6686C42.4393 41.0618 42.0178 41.4482 42.0178 42.6774V44.7497C42.0178 45.979 42.4393 46.3302 43.6686 46.3302ZM55.3295 46.3302H57.4017C58.631 46.3302 59.0525 45.979 59.0525 44.7497V42.6774C59.0525 41.4482 58.631 41.0618 57.4017 41.0618H55.3295C54.1001 41.0618 53.6787 41.4482 53.6787 42.6774V44.7497C53.6787 45.979 54.1001 46.3302 55.3295 46.3302ZM66.9901 46.3302H69.0627C70.2918 46.3302 70.7131 45.979 70.7131 44.7497V42.6774C70.7131 41.4482 70.2918 41.0618 69.0627 41.0618H66.9901C65.761 41.0618 65.3748 41.4482 65.3748 42.6774V44.7497C65.3748 45.979 65.761 46.3302 66.9901 46.3302ZM32.0078 57.8154H34.0449C35.3093 57.8154 35.6957 57.4642 35.6957 56.2349V54.1627C35.6957 52.9334 35.3093 52.5821 34.0449 52.5821H32.0078C30.7433 52.5821 30.357 52.9334 30.357 54.1627V56.2349C30.357 57.4642 30.7433 57.8154 32.0078 57.8154ZM43.6686 57.8154H45.7409C46.9702 57.8154 47.3565 57.4642 47.3565 56.2349V54.1627C47.3565 52.9334 46.9702 52.5821 45.7409 52.5821H43.6686C42.4393 52.5821 42.0178 52.9334 42.0178 54.1627V56.2349C42.0178 57.4642 42.4393 57.8154 43.6686 57.8154ZM55.3295 57.8154H57.4017C58.631 57.8154 59.0525 57.4642 59.0525 56.2349V54.1627C59.0525 52.9334 58.631 52.5821 57.4017 52.5821H55.3295C54.1001 52.5821 53.6787 52.9334 53.6787 54.1627V56.2349C53.6787 57.4642 54.1001 57.8154 55.3295 57.8154ZM66.9901 57.8154H69.0627C70.2918 57.8154 70.7131 57.4642 70.7131 56.2349V54.1627C70.7131 52.9334 70.2918 52.5821 69.0627 52.5821H66.9901C65.761 52.5821 65.3748 52.9334 65.3748 54.1627V56.2349C65.3748 57.4642 65.761 57.8154 66.9901 57.8154ZM32.0078 69.3357H34.0449C35.3093 69.3357 35.6957 68.9496 35.6957 67.72V65.6479C35.6957 64.4187 35.3093 64.0672 34.0449 64.0672H32.0078C30.7433 64.0672 30.357 64.4187 30.357 65.6479V67.72C30.357 68.9496 30.7433 69.3357 32.0078 69.3357ZM43.6686 69.3357H45.7409C46.9702 69.3357 47.3565 68.9496 47.3565 67.72V65.6479C47.3565 64.4187 46.9702 64.0672 45.7409 64.0672H43.6686C42.4393 64.0672 42.0178 64.4187 42.0178 65.6479V67.72C42.0178 68.9496 42.4393 69.3357 43.6686 69.3357ZM55.3295 69.3357H57.4017C58.631 69.3357 59.0525 68.9496 59.0525 67.72V65.6479C59.0525 64.4187 58.631 64.0672 57.4017 64.0672H55.3295C54.1001 64.0672 53.6787 64.4187 53.6787 65.6479V67.72C53.6787 68.9496 54.1001 69.3357 55.3295 69.3357Z" fill="white"/>
<defs>
<linearGradient id="paint0_linear_6399_131279" x1="50.832" y1="0" x2="50.832" y2="100" gradientUnits="userSpaceOnUse">
<stop stop-color="#E45B00"/>
<stop offset="1" stop-color="#FFA836"/>
</linearGradient>
</defs>
</svg>
