<svg width="101" height="100" viewBox="0 0 101 100" fill="none" xmlns="http://www.w3.org/2000/svg">
<rect x="0.832031" width="100" height="100" rx="16" fill="url(#paint0_linear_6399_131295)"/>
<path d="M50.8954 53.3516C52.1953 53.3516 53.4 52.8003 54.7949 51.5234L82.3763 26.538C81.2035 25.4933 79.0159 25 75.8774 25H24.8357C22.1726 25 20.3021 25.4643 19.2559 26.4219L46.996 51.5234C48.3592 52.7713 49.5639 53.3516 50.8954 53.3516ZM16.6246 70.328L39.0386 50.0435L16.5612 29.7591C16.0857 30.5716 15.832 31.9646 15.832 33.9669V66.004C15.832 68.0644 16.0857 69.5153 16.6246 70.328ZM25.7867 75H76.8282C79.4915 75 81.3301 74.5357 82.3763 73.6071L59.5185 52.8873L57.4262 54.8316C55.2387 56.7469 53.178 57.6175 50.8954 57.6175C48.5811 57.6175 46.5204 56.7469 44.3646 54.8316L42.2405 52.8873L19.4462 73.5781C20.6509 74.5357 22.7432 75 25.7867 75ZM85.0712 70.2986C85.5784 69.4573 85.832 68.0354 85.832 66.004V33.9669C85.832 32.0226 85.5784 30.6297 85.1345 29.8462L62.7207 50.0435L85.0712 70.2986Z" fill="white"/>
<defs>
<linearGradient id="paint0_linear_6399_131295" x1="50.832" y1="0" x2="50.832" y2="100" gradientUnits="userSpaceOnUse">
<stop stop-color="#2DAA0E"/>
<stop offset="1" stop-color="#8EE933"/>
</linearGradient>
</defs>
</svg>
