<svg width="101" height="100" viewBox="0 0 101 100" fill="none" xmlns="http://www.w3.org/2000/svg">
<rect x="0.832031" width="100" height="100" rx="16" fill="url(#paint0_linear_6399_131293)"/>
<path fill-rule="evenodd" clip-rule="evenodd" d="M54.9063 18.8707C53.3989 18.8707 52.3396 20.5084 52.1074 22.0484L50.4452 33.2644H57.9374V38.801H49.6263L44.0856 76.2418C43.7119 80.5963 40.169 83.9998 35.803 84.1984C31.2202 84.1917 27.5067 80.4783 27.5 75.8955H33.0407C33.043 77.4223 34.2802 78.6595 35.807 78.6618C37.3448 78.4466 38.5127 77.1692 38.5896 75.6184V75.4881L44.0163 38.801H36.3448V33.2644H44.8474L46.6278 21.2336C47.0564 16.9182 50.5716 13.5623 54.9022 13.334C59.4866 13.3385 63.2025 17.0526 63.2093 21.6369H57.6726C57.6703 20.1101 56.4331 18.8729 54.9063 18.8707ZM67.0956 50.0007H74.3489L66.0467 60.9012L71.38 71.4012H64.7756L62.1089 66.1045L58.0867 71.4012H50.8333L59.2111 60.3801L53.9533 50.0007H60.5578L63.1711 55.1651L67.0956 50.0007Z" fill="white"/>
<defs>
<linearGradient id="paint0_linear_6399_131293" x1="50.832" y1="0" x2="50.832" y2="100" gradientUnits="userSpaceOnUse">
<stop stop-color="#D71A22"/>
<stop offset="1" stop-color="#EF5164"/>
</linearGradient>
</defs>
</svg>
