<svg width="101" height="100" viewBox="0 0 101 100" fill="none" xmlns="http://www.w3.org/2000/svg">
<rect x="0.832031" width="100" height="100" rx="16" fill="url(#paint0_linear_6399_131277)"/>
<g clip-path="url(#clip0_6399_131277)">
<path d="M21.2036 80.4381H55.5882C54.6306 78.7867 53.9038 77.0029 53.4413 75.1202H20.7082C17.7684 75.1202 16.1499 73.5678 16.1499 70.4958V39.3481C16.1499 36.3093 17.7684 34.7238 20.7082 34.7238H66.7528C69.6925 34.7238 71.3439 36.3093 71.3439 39.3481V48.7288C72.302 48.6297 73.1607 48.5636 74.0523 48.5636C74.911 48.5636 75.8031 48.6297 76.6618 48.7288V29.8683C76.6618 23.0641 73.2266 19.6289 66.3233 19.6289H21.2036C14.3002 19.6289 10.832 23.031 10.832 29.8683V70.1985C10.832 77.0359 14.3002 80.4381 21.2036 80.4381ZM37.2895 46.5818H39.2383C40.3943 46.5818 40.7907 46.2515 40.7907 45.0954V43.1466C40.7907 41.9905 40.3943 41.6272 39.2383 41.6272H37.2895C36.1334 41.6272 35.737 41.9905 35.737 43.1466V45.0954C35.737 46.2515 36.1334 46.5818 37.2895 46.5818ZM48.2887 46.5818H50.2044C51.3605 46.5818 51.7568 46.2515 51.7568 45.0954V43.1466C51.7568 41.9905 51.3605 41.6272 50.2044 41.6272H48.2887C47.0995 41.6272 46.7362 41.9905 46.7362 43.1466V45.0954C46.7362 46.2515 47.0995 46.5818 48.2887 46.5818ZM59.2547 46.5818H61.2037C62.3596 46.5818 62.7228 46.2515 62.7228 45.0954V43.1466C62.7228 41.9905 62.3596 41.6272 61.2037 41.6272H59.2547C58.0987 41.6272 57.7022 41.9905 57.7022 43.1466V45.0954C57.7022 46.2515 58.0987 46.5818 59.2547 46.5818ZM26.3233 57.3829H28.2721C29.4282 57.3829 29.7916 57.0523 29.7916 55.8964V53.9476C29.7916 52.7915 29.4282 52.4612 28.2721 52.4612H26.3233C25.1673 52.4612 24.7709 52.7915 24.7709 53.9476V55.8964C24.7709 57.0523 25.1673 57.3829 26.3233 57.3829ZM37.2895 57.3829H39.2383C40.3943 57.3829 40.7907 57.0523 40.7907 55.8964V53.9476C40.7907 52.7915 40.3943 52.4612 39.2383 52.4612H37.2895C36.1334 52.4612 35.737 52.7915 35.737 53.9476V55.8964C35.737 57.0523 36.1334 57.3829 37.2895 57.3829ZM48.2887 57.3829H50.2044C51.3605 57.3829 51.7568 57.0523 51.7568 55.8964V53.9476C51.7568 52.7915 51.3605 52.4612 50.2044 52.4612H48.2887C47.0995 52.4612 46.7362 52.7915 46.7362 53.9476V55.8964C46.7362 57.0523 47.0995 57.3829 48.2887 57.3829ZM26.3233 68.2169H28.2721C29.4282 68.2169 29.7916 67.8533 29.7916 66.6974V64.7483C29.7916 63.5924 29.4282 63.2622 28.2721 63.2622H26.3233C25.1673 63.2622 24.7709 63.5924 24.7709 64.7483V66.6974C24.7709 67.8533 25.1673 68.2169 26.3233 68.2169ZM37.2895 68.2169H39.2383C40.3943 68.2169 40.7907 67.8533 40.7907 66.6974V64.7483C40.7907 63.5924 40.3943 63.2622 39.2383 63.2622H37.2895C36.1334 63.2622 35.737 63.5924 35.737 64.7483V66.6974C35.737 67.8533 36.1334 68.2169 37.2895 68.2169ZM48.2887 68.2169H50.2044C51.3605 68.2169 51.7568 67.8533 51.7568 66.6974V64.7483C51.7568 63.5924 51.3605 63.2622 50.2044 63.2622H48.2887C47.0995 63.2622 46.7362 63.5924 46.7362 64.7483V66.6974C46.7362 67.8533 47.0995 68.2169 48.2887 68.2169ZM74.0523 86.6476C83.136 86.6476 90.832 79.0509 90.832 69.8683C90.832 60.6528 83.2349 53.0888 74.0523 53.0888C64.8368 53.0888 57.273 60.6858 57.273 69.8683C57.273 79.1169 64.8368 86.6476 74.0523 86.6476ZM66.2244 72.4448C65.068 72.4448 64.1434 71.5198 64.1434 70.3968C64.1434 69.3069 65.101 68.3818 66.2244 68.3818H72.1696V60.0913C72.1696 59.0014 73.0947 58.1093 74.2176 58.1093C75.3406 58.1093 76.2656 59.0014 76.2656 60.0913V70.3968C76.2656 71.5527 75.3735 72.4448 74.2176 72.4448H66.2244Z" fill="white"/>
</g>
<defs>
<linearGradient id="paint0_linear_6399_131277" x1="50.832" y1="0" x2="50.832" y2="100" gradientUnits="userSpaceOnUse">
<stop stop-color="#E45B00"/>
<stop offset="1" stop-color="#FFA836"/>
</linearGradient>
<clipPath id="clip0_6399_131277">
<rect width="80" height="80" fill="white" transform="translate(10.832 10)"/>
</clipPath>
</defs>
</svg>
