<svg width="101" height="100" viewBox="0 0 101 100" fill="none" xmlns="http://www.w3.org/2000/svg">
<rect x="0.832031" width="100" height="100" rx="16" fill="url(#paint0_linear_6399_131275)"/>
<path d="M59.073 49.1106C53.632 49.1106 48.8911 50.3838 45.0093 52.3562C49.5911 56.1108 52.5502 61.8061 52.5502 68.1698C52.5502 69.761 52.3593 71.3836 51.9775 72.8791H79.0546C84.0502 72.8791 85.832 71.4471 85.832 68.6471C85.832 60.4381 75.5549 49.1106 59.073 49.1106ZM59.073 43.4154C65.914 43.4154 71.8003 37.3063 71.8003 29.3518C71.8003 21.4927 65.8822 15.6699 59.073 15.6699C52.2638 15.6699 46.3457 21.6199 46.3457 29.4154C46.3457 37.3063 52.2638 43.4154 59.073 43.4154ZM31.9957 84.3336C40.7775 84.3336 48.1911 76.9836 48.1911 68.1698C48.1911 59.2925 40.8729 52.0063 31.9957 52.0063C23.1502 52.0063 15.832 59.2925 15.832 68.1698C15.832 77.0471 23.1502 84.3336 31.9957 84.3336ZM24.4548 70.6199C23.3729 70.6199 22.482 69.761 22.482 68.6789C22.482 67.5971 23.4048 66.7382 24.4548 66.7382H30.2139V58.7516C30.2139 57.7016 31.073 56.8427 32.1866 56.8427C33.2684 56.8427 34.1275 57.7016 34.1275 58.7516V68.6789C34.1275 69.7928 33.2684 70.6199 32.1866 70.6199H24.4548Z" fill="white"/>
<defs>
<linearGradient id="paint0_linear_6399_131275" x1="50.832" y1="0" x2="50.832" y2="100" gradientUnits="userSpaceOnUse">
<stop stop-color="#E45B00"/>
<stop offset="1" stop-color="#FFA836"/>
</linearGradient>
</defs>
</svg>
