<svg width="101" height="100" viewBox="0 0 101 100" fill="none" xmlns="http://www.w3.org/2000/svg">
<rect x="0.832031" width="100" height="100" rx="16" fill="url(#paint0_linear_6399_131265)"/>
<path d="M51.186 38.3673L47.4314 42.1784C51.1578 42.489 53.5856 43.5899 55.4206 45.4249C60.3609 50.3652 60.3327 57.3663 55.4488 62.2502L46.2175 71.4534C41.3054 76.3652 34.3608 76.3934 29.4205 71.4816C24.4802 66.5131 24.5084 59.5683 29.4205 54.6562L34.9536 49.1231C34.1632 47.3446 33.9655 45.2273 34.2761 43.3923L25.9764 51.6638C19.2293 58.4391 19.1729 68.0372 26.0046 74.8692C32.8645 81.729 42.4628 81.6727 49.2099 74.9256L58.8645 65.2426C65.6398 58.4673 65.6965 48.869 58.8363 42.0373C57.0578 40.2588 54.7995 38.9884 51.186 38.3673ZM50.4802 61.6291L54.2349 57.8179C50.5085 57.5357 48.0807 56.4065 46.2457 54.5715C41.3054 49.6312 41.3336 42.6301 46.2175 37.7463L55.4206 28.5432C60.3609 23.6311 67.3056 23.6029 72.246 28.5432C77.1859 33.4835 77.1296 40.4564 72.246 45.3402L66.7126 50.8734C67.5033 52.6801 67.6724 54.7691 67.3902 56.6042L75.69 48.3326C82.4371 41.5574 82.4934 31.9873 75.6618 25.1273C68.8016 18.2674 59.2035 18.3238 52.4282 25.0991L42.8016 34.7539C36.0263 41.5291 35.9699 51.1274 42.8299 57.9592C44.6083 59.7378 46.8668 61.0079 50.4802 61.6291Z" fill="white"/>
<defs>
<linearGradient id="paint0_linear_6399_131265" x1="50.832" y1="0" x2="50.832" y2="100" gradientUnits="userSpaceOnUse">
<stop stop-color="#32209B"/>
<stop offset="1" stop-color="#8F5AFF"/>
</linearGradient>
</defs>
</svg>
