<svg width="101" height="100" viewBox="0 0 101 100" fill="none" xmlns="http://www.w3.org/2000/svg">
<rect x="0.832031" width="100" height="100" rx="16" fill="url(#paint0_linear_6399_131289)"/>
<path d="M16.1719 43.3122C16.1719 58.9229 28.8733 71.6245 44.484 71.6245C50.6573 71.6245 56.2985 69.6372 60.9462 66.3026L78.4017 83.7934C79.2178 84.6095 80.2823 85 81.4176 85C83.8299 85 85.4975 83.1903 85.4975 80.8134C85.4975 79.6781 85.072 78.649 84.3268 77.9042L66.9776 60.4484C70.632 55.6943 72.7964 49.7693 72.7964 43.3122C72.7964 27.7015 60.0948 15 44.484 15C28.8733 15 16.1719 27.7015 16.1719 43.3122ZM22.2388 43.3122C22.2388 31.0365 32.2083 21.0669 44.484 21.0669C56.7597 21.0669 66.7292 31.0365 66.7292 43.3122C66.7292 55.5878 56.7597 65.5573 44.484 65.5573C32.2083 65.5573 22.2388 55.5878 22.2388 43.3122Z" fill="white"/>
<defs>
<linearGradient id="paint0_linear_6399_131289" x1="50.832" y1="0" x2="50.832" y2="100" gradientUnits="userSpaceOnUse">
<stop stop-color="#9D19CB"/>
<stop offset="1" stop-color="#FF6CF0"/>
</linearGradient>
</defs>
</svg>
