<svg width="101" height="100" viewBox="0 0 101 100" fill="none" xmlns="http://www.w3.org/2000/svg">
<rect x="0.832031" width="100" height="100" rx="16" fill="url(#paint0_linear_6399_131263)"/>
<path d="M16.9062 44.4198V40.1448L17.6263 40.0998C22.3062 39.7848 24.6463 38.1648 25.5463 33.9798H30.3613V66.0198H24.2863V44.4198H16.9062Z" fill="white"/>
<path d="M34.7523 66.0198L34.8873 63.6348C35.2473 57.3798 37.4073 53.6448 43.3023 50.9898L46.4523 49.3698C50.1873 47.5698 51.5823 45.9048 51.5823 43.1598C51.5823 40.2348 49.6023 38.3898 46.3173 38.3898C42.6273 38.3898 40.7823 40.3248 40.7823 44.2398H34.9323C34.8873 37.3548 38.9823 33.2598 46.4973 33.2598C53.3823 33.2598 57.7023 37.0848 57.7023 42.7098C57.7023 47.5698 55.1373 50.7198 49.2423 53.6448L46.2723 55.2198C42.8973 57.0198 41.7723 58.3248 41.5473 60.8898H58.0623V66.0198H34.7523Z" fill="white"/>
<path d="M72.9263 66.7398C64.7813 66.7398 60.3713 62.5548 60.3713 55.3998H66.2663C66.3563 59.5398 68.5163 61.6098 72.7463 61.6098C76.3913 61.6098 78.6413 59.6748 78.6413 56.6148C78.6413 53.3298 76.3463 51.4398 72.5213 51.4398H70.1363V46.9848H72.4763C76.2113 46.9848 78.1013 45.4998 78.1013 42.5298C78.1013 39.8298 76.0763 38.2098 72.7013 38.2098C69.0563 38.2098 67.1663 39.9198 66.9863 43.2948H61.1363C61.2713 36.8598 65.3663 33.2598 72.7463 33.2598C79.6313 33.2598 83.9963 36.6348 83.9963 42.0348C83.9963 45.0948 82.5113 47.3898 79.4963 48.9198C82.8713 50.3598 84.9413 53.1948 84.9413 56.8398C84.9413 63.6798 79.0913 66.7398 72.9263 66.7398Z" fill="white"/>
<defs>
<linearGradient id="paint0_linear_6399_131263" x1="50.832" y1="0" x2="50.832" y2="100" gradientUnits="userSpaceOnUse">
<stop stop-color="#32209B"/>
<stop offset="1" stop-color="#8F5AFF"/>
</linearGradient>
</defs>
</svg>
