<svg width="101" height="100" viewBox="0 0 101 100" fill="none" xmlns="http://www.w3.org/2000/svg">
<rect x="0.832031" width="100" height="100" rx="16" fill="url(#paint0_linear_6399_131259)"/>
<path fill-rule="evenodd" clip-rule="evenodd" d="M47.4974 66.666H27.4974C25.6564 66.666 24.1641 68.1584 24.1641 69.9993C24.1641 71.8403 25.6564 73.3327 27.4974 73.3327H47.4974C49.3383 73.3327 50.8307 71.8403 50.8307 69.9993C50.8307 68.1584 49.3383 66.666 47.4974 66.666ZM27.4974 33.3327H74.1641C76.005 33.3327 77.4974 31.8403 77.4974 29.9993C77.4974 28.1584 76.005 26.666 74.1641 26.666H27.4974C25.6564 26.666 24.1641 28.1584 24.1641 29.9993C24.1641 31.8403 25.6564 33.3327 27.4974 33.3327ZM74.1641 39.9993H27.4974C25.6564 39.9993 24.1641 41.4917 24.1641 43.3327C24.1641 45.1736 25.6564 46.666 27.4974 46.666H74.1641C76.005 46.666 77.4974 45.1736 77.4974 43.3327C77.4974 41.4917 76.005 39.9993 74.1641 39.9993ZM74.1641 53.3327H27.4974C25.6564 53.3327 24.1641 54.8251 24.1641 56.666C24.1641 58.507 25.6564 59.9994 27.4974 59.9994H74.1641C76.005 59.9994 77.4974 58.507 77.4974 56.666C77.4974 54.8251 76.005 53.3327 74.1641 53.3327Z" fill="white"/>
<defs>
<linearGradient id="paint0_linear_6399_131259" x1="50.832" y1="0" x2="50.832" y2="100" gradientUnits="userSpaceOnUse">
<stop stop-color="#2762D3"/>
<stop offset="1" stop-color="#5AA9FF"/>
</linearGradient>
</defs>
</svg>
