<svg width="101" height="100" viewBox="0 0 101 100" fill="none" xmlns="http://www.w3.org/2000/svg">
<rect x="0.832031" width="100" height="100" rx="16" fill="url(#paint0_linear_6399_131299)"/>
<path d="M28.4603 80H73.2099C76.7804 80 78.9161 78.3316 78.9161 75.5616C78.9161 66.9521 68.1376 55.0723 50.8184 55.0723C33.5325 55.0723 22.7539 66.9521 22.7539 75.5616C22.7539 78.3316 24.8896 80 28.4603 80ZM50.8517 49.099C57.993 49.099 64.1999 42.6918 64.1999 34.3493C64.1999 26.1068 57.993 20 50.8517 20C43.7105 20 37.5036 26.2403 37.5036 34.416C37.5036 42.6919 43.6771 49.099 50.8517 49.099Z" fill="white"/>
<defs>
<linearGradient id="paint0_linear_6399_131299" x1="50.832" y1="0" x2="50.832" y2="100" gradientUnits="userSpaceOnUse">
<stop stop-color="#2DAA0E"/>
<stop offset="1" stop-color="#8EE933"/>
</linearGradient>
</defs>
</svg>
