<svg width="101" height="100" viewBox="0 0 101 100" fill="none" xmlns="http://www.w3.org/2000/svg">
<rect x="0.832031" width="100" height="100" rx="16" fill="url(#paint0_linear_6399_131297)"/>
<path d="M35.0398 65.7C45.9337 76.5939 59.1648 85 69.9831 85C74.8462 85 79.1057 83.304 82.5358 79.5342C84.5338 77.3104 85.7777 74.7093 85.7777 72.1457C85.7777 70.2611 85.0612 68.4517 83.2899 67.1702L71.7172 58.9527C69.9455 57.7464 68.4753 57.1433 67.1185 57.1433C65.422 57.1433 63.8767 58.1234 62.1427 59.8196L59.4663 62.4581C59.0517 62.8731 58.5239 63.0613 58.0339 63.0613C57.4685 63.0613 56.903 62.8354 56.5261 62.6468C54.189 61.4029 50.1933 57.9726 46.4615 54.2784C42.7673 50.5843 39.3371 46.5886 38.1308 44.2515C37.9423 43.8368 37.7162 43.3091 37.7162 42.7437C37.7162 42.2537 37.867 41.7636 38.2816 41.349L40.9579 38.5972C42.6165 36.8632 43.6343 35.3554 43.6343 33.6215C43.6343 32.2644 42.9935 30.7943 41.7496 29.0226L33.6451 17.601C32.3257 15.7916 30.4787 15 28.4431 15C25.9553 15 23.392 16.1309 21.168 18.2795C17.5115 21.7851 15.8906 26.1201 15.8906 30.9074C15.8906 41.7259 24.1459 54.8439 35.0398 65.7Z" fill="white"/>
<defs>
<linearGradient id="paint0_linear_6399_131297" x1="50.832" y1="0" x2="50.832" y2="100" gradientUnits="userSpaceOnUse">
<stop stop-color="#2DAA0E"/>
<stop offset="1" stop-color="#8EE933"/>
</linearGradient>
</defs>
</svg>
