<svg width="101" height="100" viewBox="0 0 101 100" fill="none" xmlns="http://www.w3.org/2000/svg">
<rect x="0.832031" width="100" height="100" rx="16" fill="url(#paint0_linear_6399_131287)"/>
<path fill-rule="evenodd" clip-rule="evenodd" d="M73.5177 40.1855H28.0547C22.5917 40.1855 18.0547 44.63 18.0547 50.1855C18.0547 55.7411 22.4991 60.1855 28.0547 60.1855H73.5177C78.9806 60.1855 83.5177 55.7411 83.5177 50.1855C83.5177 44.63 79.0732 40.1855 73.5177 40.1855ZM73.5177 56.4818H28.0547C24.6288 56.4818 21.7584 53.7041 21.7584 50.1855C21.7584 46.7596 24.5362 43.8893 28.0547 43.8893H73.5177C76.9436 43.8893 79.8139 46.667 79.8139 50.1855C79.8139 53.6115 77.0362 56.4818 73.5177 56.4818ZM56.1102 46.7596H28.4251C26.5732 46.7596 24.9991 48.2411 24.9991 50.1855C24.9991 52.13 26.4806 53.6115 28.4251 53.6115H56.1102C57.9621 53.6115 59.5362 52.13 59.5362 50.1855C59.5362 48.2411 57.9621 46.7596 56.1102 46.7596Z" fill="white"/>
<defs>
<linearGradient id="paint0_linear_6399_131287" x1="50.832" y1="0" x2="50.832" y2="100" gradientUnits="userSpaceOnUse">
<stop stop-color="#9D19CB"/>
<stop offset="1" stop-color="#FF6CF0"/>
</linearGradient>
</defs>
</svg>
