<svg width="101" height="100" viewBox="0 0 101 100" fill="none" xmlns="http://www.w3.org/2000/svg">
<rect x="0.832031" width="100" height="100" rx="16" fill="url(#paint0_linear_6399_131283)"/>
<path d="M28.2177 84.3556C29.5699 85.411 31.285 85.0483 33.3299 83.564L50.7775 70.7337L68.2583 83.564C70.3029 85.0483 71.9852 85.411 73.3704 84.3556C74.7226 83.3331 75.0194 81.6511 74.1949 79.2435L67.3017 58.7284L84.9143 46.0632C86.9589 44.612 87.7838 43.0948 87.2561 41.4457C86.7283 39.8625 85.1781 39.071 82.6383 39.1039L61.0349 39.2359L54.4715 18.622C53.68 16.1813 52.4926 14.9609 50.7775 14.9609C49.0954 14.9609 47.9081 16.1813 47.1165 18.622L40.553 39.2359L18.9496 39.1039C16.41 39.071 14.8599 39.8625 14.3321 41.4457C13.7714 43.0948 14.629 44.612 16.6739 46.0632L34.2864 58.7284L27.3931 79.2435C26.5685 81.6511 26.8654 83.3331 28.2177 84.3556Z" fill="white"/>
<defs>
<linearGradient id="paint0_linear_6399_131283" x1="50.832" y1="0" x2="50.832" y2="100" gradientUnits="userSpaceOnUse">
<stop stop-color="#F4BF00"/>
<stop offset="1" stop-color="#FFE55A"/>
</linearGradient>
</defs>
</svg>
