<svg width="101" height="100" viewBox="0 0 101 100" fill="none" xmlns="http://www.w3.org/2000/svg">
<rect x="0.832031" width="100" height="100" rx="16" fill="url(#paint0_linear_6399_131267)"/>
<path d="M25.1535 76.2965H61.7267V71.5171H25.2128C22.2442 71.5171 20.6115 69.944 20.6115 66.8566V31.0847C20.6115 27.9974 22.2442 26.424 25.2128 26.424H76.451C79.3902 26.424 81.0526 27.9974 81.0526 31.0847V52.2806L85.832 57.1195V30.8473C85.832 24.7319 82.7447 21.6445 76.5107 21.6445H25.1535C18.9491 21.6445 15.832 24.7022 15.832 30.8473V67.0941C15.832 73.2392 18.9491 76.2965 25.1535 76.2965ZM29.5173 39.1594H64.1909C65.2594 39.1594 66.0311 38.3578 66.0311 37.3188C66.0311 36.3095 65.2594 35.508 64.1909 35.508H29.5173C28.419 35.508 27.6471 36.3095 27.6471 37.3188C27.6471 38.3578 28.419 39.1594 29.5173 39.1594ZM29.5173 50.7963H50.0008C51.0398 50.7963 51.8116 49.9948 51.8116 48.9261C51.8116 47.9168 51.0398 47.1449 50.0008 47.1449H29.5173C28.419 47.1449 27.6471 47.9168 27.6471 48.9261C27.6471 49.9948 28.419 50.7963 29.5173 50.7963ZM29.5173 62.4036H57.5116C58.5504 62.4036 59.3222 61.6319 59.3222 60.6223C59.3222 59.5834 58.5504 58.7524 57.5116 58.7524H29.5173C28.419 58.7524 27.6471 59.5834 27.6471 60.6223C27.6471 61.6319 28.419 62.4036 29.5173 62.4036ZM64.2502 68.8751C64.2205 70.0329 65.5862 70.419 66.3283 69.6769L70.8406 65.1346L75.9168 77.6622C76.1839 78.2265 76.7778 78.4936 77.3121 78.2858L80.2508 77.0983C80.7855 76.8608 80.993 76.2373 80.7258 75.6734L75.3825 63.3536L81.7947 63.0865C82.9225 63.0272 83.4571 61.9286 82.6554 61.0972L66.4468 44.4138C65.6751 43.6717 64.5469 44.0873 64.5173 45.1856L64.2502 68.8751Z" fill="white"/>
<defs>
<linearGradient id="paint0_linear_6399_131267" x1="50.832" y1="0" x2="50.832" y2="100" gradientUnits="userSpaceOnUse">
<stop stop-color="#32209B"/>
<stop offset="1" stop-color="#8F5AFF"/>
</linearGradient>
</defs>
</svg>
