<svg width="101" height="100" viewBox="0 0 101 100" fill="none" xmlns="http://www.w3.org/2000/svg">
<rect x="0.832031" width="100" height="100" rx="16" fill="url(#paint0_linear_6399_131269)"/>
<path d="M16.5112 43.5683C17.5006 44.5578 18.8294 44.4447 19.7906 43.5118L22.5046 40.8261L26.6887 36.3875V67.2595C26.6887 73.1116 29.6854 76.0232 35.5658 76.0232H58.5784C60.1898 76.0232 61.1227 75.2036 61.0945 73.7616C61.0662 72.2916 60.1898 71.4717 58.5784 71.4717H35.6506C32.8235 71.4717 31.2403 69.9735 31.2403 67.0333V36.331L35.4527 40.8261L38.1667 43.5118C39.1279 44.4447 40.4849 44.5578 41.4461 43.5683C42.4073 42.6354 42.3508 41.2501 41.3896 40.2889L31.8623 30.7899C30.0247 28.9805 27.9609 28.9805 26.1233 30.7899L16.596 40.2889C15.6065 41.2501 15.5782 42.6354 16.5112 43.5683ZM40.5697 26.2382C40.598 27.68 41.4744 28.5282 43.0858 28.5282H66.0419C68.8688 28.5282 70.4238 30.0265 70.4238 32.9667V63.6691L66.2113 59.1456L63.4973 56.4881C62.5362 55.5552 61.2074 55.4421 60.218 56.4033C59.2569 57.3646 59.3134 58.7498 60.2745 59.711L69.8017 69.1818C71.6679 71.0193 73.7034 71.0193 75.5692 69.1818L85.0682 59.711C86.0576 58.7498 86.0858 57.3646 85.1529 56.4033C84.1918 55.4421 82.8348 55.527 81.8737 56.4881L79.1596 59.1456L74.9754 63.6126V32.7406C74.9754 26.8885 72.007 23.9766 66.0984 23.9766H43.0858C41.4744 23.9766 40.5415 24.7964 40.5697 26.2382Z" fill="white"/>
<defs>
<linearGradient id="paint0_linear_6399_131269" x1="50.832" y1="0" x2="50.832" y2="100" gradientUnits="userSpaceOnUse">
<stop stop-color="#32209B"/>
<stop offset="1" stop-color="#8F5AFF"/>
</linearGradient>
</defs>
</svg>
