<svg width="101" height="100" viewBox="0 0 101 100" fill="none" xmlns="http://www.w3.org/2000/svg">
<rect x="0.832031" width="100" height="100" rx="16" fill="url(#paint0_linear_6399_131257)"/>
<path fill-rule="evenodd" clip-rule="evenodd" d="M17.5 69.9994H24.6186L27.613 60.6613H43.9972L47.048 69.9994H54.1667L39.1384 26.666H32.4718L17.5 69.9994ZM29.7034 54.3139L35.7486 35.5158H35.8616L41.9633 54.3139H29.7034ZM68.3267 69.9994C72.4067 69.9994 75.5267 68.4487 77.6267 65.6455L77.7467 65.7051V69.5222H84.1667V40.4168H77.4467V43.9357L77.3267 43.9954C75.2267 41.3711 71.9867 39.9993 68.2667 39.9993C60.2267 39.9993 54.1667 46.3214 54.1667 55.0888C54.1667 64.0948 60.2267 69.9994 68.3267 69.9994ZM69.4067 63.9158C64.4267 63.9158 61.0067 60.2777 61.0067 55.1485C61.0067 49.5421 64.7267 46.0232 69.4067 46.0232C74.2067 46.0232 77.7467 49.9596 77.7467 55.1485C77.7467 60.397 73.9667 63.9158 69.4067 63.9158Z" fill="white"/>
<defs>
<linearGradient id="paint0_linear_6399_131257" x1="50.832" y1="0" x2="50.832" y2="100" gradientUnits="userSpaceOnUse">
<stop stop-color="#2762D3"/>
<stop offset="1" stop-color="#5AA9FF"/>
</linearGradient>
</defs>
</svg>
